<svg width="40" height="27" viewBox="0 0 40 27" fill="none" xmlns="http://www.w3.org/2000/svg">
<path d="M36.994 0.520996H3.11319C1.91805 0.520996 0.949188 1.14938 0.949188 1.92454V25.085C0.949188 25.8602 1.91805 26.4885 3.11319 26.4885H36.994C38.1891 26.4885 39.158 25.8602 39.158 25.085V1.92454C39.158 1.14938 38.1891 0.520996 36.994 0.520996Z" fill="#4289CB"/>
<path d="M4.10902 26.4883H36.9943C38.1843 26.4883 39.1583 25.8566 39.1583 25.0848V11.9158C39.1583 25.0848 17.6697 25.6128 4.10902 26.4883Z" fill="#176BB2"/>
<path d="M2.37576 2.61585V6.64174C2.53971 4.93226 3.80825 1.21231 11.7418 1.21231H4.53977C3.34974 1.21231 2.37576 1.84402 2.37576 2.61585Z" fill="#47A7D5"/>
<path d="M26.7222 13.4973L13.3852 7.1442V19.8504L26.7222 13.4973Z" fill="white"/>
</svg>
