<svg width="21" height="15" viewBox="0 0 21 15" fill="none" xmlns="http://www.w3.org/2000/svg">
<path fill-rule="evenodd" clip-rule="evenodd" d="M19.6988 1.33351C20.0095 1.64422 20.2334 2.03092 20.3482 2.45508C21.0091 5.1154 20.8564 9.31697 20.361 12.0799C20.2462 12.5041 20.0223 12.8908 19.7116 13.2015C19.4009 13.5122 19.0142 13.7361 18.59 13.8509C17.0372 14.2744 10.7875 14.2744 10.7875 14.2744C10.7875 14.2744 4.53775 14.2744 2.98494 13.8509C2.56077 13.7361 2.17407 13.5122 1.86335 13.2015C1.55264 12.8908 1.32874 12.5041 1.21396 12.0799C0.549206 9.43119 0.731438 5.22705 1.20113 2.46792C1.31591 2.04376 1.5398 1.65705 1.85052 1.34634C2.16124 1.03562 2.54794 0.811723 2.9721 0.69695C4.52491 0.27345 10.7747 0.26062 10.7747 0.26062C10.7747 0.26062 17.0244 0.26062 18.5772 0.684112C19.0014 0.798893 19.3881 1.02279 19.6988 1.33351ZM13.9701 7.26751L8.78551 10.2705V4.26455L13.9701 7.26751Z" fill="white"/>
</svg>
