<svg width="18" height="19" viewBox="0 0 18 19" fill="none" xmlns="http://www.w3.org/2000/svg">
<path d="M9 0.900269C6.61305 0.900269 4.32387 1.84848 2.63604 3.53631C0.948212 5.22413 0 7.51332 0 9.90027C0 12.2872 0.948212 14.5764 2.63604 16.2642C4.32387 17.9521 6.61305 18.9003 9 18.9003C11.3869 18.9003 13.6761 17.9521 15.364 16.2642C17.0518 14.5764 18 12.2872 18 9.90027C18 7.51332 17.0518 5.22413 15.364 3.53631C13.6761 1.84848 11.3869 0.900269 9 0.900269ZM1.11 10.5803H3.62C3.66 11.4903 3.787 12.3943 4 13.2803H1.84C1.43721 12.4311 1.18996 11.5167 1.11 10.5803ZM9.68 5.18027V2.09027C10.6437 2.45649 11.4356 3.16989 11.9 4.09027C12.105 4.43727 12.286 4.79827 12.44 5.17027L9.68 5.18027ZM12.9 6.53027C13.132 7.41327 13.27 8.31827 13.31 9.23027H9.68V6.53027H12.9ZM8.32 2.09027V5.18027H5.56C5.71426 4.80796 5.89471 4.44706 6.1 4.10027C6.56247 3.17612 7.35459 2.45893 8.32 2.09027ZM8.32 6.53027V9.23027H4.7C4.74 8.31827 4.878 7.41327 5.11 6.53027H8.32ZM3.62 9.22027H1.11C1.18996 8.28386 1.43721 7.36939 1.84 6.52027H4C3.78659 7.40591 3.65933 8.31012 3.62 9.22027ZM4.7 10.5803H8.32V13.2803H5.11C4.87804 12.3973 4.7406 11.4923 4.7 10.5803ZM8.33 14.5803V17.6703C7.36632 17.304 6.57445 16.5906 6.11 15.6703C5.90471 15.3235 5.72426 14.9626 5.57 14.5903L8.33 14.5803ZM9.68 17.6703V14.6303H12.44C12.2857 15.0026 12.1053 15.3635 11.9 15.7103C11.4356 16.6306 10.6437 17.344 9.68 17.7103V17.6703ZM9.68 13.2303V10.5303H13.3C13.2594 11.4423 13.122 12.3473 12.89 13.2303H9.68ZM14.39 10.5303H16.9C16.82 11.4667 16.5728 12.3811 16.17 13.2303H14C14.21 12.3603 14.337 11.4733 14.38 10.5803L14.39 10.5303ZM14.39 9.18027C14.3442 8.28658 14.2136 7.39926 14 6.53027H16.16C16.563 7.38027 16.81 8.29427 16.89 9.23027L14.39 9.18027ZM15.39 5.18027H13.6C13.2761 4.27057 12.8067 3.41949 12.21 2.66027C13.4544 3.21885 14.5353 4.08632 15.35 5.18027H15.39ZM5.79 2.66027C5.19332 3.41949 4.72388 4.27057 4.4 5.18027H2.65C3.46472 4.08632 4.54562 3.21885 5.79 2.66027ZM2.64 14.6603H4.4C4.72388 15.57 5.19332 16.421 5.79 17.1803C4.54218 16.6133 3.46095 15.7352 2.65 14.6303L2.64 14.6603ZM12.2 17.1803C12.7967 16.421 13.2661 15.57 13.59 14.6603H15.35C14.5303 15.7396 13.4498 16.5929 12.21 17.1403L12.2 17.1803Z" fill="white"/>
</svg>
