<svg width="21" height="12" viewBox="0 0 21 12" fill="none" xmlns="http://www.w3.org/2000/svg">
<path d="M10.4161 0.813045C9.34245 0.802121 8.42874 0.813045 7.91477 1.05336C7.57213 1.21175 7.30943 1.57223 7.46933 1.58861C7.66921 1.61592 8.12036 1.70877 8.36021 2.02009C8.66859 2.41879 8.65716 3.31998 8.65716 3.31998C8.65716 3.31998 8.82849 5.7996 8.24028 6.11092C7.83482 6.32393 7.28088 5.89245 6.08163 3.92077C5.47058 2.90489 5.00801 1.78523 5.00801 1.78523C5.00801 1.78523 4.92235 1.57769 4.76245 1.46845C4.56829 1.33191 4.29988 1.28822 4.29988 1.28822L1.43881 1.3046C1.43881 1.3046 1.01051 1.32099 0.856321 1.49576C0.713551 1.65961 0.844898 1.98185 0.844898 1.98185C0.844898 1.98185 3.0835 6.99026 5.61906 9.51358C7.94332 11.8293 10.5817 11.6764 10.5817 11.6764H11.7809C11.7809 11.6764 12.1407 11.6382 12.3234 11.4525C12.4948 11.2777 12.4891 10.95 12.4891 10.95C12.4891 10.95 12.4662 9.41527 13.2086 9.18587C13.9453 8.9674 14.8819 10.6715 15.8812 11.3269C16.6408 11.8239 17.2175 11.7147 17.2175 11.7147L19.8902 11.6764C19.8902 11.6764 21.2836 11.5945 20.6211 10.5404C20.5697 10.4585 20.2385 9.76482 18.6395 8.34477C16.9606 6.85918 17.1833 7.09949 19.2049 4.52702C20.4327 2.9595 20.9238 2.0037 20.7696 1.58861C20.6211 1.20083 19.7188 1.3046 19.7188 1.3046L16.7093 1.32099C16.7093 1.32099 16.4866 1.29368 16.321 1.38653C16.161 1.47938 16.0583 1.69784 16.0583 1.69784C16.0583 1.69784 15.5786 2.91035 14.9447 3.94261C13.6084 6.11638 13.0658 6.23654 12.8488 6.1C12.3406 5.78322 12.4662 4.83288 12.4662 4.16108C12.4662 2.04739 12.8031 1.17352 11.8152 0.944126C11.4897 0.867661 11.2498 0.818506 10.4161 0.813045Z" fill="white"/>
</svg>
