<svg width="18" height="16" viewBox="0 0 18 16" fill="none" xmlns="http://www.w3.org/2000/svg">
<path fill-rule="evenodd" clip-rule="evenodd" d="M1.22227 7.24342C5.99498 5.16403 9.17754 3.79316 10.7699 3.13083C15.3166 1.23973 16.2613 0.911232 16.8771 0.900384C17.0125 0.897998 17.3153 0.931563 17.5115 1.09073C17.6771 1.22512 17.7227 1.40667 17.7445 1.5341C17.7663 1.66152 17.7935 1.95179 17.7719 2.1786C17.5255 4.76737 16.4594 11.0496 15.917 13.9491C15.6875 15.176 15.2357 15.5873 14.7982 15.6276C13.8474 15.7151 13.1255 14.9993 12.2046 14.3956C10.7637 13.4511 9.94967 12.8631 8.551 11.9414C6.93459 10.8762 7.98244 10.2908 8.90363 9.33398C9.14471 9.08359 13.3337 5.27338 13.4148 4.92774C13.4249 4.88451 13.4343 4.72337 13.3386 4.63829C13.2429 4.5532 13.1016 4.5823 12.9996 4.60544C12.8551 4.63824 10.5532 6.15971 6.0939 9.16986C5.44051 9.61853 4.84869 9.83713 4.31844 9.82567C3.73388 9.81305 2.60943 9.49516 1.77351 9.22343C0.748227 8.89015 -0.0666502 8.71395 0.00430732 8.14794C0.0412664 7.85312 0.447253 7.55162 1.22227 7.24342Z" fill="white"/>
</svg>
