<svg width="18" height="19" viewBox="0 0 18 19" fill="none" xmlns="http://www.w3.org/2000/svg">
<path d="M4.11115 2.39456C4.04474 2.30913 3.96091 2.23881 3.86524 2.18827C3.76956 2.13773 3.66422 2.10812 3.55623 2.10142C3.44823 2.09472 3.34004 2.11107 3.23885 2.14939C3.13766 2.18771 3.04578 2.24713 2.96931 2.32369L1.8061 3.48804C1.26274 4.03252 1.0625 4.80313 1.29986 5.47924C2.28615 8.27717 3.88858 10.8177 5.98872 12.9131C8.08407 15.0132 10.6246 16.6156 13.4225 17.6019C14.0986 17.8393 14.8692 17.6391 15.4137 17.0957L16.5769 15.9325C16.6534 15.856 16.7129 15.7641 16.7512 15.6629C16.7895 15.5618 16.8059 15.4536 16.7992 15.3456C16.7924 15.2376 16.7628 15.1322 16.7123 15.0366C16.6618 14.9409 16.5914 14.857 16.506 14.7906L13.9107 12.7724C13.8194 12.7018 13.7132 12.6528 13.6002 12.629C13.4872 12.6052 13.3703 12.6073 13.2582 12.6352L10.7946 13.2505C10.4657 13.3322 10.1213 13.3275 9.79475 13.2371C9.46818 13.1466 9.1705 12.9734 8.9305 12.7342L6.16759 9.97013C5.92817 9.73024 5.75474 9.43261 5.66408 9.10604C5.57343 8.77947 5.56861 8.43503 5.6501 8.10605L6.26658 5.64236C6.29444 5.5303 6.29656 5.41338 6.27279 5.30038C6.24902 5.18738 6.19998 5.08122 6.12934 4.98988L4.11115 2.39456ZM2.11996 1.47546C2.31683 1.27853 2.55333 1.12574 2.81377 1.02723C3.07422 0.928716 3.35264 0.886737 3.63055 0.90408C3.90846 0.921423 4.1795 0.997691 4.42567 1.12782C4.67184 1.25795 4.88752 1.43896 5.05837 1.65883L7.07656 4.25302C7.44667 4.72888 7.57717 5.34874 7.43092 5.93373L6.81557 8.39742C6.78397 8.52503 6.7858 8.65864 6.82088 8.78534C6.85595 8.91205 6.92309 9.02757 7.01581 9.12077L9.77985 11.8848C9.87316 11.9777 9.98888 12.045 10.1158 12.0801C10.2427 12.1152 10.3765 12.1169 10.5043 12.0851L12.9669 11.4697C13.2556 11.398 13.5568 11.3926 13.8479 11.4539C14.139 11.5153 14.4124 11.6419 14.6476 11.8241L17.2417 13.8423C18.1743 14.5679 18.2598 15.946 17.4251 16.7796L16.2619 17.9428C15.4294 18.7753 14.1852 19.1409 13.0254 18.7325C10.0562 17.6892 7.36066 15.9896 5.13937 13.7602C2.91011 11.5392 1.21049 8.844 0.167025 5.87523C-0.240213 4.71651 0.125401 3.47116 0.957875 2.63868L2.11996 1.47546Z" fill="white"/>
</svg>
