<svg width="206" height="50" viewBox="0 0 206 50" fill="none" xmlns="http://www.w3.org/2000/svg">
<path d="M25.1028 50H23.4222C10.6479 49.5645 0.427246 39.069 0.427246 26.1848C0.427246 13.3006 11.0961 2.34851 24.2635 2.34851C37.431 2.34851 48.0999 13.0173 48.0999 26.1848C48.0999 39.3523 37.8792 49.5645 25.1028 49.9979V50ZM24.2635 49.1713C11.5759 49.1713 1.27703 38.8724 1.27703 26.1869C1.27703 13.5014 11.5759 3.1983 24.2635 3.1983C36.9512 3.1983 47.248 13.4845 47.248 26.1848C47.248 38.8851 36.9596 49.1692 24.2635 49.1692V49.1713Z" fill="#176BB2"/>
<path d="M46.6709 26.0432C46.6709 38.4475 36.6108 48.5055 24.198 48.5055C11.7852 48.5055 1.73578 38.4475 1.73578 26.0432C1.73578 13.6389 11.7937 3.58093 24.198 3.58093C36.6024 3.58093 46.6709 13.6389 46.6709 26.0432Z" fill="#FEFEFE"/>
<path fill-rule="evenodd" clip-rule="evenodd" d="M8.70738 22.3671V26.6118L16.8353 29.9835H16.8459C16.867 29.992 16.8459 29.9835 16.9008 30.0046V29.992C17.2496 30.1019 17.7168 30.0913 18.1438 29.9074C18.537 29.7319 18.8541 29.3937 18.8964 28.8695C18.9091 28.8483 18.909 28.7828 18.909 28.6518C18.8964 28.0197 18.7125 27.4743 18.4165 27.0367C18.3193 26.8972 18.2305 26.7746 18.1333 26.6774C18.036 26.5569 17.9261 26.4491 17.8183 26.3497C17.5012 26.0665 17.163 25.8572 16.8374 25.7282L8.7095 22.3671H8.70738ZM4.74594 35.579V16.9027L16.8332 21.7795C17.738 22.1283 18.7082 22.718 19.5918 23.5044C19.9195 23.7982 20.2345 24.1153 20.5304 24.4536C20.8369 24.8129 21.1181 25.185 21.3696 25.5655C22.2553 26.9078 22.7014 28.4784 22.712 30.1568C22.712 30.3006 22.7014 30.4951 22.6802 30.7255C22.5154 32.4166 21.7734 33.4207 20.672 33.9111C19.5918 34.3931 18.2707 34.3931 17.2137 34.0739L17.2031 34.0633C17.1144 34.0422 16.9854 33.9893 16.81 33.9238L8.70527 30.5627L8.71584 37.0862L4.74594 35.5811V35.579Z" fill="#176BB2"/>
<path fill-rule="evenodd" clip-rule="evenodd" d="M30.2077 21.2868L34.1903 19.7035L20.0948 13.867L21.4604 13.3217C22.3102 13.0151 23.4559 12.9496 24.4389 13.1145C24.6333 13.1483 24.8194 13.18 24.9842 13.2223C25.1259 13.2646 25.2886 13.3216 25.4535 13.3851C25.5296 13.4189 25.5169 13.4083 25.5402 13.4189L37.6275 18.34L41.5995 16.7567L29.5016 11.825L29.4699 11.8144C29.3389 11.7595 29.2733 11.7278 29.2311 11.7172C28.7829 11.5333 28.2819 11.3578 27.7239 11.2141C27.189 11.0725 26.6331 10.952 26.0771 10.8547C23.2635 10.4066 20.0335 10.5715 17.6532 11.4213L17.5666 11.453L10.7154 14.1905L10.6393 14.2116C10.5632 14.256 10.6076 14.2349 10.5632 14.256H10.54C10.1257 14.4399 9.77686 14.6492 9.45978 14.8796C9.15538 15.0973 8.91439 15.3277 8.72837 15.5772C7.77923 16.8201 8.46625 18.283 10.7704 19.3315L22.8027 24.2188L26.7832 22.6482L14.7509 17.7503C13.9877 17.4015 13.7594 16.8984 14.085 16.4735C14.1505 16.3868 14.2393 16.3107 14.3577 16.2219C14.4676 16.1458 14.5965 16.0697 14.7614 15.9936L14.7847 15.983C14.8058 15.9704 14.8291 15.9704 14.8291 15.9704L16.127 15.4461L30.2098 21.2826L30.2077 21.2868Z" fill="#176BB2"/>
<path d="M26.6206 41.3711L37.8137 36.8981L36.1775 33.2432L28.2018 36.4394L26.6206 41.3711Z" fill="#176BB2"/>
<path d="M29.3135 33.2222L35.1838 30.8757L32.2159 24.2212L29.3135 33.2222Z" fill="#176BB2"/>
<path d="M30.231 21.3081L22.8788 24.2211V42.8973L30.231 21.3081Z" fill="#176BB2"/>
<path d="M41.7518 35.4246V16.761L34.3637 19.6951L41.7518 35.4246Z" fill="#176BB2"/>
<path d="M182.971 5.68644V8.48947C182.861 8.50215 182.753 8.51061 182.643 8.51061H173.261C173.033 8.51061 172.792 8.48947 172.564 8.52118C171.788 8.65224 171.253 9.29698 171.253 10.1362V14.8713C171.276 15.7 171.866 16.368 172.695 16.4758C172.923 16.5075 173.164 16.518 173.392 16.518C175.367 16.5307 177.331 16.5307 179.305 16.518C179.5 16.518 179.686 16.4969 179.872 16.4969C180.1 16.4969 180.189 16.3764 180.199 16.1693C180.22 15.9748 180.22 15.7655 180.21 15.5583C180.21 15.1102 180.187 14.6642 180.176 14.216C180.165 13.9771 180.045 13.8778 179.804 13.8778H172.976C172.976 13.4296 172.963 13.0365 172.985 12.6454C172.985 12.5587 173.05 12.4615 173.126 12.3938C173.485 12.0028 173.879 11.6201 174.238 11.227C174.359 11.0959 174.49 11.0409 174.663 11.0409C176.737 11.0536 178.808 11.0642 180.882 11.0536C181.33 11.0409 181.666 11.1614 181.962 11.4912C182.203 11.7639 182.465 12.0154 182.738 12.2522C182.935 12.4065 182.99 12.5904 182.977 12.8314C182.977 13.5734 182.987 14.3133 182.987 15.0552C182.987 16.4314 182.998 17.8054 182.998 19.1794C182.998 19.2027 182.977 19.2344 182.966 19.2682C182.935 19.2767 182.901 19.3105 182.856 19.3105C180.436 19.3105 178.013 19.2999 175.58 19.2999C174.654 19.2999 173.716 19.3316 172.788 19.3211C171.456 19.3105 170.365 18.7545 169.492 17.761C168.708 16.8563 168.435 15.7761 168.425 14.6071C168.404 13.102 168.393 11.5969 168.425 10.0918C168.446 9.14266 168.729 8.26962 169.287 7.4748C169.985 6.48126 170.955 5.96759 172.101 5.72872C172.253 5.69701 172.418 5.68433 172.581 5.68433H182.966L182.971 5.68644Z" fill="#176BB2"/>
<path d="M124.422 5.68647V8.4895C124.228 8.4895 124.031 8.51064 123.822 8.51064H114.309C113.753 8.51064 113.273 8.68609 112.977 9.18709C112.836 9.41539 112.738 9.69019 112.694 9.95232C112.65 10.28 112.684 10.6182 112.684 11.0093C112.891 11.0198 113.077 11.041 113.263 11.041H123.158C123.483 11.041 123.803 11.0537 124.128 11.0537C124.312 11.041 124.435 11.1086 124.435 11.3264C124.424 12.155 124.435 12.9836 124.435 13.8588C124.206 13.8673 124.01 13.8799 123.813 13.8799H113.341C112.719 13.8799 112.73 13.8799 112.686 14.4909C112.652 15.0151 112.696 15.5161 113.079 15.9304C113.383 16.2686 113.745 16.4779 114.214 16.4779C117.3 16.4991 120.378 16.5096 123.464 16.5202H124.164C124.327 16.5202 124.447 16.5963 124.447 16.7823V19.2894C124.327 19.3021 124.261 19.3127 124.196 19.3127C121.12 19.3021 118.053 19.3127 114.988 19.3021C114.453 19.3021 113.907 19.2894 113.375 19.2154C112.436 19.0844 111.66 18.5812 111.028 17.8942C110.339 17.1523 110.003 16.2475 109.872 15.254C109.84 15.0341 109.872 14.8164 109.872 14.5987C109.861 13.1485 109.851 11.7069 109.861 10.2567C109.861 8.37958 110.8 6.85334 112.392 6.1008C113.013 5.7964 113.669 5.6759 114.377 5.6759C117.531 5.68647 120.682 5.68647 123.834 5.68647H124.424H124.422Z" fill="#176BB2"/>
<path d="M153.091 11.0874V13.8798H141.997C141.375 13.8798 141.363 13.8904 141.363 14.5119C141.352 14.8713 141.363 15.2095 141.504 15.5477C141.743 16.0931 142.16 16.3996 142.737 16.4651C143.062 16.5074 143.403 16.518 143.739 16.518C146.597 16.5286 149.465 16.518 152.325 16.518H152.543C152.907 16.525 153.089 16.7033 153.089 17.0528C153.089 17.6088 153.099 18.1647 153.099 18.7228C153.099 18.8961 153.078 19.061 153.067 19.2682C152.915 19.2787 152.784 19.302 152.653 19.302C149.326 19.302 145.999 19.3126 142.671 19.2893C141.929 19.2893 141.253 19.061 140.619 18.6467C139.714 18.0675 139.114 17.2705 138.765 16.2791C138.623 15.8754 138.547 15.4272 138.536 15.0023C138.515 13.3218 138.503 11.6412 138.536 9.9628C138.547 8.77267 139.05 7.76857 139.868 6.91879C140.534 6.21909 141.384 5.89355 142.291 5.70752C142.422 5.67581 142.553 5.68638 142.684 5.68638H153.069C153.135 6.62495 153.101 7.5297 153.091 8.47884C152.873 8.48941 152.687 8.51055 152.501 8.51055H143.043C141.986 8.51055 141.352 9.13415 141.352 10.1911V11.0071C141.58 11.0197 141.766 11.0409 141.953 11.0409H152.469C152.664 11.0536 152.873 11.062 153.091 11.0853V11.0874Z" fill="#176BB2"/>
<path d="M96.6348 19.3019H95.8167C95.2608 19.3019 94.7048 19.3125 94.1595 19.3019C93.8529 19.2892 93.8318 19.2575 93.8212 18.9742V5.70953C94.0178 5.69896 94.1806 5.68628 94.3349 5.68628H103.934C104.479 5.68628 104.993 5.7962 105.507 6.01393C107.012 6.65867 107.851 7.82554 108.179 9.39617C108.211 9.54837 108.2 9.71325 108.2 9.87602C108.211 12.8439 108.211 15.7992 108.211 18.7671C108.211 18.8411 108.2 18.9193 108.211 18.9848C108.211 19.2025 108.113 19.2998 107.883 19.2998H105.397C105.386 19.0165 105.376 18.765 105.376 18.5028V10.3094C105.376 10.0134 105.331 9.71959 105.245 9.4469C105.061 8.88038 104.621 8.57386 104.044 8.5189C103.606 8.47662 103.16 8.5189 102.723 8.50833C102.526 8.50833 102.429 8.59712 102.429 8.80428V9.19746C102.429 12.3831 102.429 15.5687 102.418 18.7544C102.418 18.9172 102.408 19.0926 102.397 19.2998H101.676C101.129 19.2998 100.575 19.3103 100.017 19.2998C99.6344 19.2998 99.6133 19.2681 99.6027 18.9066V9.17632C99.6027 8.98184 99.5816 8.77257 99.5816 8.58655C99.2772 8.48931 97.1147 8.48931 96.656 8.58655C96.6137 10.3453 96.6454 12.121 96.6348 13.9009V19.3019Z" fill="#176BB2"/>
<path d="M163.117 14.2605C164.176 15.9621 165.201 17.611 166.26 19.3021H163.434C163.261 19.3106 163.14 19.2556 163.043 19.0928C162.715 18.5813 162.366 18.0782 162.028 17.5666C161.559 16.8352 161.09 16.0932 160.61 15.3618C159.967 14.3577 159.312 13.3536 158.657 12.3622C158.538 12.1762 158.418 12.0028 158.263 11.7724C158.767 11.6857 159.223 11.7196 159.682 11.7069C160.413 11.7069 161.143 11.7196 161.863 11.6413C162.529 11.5652 163.337 10.8021 163.229 9.91851C163.142 9.15328 162.553 8.52123 161.766 8.51066H157.948C157.524 8.51066 157.49 8.53391 157.49 8.99051C157.479 12.1339 157.49 15.2751 157.49 18.4164V19.2788H154.666V5.73088C154.805 5.70763 154.938 5.68649 155.057 5.68649C157.338 5.68649 159.616 5.6421 161.897 5.69706C163.218 5.73088 164.328 6.3418 165.157 7.39875C165.671 8.06463 165.901 8.83831 165.998 9.66696C166.119 10.6499 165.88 11.5441 165.398 12.3854C164.96 13.1359 164.296 13.6495 163.533 14.0427C163.413 14.0956 163.305 14.1505 163.119 14.2605H163.117Z" fill="#176BB2"/>
<path d="M67.6385 19.302H64.9454L64.8799 5.70968C64.8799 5.70968 65.1631 5.68643 65.3047 5.68643C67.5201 5.68643 69.746 5.64415 71.9593 5.69911C73.5955 5.73082 74.8405 6.51508 75.6586 7.94618C76.1173 8.74101 76.3034 9.61616 76.1934 10.5209C76.0307 11.8844 75.3859 12.9984 74.2085 13.7509C73.9907 13.882 73.773 13.9792 73.5553 14.0997C73.3354 14.2202 73.3037 14.3175 73.4348 14.5267C73.7603 15.0594 74.0901 15.5837 74.4262 16.1185C74.8194 16.7632 75.2231 17.4059 75.6269 18.0379C75.8785 18.4417 76.1406 18.8433 76.4133 19.2598C76.3583 19.2915 76.3266 19.3253 76.2928 19.3253C75.4324 19.3253 74.57 19.3042 73.7075 19.3147C73.4242 19.3147 73.2488 19.2386 73.0966 18.9892C72.4307 17.9195 71.7542 16.8499 71.0672 15.7909C70.5641 15.0172 70.042 14.2625 69.5389 13.5015C69.2007 12.9878 68.8646 12.4742 68.5369 11.9626C68.5052 11.9182 68.4925 11.8632 68.4502 11.7554C68.6468 11.7449 68.8096 11.711 68.9745 11.711C69.8243 11.7237 70.6656 11.7343 71.5154 11.7343C72.3652 11.7343 72.9444 11.3305 73.2826 10.5991C73.401 10.3603 73.4137 10.0199 73.3481 9.74934C73.1938 9.08346 72.7816 8.53807 71.9086 8.52751C70.6212 8.50637 69.3444 8.51694 68.057 8.51694C67.6744 8.5275 67.6427 8.55076 67.6427 8.96508V14.9664C67.6321 16.22 67.6427 17.4756 67.6427 18.7313V19.3105L67.6385 19.302Z" fill="#176BB2"/>
<path d="M129.079 8.58877V13.4211C129.079 15.1778 129.079 16.9239 129.068 18.6805C129.068 18.7904 129.079 18.9088 129.068 19.0293C129.047 19.1815 128.969 19.302 128.785 19.302H126.265V5.7181C126.407 5.70964 126.538 5.68639 126.656 5.68639C128.806 5.68639 130.954 5.65468 133.093 5.69907C134.326 5.7181 135.319 6.29942 136.106 7.23587C136.63 7.85736 136.945 8.56763 137.076 9.36457C137.108 9.55059 137.129 9.7345 137.129 9.92052C137.141 12.8884 137.141 15.8542 137.141 18.8116C137.141 18.8877 137.129 18.9638 137.141 19.0293C137.141 19.2153 137.042 19.302 136.869 19.302C136.106 19.302 135.353 19.2893 134.588 19.302C134.404 19.302 134.326 19.2048 134.315 19.0293C134.315 18.8433 134.305 18.6467 134.305 18.4607V10.1805C134.305 9.67954 134.163 9.24407 133.793 8.88471C133.51 8.58877 133.138 8.47039 132.766 8.45771C131.578 8.45771 130.377 8.50421 129.189 8.53592C129.155 8.53592 129.134 8.55706 129.079 8.58877Z" fill="#176BB2"/>
<path d="M91.4432 11.1086C91.3016 10.3222 90.9845 9.56968 90.5596 8.88266C89.9592 7.91027 89.175 7.13658 88.1815 6.55949C87.004 5.85979 85.7272 5.56595 84.3743 5.69702C82.6726 5.85979 81.2331 6.60176 80.1085 7.86799C78.7323 9.41536 78.1658 11.2819 78.4152 13.3451C78.5907 14.8608 79.2016 16.2242 80.3135 17.3277C81.5903 18.5918 83.0954 19.3126 84.9176 19.2894C85.2114 19.2894 85.5074 19.3232 85.7906 19.2788C87.4818 19.004 88.8896 18.2219 89.9909 16.8986C90.2192 16.6153 90.4264 16.3109 90.6124 16.0044C91.0268 15.3279 91.2677 14.5881 91.4199 13.8017C91.6039 12.8969 91.5827 11.9901 91.4411 11.1086H91.4432ZM87.5917 15.3533C86.818 16.1587 85.8688 16.5434 84.7548 16.4779C83.3153 16.3891 82.3112 15.6387 81.6685 14.3936C80.9139 12.9413 81.0132 11.4912 81.9074 10.1721C82.605 9.1469 83.5858 8.47045 84.9726 8.51484C86.9913 8.43874 88.6275 10.2694 88.7268 12.212C88.7924 13.4127 88.4436 14.4824 87.5917 15.3554V15.3533Z" fill="#176BB2"/>
<path d="M198.091 11.0219C197.918 10.1595 197.546 9.36463 197.077 8.62054C196.618 7.90182 196.009 7.30147 195.309 6.8195C194.405 6.21916 193.401 5.8154 192.31 5.69491C191.099 5.57653 189.942 5.77101 188.864 6.30583C187.477 6.99284 186.399 8.03922 185.734 9.47033C184.698 11.7174 184.839 13.9328 186.017 16.0699C186.53 16.9873 187.272 17.742 188.188 18.3085C189.224 18.9406 190.314 19.3021 191.612 19.3232C192.386 19.3359 193.204 19.1816 194.001 18.8645C195.309 18.3529 196.345 17.4905 197.1 16.3342C197.69 15.4273 198.081 14.4253 198.191 13.3219C198.267 12.5482 198.235 11.7829 198.093 11.0198L198.091 11.0219ZM194.318 15.3195C193.675 15.9959 192.878 16.4208 191.908 16.4758C190.522 16.5413 189.431 15.9959 188.636 14.9052C188.167 14.2731 187.883 13.5628 187.894 12.7553C187.904 12.5482 187.894 12.341 187.904 12.1444C187.915 11.3475 188.222 10.671 188.678 10.0495C189.071 9.50415 189.551 9.08983 190.173 8.81713C191.198 8.3711 192.202 8.37956 193.206 8.86153C194.145 9.30967 194.766 10.0601 195.159 11.0092C195.343 11.4785 195.443 11.9816 195.398 12.4721C195.443 13.5967 195.06 14.5458 194.318 15.3195Z" fill="#176BB2"/>
<path d="M60.3519 6.53828C59.6649 6.02461 59.0751 5.66736 58.0076 5.66736H50.7844V19.2809H53.5663V14.5436C53.5663 14.5436 56.3588 14.5563 57.4939 14.5119C58.4431 14.4908 59.2823 14.273 60.056 13.7699C61.3539 12.9413 62.0747 11.7617 62.1086 10.2122C62.1297 8.71983 61.5843 7.4536 60.3519 6.53617V6.53828ZM59.0413 10.9119C58.6608 11.415 58.1471 11.7068 57.5151 11.73C56.3693 11.7533 53.784 11.7533 53.5663 11.73C53.5557 10.7936 53.5663 8.50209 53.5663 8.50209C53.5663 8.50209 56.3376 8.51266 57.4728 8.50209C58.071 8.50209 58.5953 8.6099 58.9885 9.10244C59.369 9.57173 59.4028 10.4321 59.0413 10.9141V10.9119Z" fill="#176BB2"/>
<path d="M61.2355 33.2325H58.5846L57.887 31.2137H54.1983L53.5007 33.2325H50.9154L54.602 23.2612H57.5594L61.2355 33.2325ZM57.274 29.381L56.0416 25.8127L54.8198 29.381H57.274Z" fill="#2B2A29"/>
<path d="M75.5253 30.1779C75.5253 30.6578 75.4281 31.0953 75.2315 31.4653C75.0349 31.8458 74.7728 32.1628 74.4346 32.4144C74.0414 32.7103 73.6059 32.9175 73.1366 33.0486C72.6674 33.1669 72.067 33.2325 71.3483 33.2325H66.9958V23.2612H70.8684C71.6654 23.2612 72.2551 23.2845 72.6251 23.3373C72.995 23.3923 73.3671 23.5107 73.737 23.6967C74.1175 23.8827 74.4029 24.1448 74.5868 24.4704C74.7728 24.7875 74.8595 25.1595 74.8595 25.5717C74.8595 26.0537 74.7284 26.4765 74.479 26.8485C74.2274 27.2184 73.8681 27.5017 73.3988 27.7089V27.7617C74.0541 27.8949 74.5656 28.1549 74.9483 28.5713C75.3309 28.9751 75.5275 29.5099 75.5275 30.1737L75.5253 30.1779ZM72.2319 26.0769C72.2319 25.9121 72.1875 25.7493 72.1008 25.5865C72.0247 25.4237 71.8725 25.2927 71.6633 25.2145C71.4793 25.1489 71.2489 25.1067 70.9657 25.0961C70.693 25.0961 70.2998 25.0834 69.7861 25.0834H69.5472V27.1994H69.951C70.3548 27.1994 70.7035 27.1889 70.9868 27.1783C71.2701 27.1677 71.5005 27.1233 71.6633 27.0472C71.9021 26.9373 72.0438 26.8062 72.122 26.6435C72.1981 26.4807 72.2319 26.2947 72.2319 26.0769ZM72.8534 30.1356C72.8534 29.8185 72.7878 29.5776 72.6695 29.4042C72.549 29.2288 72.3418 29.0977 72.0459 29.0216C71.8387 28.9561 71.566 28.9328 71.2172 28.9222C70.8684 28.9222 70.4964 28.9117 70.1159 28.9117H69.5494V31.3976H71.2933C71.5998 31.387 71.8937 31.3321 72.1537 31.2243C72.4158 31.1038 72.6018 30.9622 72.6991 30.7761C72.7963 30.5922 72.8513 30.3724 72.8513 30.1335L72.8534 30.1356Z" fill="#2B2A29"/>
<path d="M89.5553 25.1933H86.4458V33.2325H83.8711V25.1933H80.7636V23.2612H89.5553V25.1933Z" fill="#2B2A29"/>
<path d="M105.122 28.2458C105.122 29.8376 104.663 31.1038 103.757 32.0318C102.841 32.9704 101.586 33.4397 99.9833 33.4397C98.3809 33.4397 97.1126 32.9704 96.2079 32.0318C95.3031 31.1059 94.8444 29.8376 94.8444 28.2458C94.8444 26.6541 95.3031 25.3752 96.2079 24.4493C97.1126 23.5128 98.3788 23.052 99.9833 23.052C101.588 23.052 102.831 23.5107 103.748 24.4493C104.663 25.3752 105.122 26.6435 105.122 28.2458ZM101.719 30.7783C101.958 30.4718 102.144 30.1124 102.275 29.6981C102.393 29.2838 102.448 28.8039 102.448 28.2458C102.448 27.6476 102.383 27.1339 102.241 26.7196C102.099 26.2947 101.926 25.9565 101.696 25.6944C101.467 25.4322 101.205 25.2357 100.909 25.1152C100.615 24.9947 100.309 24.9291 99.9833 24.9291C99.6577 24.9291 99.3491 24.9947 99.068 25.1046C98.772 25.2251 98.512 25.409 98.271 25.6838C98.0533 25.9332 97.8673 26.2842 97.7256 26.7196C97.584 27.1572 97.5185 27.6688 97.5185 28.2458C97.5185 28.8229 97.584 29.3472 97.713 29.7636C97.8546 30.1779 98.03 30.5267 98.2583 30.7867C98.4782 31.0489 98.7382 31.2455 99.0447 31.366C99.3406 31.4991 99.6556 31.552 99.9833 31.552C100.311 31.552 100.628 31.4991 100.932 31.366C101.226 31.2349 101.488 31.0404 101.717 30.7783H101.719Z" fill="#2B2A29"/>
<path d="M121.858 33.2325H119.306V26.5568L117.45 30.8861H115.673L113.829 26.5568V33.2325H111.407V23.2612H114.396L116.632 28.2585L118.869 23.2612H121.858V33.2325Z" fill="#2B2A29"/>
<path d="M137.938 33.2325H135.277L134.59 31.2137H130.901L130.204 33.2325H127.608L131.296 23.2612H134.252L137.94 33.2325H137.938ZM133.968 29.381L132.747 25.8127L131.514 29.381H133.97H133.968Z" fill="#2B2A29"/>
<path d="M151.486 25.1933H148.379V33.2325H145.804V25.1933H142.694V23.2612H151.486V25.1933Z" fill="#2B2A29"/>
<path d="M166.455 33.2325H163.946V26.6012L159.813 33.2325H157.357V23.2612H159.866V29.2605L163.717 23.2612H166.455V33.2325Z" fill="#2B2A29"/>
<path d="M182.58 33.2325H179.428L176.481 29.2076H175.849V33.2325H173.274V23.2613H175.849V27.3178C176.056 27.3178 176.232 27.2967 176.371 27.265C176.502 27.2333 176.633 27.1677 176.754 27.0789C176.874 26.9923 177.005 26.8612 177.136 26.6858C177.278 26.5124 177.42 26.2947 177.574 26.0326C177.671 25.8698 177.768 25.6838 177.889 25.4534C178.007 25.2356 178.107 25.0602 178.195 24.908C178.534 24.3076 178.895 23.8827 179.276 23.6206C179.658 23.3712 180.225 23.2401 180.998 23.2401C181.227 23.2401 181.423 23.2401 181.609 23.2528C181.783 23.2634 181.916 23.2634 182.003 23.2634V25.4238H181.261C180.889 25.4238 180.605 25.521 180.4 25.707C180.204 25.8931 179.975 26.2207 179.734 26.6984C179.483 27.1677 179.286 27.4954 179.134 27.6814C178.969 27.8759 178.817 28.007 178.675 28.0831L182.582 33.2325H182.58Z" fill="#2B2A29"/>
<path d="M197.383 33.2325H194.722L194.035 31.2137H190.348L189.648 33.2325H187.053L190.739 23.2612H193.697L197.383 33.2325ZM193.411 29.381L192.189 25.8127L190.957 29.381H193.411Z" fill="#2B2A29"/>
<path fill-rule="evenodd" clip-rule="evenodd" d="M200.928 0.0676446H200.918L200.831 0.0908976C200.797 0.0993532 200.765 0.0993533 200.721 0.109923L200.558 0.154315L200.199 0.274807C200.188 0.285376 199.884 0.427007 199.84 0.448146C199.772 0.481969 199.719 0.513677 199.654 0.545385C199.599 0.579208 199.544 0.621486 199.491 0.644739C199.48 0.665878 199.457 0.665878 199.446 0.676447C199.439 0.684903 199.432 0.692654 199.425 0.6997C199.402 0.708156 199.415 0.6997 199.391 0.708156C199.381 0.741978 199.339 0.754661 199.305 0.773686C199.305 0.78637 199.163 0.894178 199.142 0.917431C199.11 0.928001 199.076 0.959709 199.055 0.982962C199.021 1.01467 199 1.03581 198.979 1.04849C198.969 1.07175 198.979 1.05906 198.945 1.07175C198.945 1.09288 198.945 1.08232 198.935 1.09288C198.914 1.12459 198.827 1.21126 198.793 1.23452C198.783 1.25565 198.793 1.24509 198.772 1.25565C198.761 1.27679 198.728 1.31062 198.707 1.33176L198.489 1.59388C198.478 1.62559 198.457 1.6573 198.434 1.68055L198.423 1.70169C198.416 1.70873 198.409 1.71578 198.402 1.72283C198.392 1.7334 198.381 1.75665 198.368 1.76722C198.358 1.79893 198.337 1.83063 198.315 1.86657C198.308 1.87925 198.298 1.89335 198.284 1.90885C198.27 1.92435 198.258 1.93844 198.25 1.95113C198.25 1.97438 198.151 2.15829 198.119 2.21325C198.108 2.24707 198.009 2.4648 198 2.47749L197.88 2.83685C197.846 2.99116 197.804 3.12011 197.783 3.285C197.77 3.3611 197.759 3.43931 197.749 3.5133C197.738 3.57883 197.738 3.70989 197.728 3.75428V4.10307C197.738 4.13478 197.749 4.29755 197.749 4.35463C197.759 4.4413 197.77 4.5174 197.783 4.60407C197.793 4.65903 197.814 4.72456 197.814 4.77952C197.838 4.80066 197.859 4.92115 197.869 4.96343C197.88 5.00571 197.967 5.29108 197.967 5.31222C198 5.33336 198.043 5.46442 198.053 5.5067C198.077 5.51727 198.174 5.74557 198.195 5.78996C198.337 6.02883 198.381 6.10705 198.544 6.31421C198.565 6.3586 198.609 6.40088 198.641 6.44527C198.673 6.47698 198.717 6.53194 198.738 6.56365L198.783 6.61861C198.804 6.62918 198.793 6.61861 198.814 6.62918L198.848 6.67357C198.869 6.69471 198.893 6.71796 198.903 6.7391L198.956 6.7835L198.969 6.79195L199.087 6.90187L199.098 6.91244C199.119 6.92301 199.131 6.92301 199.131 6.94627C199.174 6.9674 199.294 7.06464 199.349 7.10903C199.468 7.18513 199.656 7.3162 199.797 7.38173C199.829 7.40287 200.004 7.48954 200.026 7.50222C200.081 7.52124 200.155 7.55507 200.22 7.57621L200.406 7.65231C200.427 7.65231 200.527 7.68402 200.548 7.6967L200.711 7.73898H200.734C200.744 7.74955 200.734 7.74955 200.744 7.74955L201.083 7.81508L201.235 7.82776H201.258L201.29 7.83833C201.321 7.82776 201.408 7.83833 201.442 7.84679C201.626 7.84679 201.791 7.84679 201.977 7.83833C202.021 7.83833 202.063 7.82776 202.097 7.83833C202.118 7.81508 202.294 7.79394 202.326 7.79394L202.685 7.71784L202.869 7.66499C202.879 7.65231 203.186 7.5445 203.196 7.5445L203.251 7.51068C203.264 7.50222 203.285 7.50222 203.296 7.48954C203.338 7.4684 203.361 7.45572 203.404 7.44726C203.437 7.41344 203.535 7.36905 203.577 7.34791C203.59 7.33734 203.774 7.22953 203.807 7.20628C203.894 7.14074 204.069 7.02025 204.146 6.95472L204.45 6.68203C204.463 6.65032 204.484 6.63764 204.516 6.60593C204.526 6.58479 204.539 6.56154 204.581 6.55308C204.581 6.51926 204.68 6.42202 204.712 6.39031C204.754 6.32478 204.799 6.26982 204.843 6.21486L205.071 5.85549C205.082 5.8111 205.103 5.78996 205.114 5.75826C205.126 5.74557 205.137 5.735 205.137 5.72655C205.158 5.69272 205.148 5.70329 205.169 5.68004L205.268 5.47288C205.268 5.46231 205.376 5.15791 205.386 5.14734C205.386 5.10295 205.418 4.98245 205.441 4.96132C205.441 4.90635 205.507 4.68862 205.518 4.61252C205.518 4.56813 205.539 4.41804 205.549 4.39479C205.539 4.36308 205.56 4.29755 205.56 4.26373C205.572 4.06714 205.572 3.90437 205.572 3.71835C205.56 3.66338 205.549 3.60842 205.56 3.56614C205.549 3.54501 205.539 3.38224 205.539 3.35898L205.473 3.02076C205.473 3.00807 205.473 3.02076 205.463 3.00808V2.98694L205.452 2.96368C205.355 2.55993 205.148 2.10121 204.917 1.7651L204.666 1.41631C204.652 1.40222 204.641 1.38813 204.634 1.37403L204.568 1.3085C204.558 1.29793 204.558 1.28525 204.547 1.27468L204.513 1.24297C204.503 1.2324 204.513 1.24297 204.492 1.2324L204.461 1.17744C204.427 1.16687 204.351 1.09077 204.34 1.05695L204.306 1.03581C204.306 1.03581 204.298 1.03581 204.298 1.02524C204.285 1.01467 204.285 1.02524 204.285 1.01467C204.243 0.991418 204.243 0.982962 204.209 0.94914C204.195 0.940684 204.18 0.930115 204.165 0.917431L204.133 0.883609C204.122 0.883609 204.133 0.883609 204.112 0.87304C204.112 0.865993 204.108 0.86247 204.101 0.86247L203.708 0.589777C203.642 0.545386 203.575 0.513677 203.501 0.471399L203.304 0.37416C203.283 0.361476 203.304 0.37416 203.283 0.350907C203.262 0.350907 203.239 0.350907 203.228 0.327654C203.186 0.317085 203.055 0.274807 203.032 0.251554C203 0.23887 202.738 0.152201 202.683 0.141631C202.638 0.131062 202.518 0.107809 202.486 0.0887837C202.442 0.0887837 202.389 0.0761006 202.334 0.0655311C202.247 0.0549616 202.171 0.0338225 202.072 0.023253C202.019 0.023253 201.854 0.0105695 201.82 0H201.471C201.429 0.0105695 201.254 0.023253 201.188 0.023253C201.135 0.0338225 200.971 0.0655311 200.928 0.0655311V0.0676446ZM198.343 3.54923L198.377 3.36321C198.387 3.28711 198.43 3.04613 198.463 3.01442C198.463 2.98271 198.495 2.8749 198.506 2.85165C198.518 2.80937 198.561 2.69945 198.584 2.66774L198.592 2.62335L198.66 2.48171C198.681 2.42675 198.823 2.15406 198.857 2.14349C198.867 2.10967 198.933 2.00186 198.967 1.98072L198.977 1.95747C198.988 1.93844 199.032 1.88348 199.053 1.86023L199.305 1.58754C199.36 1.52201 199.415 1.47761 199.48 1.41208C199.501 1.38883 199.544 1.35712 199.577 1.33598C199.609 1.31484 199.643 1.28102 199.675 1.25988L199.698 1.24931C199.719 1.21549 199.73 1.21549 199.774 1.19435C199.808 1.17321 199.818 1.15207 199.863 1.13939C199.873 1.10557 200.07 1.00622 200.125 0.974507C200.222 0.932229 200.311 0.887837 200.419 0.843445C200.603 0.767345 200.878 0.680675 201.095 0.659536L201.269 0.638397C201.324 0.625714 201.389 0.615144 201.455 0.625714C201.488 0.594005 201.738 0.615144 201.803 0.615144L201.966 0.625714C202.021 0.625714 202.129 0.625714 202.173 0.659536C202.216 0.648967 202.467 0.703928 202.501 0.725067C202.556 0.735636 202.676 0.758889 202.708 0.790597C202.742 0.790597 202.839 0.822306 202.85 0.832875C203.046 0.887837 203.34 1.06118 203.494 1.15842C203.571 1.21338 203.974 1.51989 204.019 1.60656C204.04 1.61925 204.095 1.67209 204.095 1.69535C204.137 1.70591 204.16 1.75031 204.182 1.77145C204.213 1.80315 204.334 1.97861 204.376 2.03357C204.399 2.06528 204.42 2.08642 204.431 2.12024C204.452 2.13292 204.452 2.14349 204.465 2.1752C204.472 2.1752 204.479 2.17872 204.486 2.18577L204.507 2.24073C204.528 2.26398 204.541 2.28512 204.551 2.30626C204.594 2.37179 204.704 2.60009 204.725 2.67619C204.748 2.69945 204.78 2.80726 204.78 2.83896C204.811 2.87279 204.877 3.1328 204.89 3.19833C204.911 3.24272 204.921 3.30825 204.921 3.35053C204.943 3.38435 204.943 3.49427 204.953 3.54712L204.964 3.73103C204.974 3.90648 204.974 4.07982 204.953 4.25527L204.932 4.42861C204.932 4.48357 204.921 4.60195 204.89 4.64635C204.89 4.67805 204.877 4.73302 204.866 4.76684L204.835 4.89579C204.828 4.90283 204.824 4.90988 204.824 4.91692C204.816 4.92538 204.811 4.93313 204.811 4.94018V4.96132C204.79 5.01416 204.769 5.11352 204.735 5.14734C204.735 5.16848 204.693 5.28686 204.67 5.31011C204.615 5.49613 204.289 5.97599 204.135 6.12607C204.08 6.1916 204.038 6.24657 203.972 6.30153C203.917 6.35649 203.492 6.72642 203.416 6.7391C203.385 6.77293 203.254 6.84691 203.209 6.85748C203.196 6.88073 202.915 7.00968 202.871 7.00968C202.839 7.04351 202.742 7.07521 202.687 7.0879H202.664C202.632 7.10904 202.545 7.13017 202.512 7.14074C202.469 7.15343 202.414 7.17457 202.37 7.164C202.328 7.1957 202.207 7.20628 202.142 7.20628L201.979 7.22953C201.806 7.25067 201.63 7.25067 201.444 7.2401L201.281 7.22953C201.237 7.22953 201.205 7.21896 201.171 7.21896L201.106 7.20628C201.085 7.19571 201.095 7.19571 201.085 7.19571C201.042 7.20627 200.964 7.18514 200.922 7.164C200.856 7.15343 200.596 7.0879 200.563 7.05619C200.531 7.05619 200.421 7.02237 200.4 7.00123C200.345 6.98854 200.292 6.95472 200.237 6.9357L200.203 6.91244C200.116 6.90187 199.744 6.63975 199.668 6.59536C199.647 6.57211 199.647 6.58479 199.624 6.55308C199.592 6.5404 199.506 6.4643 199.506 6.45373C199.461 6.43259 199.44 6.39877 199.406 6.37763C199.385 6.35649 199.343 6.32478 199.33 6.29096C199.298 6.28039 199.298 6.26982 199.277 6.24657C199.263 6.23247 199.248 6.21415 199.233 6.1916C199.201 6.18103 199.115 6.07323 199.091 6.0394C198.774 5.67793 198.48 5.06701 198.404 4.59773C198.383 4.55333 198.37 4.48992 198.383 4.44553C198.349 4.40113 198.349 4.29332 198.349 4.23836C198.339 4.19609 198.339 4.15169 198.339 4.1073C198.307 4.05234 198.339 3.62745 198.349 3.54078L198.343 3.54923Z" fill="#176BB2"/>
<path fill-rule="evenodd" clip-rule="evenodd" d="M200.569 5.74131H200.918L201.049 5.75188V4.40955H201.822C201.854 4.45394 201.964 4.61671 201.985 4.66111C201.996 4.68436 202.008 4.7055 202.019 4.71607C202.029 4.72664 202.04 4.73932 202.04 4.74989C202.051 4.77103 202.051 4.74989 202.051 4.77103C202.074 4.79217 202.15 4.92323 202.171 4.95494C202.203 5.0099 202.268 5.09868 202.292 5.15364C202.302 5.1621 202.302 5.15364 202.313 5.17478L202.389 5.29527C202.475 5.42634 202.607 5.64407 202.672 5.74342H203.272C203.262 5.70114 203.228 5.67789 203.217 5.63561C203.186 5.61236 203.141 5.52569 203.131 5.49398C203.108 5.48341 203.097 5.46016 203.076 5.42845C203.076 5.41788 203.065 5.4052 203.065 5.4052C203.044 5.37349 203.044 5.38406 203.044 5.36292C203 5.3291 202.913 5.16633 202.881 5.12405C202.837 5.03738 202.771 4.9486 202.727 4.87249C202.674 4.78371 202.619 4.69704 202.564 4.62094C202.533 4.56598 202.423 4.41378 202.412 4.36939C202.674 4.31443 202.968 4.19393 203.133 3.99734C203.351 3.7479 203.296 3.5957 203.351 3.53863L203.361 3.39699V3.20252L203.351 3.06089C203.296 2.97422 203.351 2.86641 203.209 2.65713C203.154 2.57046 203.034 2.4394 202.947 2.37387C202.85 2.31045 202.708 2.25549 202.577 2.20053C202.446 2.15402 202.283 2.135 202.129 2.12231H200.438V5.74342H200.569V5.74131ZM202.748 3.37374C202.716 3.52806 202.661 3.6253 202.554 3.71196C202.478 3.7775 202.444 3.79018 202.336 3.82189C202.302 3.83246 202.205 3.86628 202.16 3.86628C202.129 3.89799 202.021 3.91067 201.977 3.89799H201.955C201.911 3.91067 201.061 3.91067 201.051 3.89799V2.63176C201.051 2.58949 201.04 2.62119 201.061 2.59794H201.955C201.977 2.59794 201.987 2.59794 202.01 2.61062C202.042 2.59794 202.108 2.61062 202.141 2.63176C202.273 2.63176 202.338 2.64445 202.425 2.69941C202.501 2.74169 202.566 2.78608 202.632 2.84104C202.75 2.96153 202.784 3.16869 202.75 3.37586L202.748 3.37374Z" fill="#176BB2"/>
<path fill-rule="evenodd" clip-rule="evenodd" d="M50.7612 36.7014H198.102C198.233 36.7014 198.33 36.7987 198.33 36.9297C198.33 37.0502 198.233 37.1474 198.102 37.1474H50.7612C50.6428 37.1474 50.5435 37.0502 50.5435 36.9297C50.5435 36.7987 50.6428 36.7014 50.7612 36.7014Z" fill="#9D9E9E"/>
<path d="M198.104 37.5279H50.7612C50.4314 37.5279 50.1629 37.2595 50.1629 36.9297C50.1629 36.5999 50.4314 36.323 50.7612 36.323H198.102C198.442 36.323 198.711 36.5893 198.711 36.9297C198.711 37.27 198.436 37.5279 198.102 37.5279H198.104Z" fill="#1B69B1"/>
<path d="M195.06 44.098C194.667 44.0324 194.362 43.8908 194.121 43.6604C193.893 43.4427 193.773 43.1362 193.773 42.7557C193.773 42.2103 193.978 41.7959 194.384 41.5127C194.798 41.2294 195.398 41.0878 196.161 41.0878H198.091V46.8059H197.034V44.4912H196.478C195.986 44.4912 195.574 44.6772 195.257 45.0471C194.94 45.417 194.745 45.9963 194.656 46.8038H193.489C193.511 46.4655 193.576 46.1485 193.663 45.8546C193.749 45.5714 193.87 45.3198 194.001 45.0894C194.143 44.8611 194.297 44.6645 194.481 44.5017C194.667 44.339 194.851 44.2058 195.06 44.1085V44.098ZM197.034 41.9925H196.259C195.8 41.9925 195.451 42.0581 195.233 42.187C195.016 42.3181 194.906 42.5252 194.906 42.7979C194.906 43.0262 195.014 43.2123 195.221 43.356C195.438 43.5082 195.779 43.5737 196.257 43.5737H197.032V41.9925H197.034ZM188.71 45.3198L191.46 41.0878H192.682V46.8059H191.625V42.5823H191.602L188.852 46.8059H187.63V41.0878H188.676V45.3198H188.708H188.71ZM181.607 41.0857H182.664V43.3771H185.249V41.0857H186.306V46.8038H185.249V44.284H182.664V46.8038H181.607V41.0857ZM177.792 45.8863H180.605V46.8038H176.754V41.0857H180.485V41.9925H177.79V43.4215H180.32V44.2925H177.79V45.8863H177.792ZM171.56 45.8863V41.0857H172.619V45.8863H174.386V41.0857H175.433V46.8038H168.679V41.0857H169.736V45.8863H171.558H171.56ZM164.861 45.8863H167.687V46.8038H163.838V41.0857H167.556V41.9925H164.861V43.4215H167.404V44.2925H164.861V45.8863ZM159.931 43.5843H160.673C161.001 43.5843 161.274 43.5188 161.491 43.4004C161.709 43.2693 161.817 43.0622 161.817 42.7557C161.817 42.6035 161.796 42.4724 161.73 42.3752C161.675 42.2652 161.599 42.1891 161.491 42.1236C161.392 42.0686 161.274 42.0264 161.143 41.9946C161.001 41.9714 160.849 41.9608 160.684 41.9608H159.931V43.5864V43.5843ZM158.862 41.0857H160.76C161.077 41.0857 161.35 41.1195 161.61 41.1723C161.872 41.2379 162.09 41.3351 162.286 41.4662C162.472 41.5994 162.614 41.7727 162.724 41.9799C162.832 42.1976 162.874 42.4491 162.874 42.743C162.874 43.0368 162.821 43.3095 162.711 43.5167C162.603 43.7344 162.449 43.9098 162.252 44.0515C162.068 44.1825 161.838 44.2798 161.576 44.3453C161.314 44.4108 161.031 44.4447 160.737 44.4447H159.929V46.8017H158.86V41.0836L158.862 41.0857ZM146.404 45.3198L149.165 41.0878H150.387V46.8059H149.33V42.5823H149.309L146.559 46.8059H145.326V41.0878H146.383V45.3198H146.407H146.404ZM142.87 46.8038H141.813V41.9925H140.078V41.0857H144.606V41.9925H142.872V46.8038H142.87ZM139.923 45.9645C139.695 46.2457 139.401 46.4867 139.029 46.6727C138.659 46.8587 138.224 46.956 137.731 46.956C137.294 46.956 136.892 46.8778 136.52 46.7277C136.137 46.5839 135.82 46.3789 135.55 46.1041C135.288 45.8419 135.07 45.5249 134.915 45.1549C134.763 44.785 134.687 44.3812 134.687 43.9331C134.687 43.4849 134.763 43.0812 134.926 42.7113C135.078 42.3392 135.296 42.0221 135.571 41.7621C135.843 41.5 136.171 41.2928 136.541 41.1512C136.911 40.999 137.304 40.9335 137.742 40.9335C137.949 40.9335 138.146 40.9525 138.353 40.9863C138.549 41.018 138.746 41.0836 138.932 41.1618C139.105 41.2252 139.281 41.3245 139.435 41.4345C139.598 41.5444 139.729 41.6649 139.839 41.8044L139.086 42.5041C138.966 42.3181 138.78 42.1764 138.541 42.056C138.312 41.9481 138.048 41.8911 137.778 41.8911C137.482 41.8911 137.222 41.9481 136.981 42.0454C136.742 42.1532 136.533 42.2948 136.37 42.4808C136.196 42.6669 136.065 42.8846 135.977 43.1362C135.879 43.375 135.837 43.6498 135.837 43.9331C135.837 44.2164 135.879 44.489 135.977 44.7385C136.063 44.99 136.194 45.2078 136.37 45.3938C136.535 45.5777 136.742 45.7214 136.981 45.8187C137.209 45.9286 137.471 45.9815 137.765 45.9815C138.059 45.9815 138.323 45.9286 138.562 45.8081C138.813 45.6876 139.01 45.5143 139.162 45.2944L139.925 45.9603L139.923 45.9645ZM132.812 43.9246C132.812 43.6519 132.768 43.3771 132.671 43.1277C132.584 42.8761 132.453 42.669 132.288 42.483C132.112 42.2969 131.918 42.1553 131.677 42.0475C131.436 41.9376 131.174 41.8826 130.88 41.8826C130.586 41.8826 130.322 41.9376 130.094 42.0475C129.855 42.1553 129.646 42.2969 129.483 42.483C129.32 42.669 129.189 42.8761 129.102 43.1277C129.003 43.3771 128.961 43.6519 128.961 43.9246C128.961 44.2185 129.003 44.4912 129.102 44.7406C129.189 44.9922 129.32 45.2099 129.483 45.3959C129.646 45.5798 129.853 45.7236 130.094 45.8208C130.322 45.9307 130.586 45.9836 130.88 45.9836C131.174 45.9836 131.436 45.9307 131.677 45.8208C131.905 45.7236 132.112 45.5819 132.275 45.3959C132.451 45.2099 132.582 44.9922 132.668 44.7406C132.766 44.4912 132.81 44.2185 132.81 43.9246H132.812ZM133.935 43.9246C133.935 44.3728 133.859 44.7871 133.706 45.157C133.554 45.527 133.347 45.8462 133.072 46.1062C132.799 46.3789 132.472 46.586 132.102 46.7298C131.732 46.8799 131.316 46.9581 130.88 46.9581C130.445 46.9581 130.039 46.8799 129.669 46.7298C129.288 46.586 128.971 46.381 128.698 46.1062C128.415 45.8441 128.208 45.527 128.054 45.157C127.902 44.7871 127.825 44.3728 127.825 43.9246C127.825 43.4765 127.902 43.0727 128.054 42.7028C128.208 42.3329 128.413 42.0264 128.698 41.7642C128.971 41.5021 129.288 41.2949 129.669 41.1533C130.039 41.0011 130.445 40.9356 130.88 40.9356C131.316 40.9356 131.73 41.0011 132.102 41.1533C132.472 41.2928 132.799 41.5021 133.072 41.7642C133.345 42.0264 133.552 42.3329 133.706 42.7028C133.859 43.0727 133.935 43.4765 133.935 43.9246ZM122.086 41.0857H123.143V43.3771H125.731V41.0857H126.788V46.8038H125.731V44.284H123.143V46.8038H122.086V41.0857ZM116.873 44.229C116.567 44.229 116.284 44.284 116.045 44.4129C115.804 44.544 115.597 44.7195 115.421 44.9478C115.248 45.1761 115.106 45.4488 114.996 45.7637C114.886 46.0702 114.8 46.419 114.757 46.8017H113.601C113.688 46.0047 113.884 45.3494 114.168 44.8484C114.464 44.3368 114.831 43.9542 115.303 43.7027L113.601 41.0836H114.757L116.294 43.3645C116.391 43.3539 116.48 43.3433 116.577 43.3327H116.873V41.0836H117.93V43.3327H118.224C118.313 43.3433 118.41 43.3539 118.497 43.3645L120.046 41.0836H121.203L119.49 43.7027C120.44 44.2269 121.019 45.2501 121.203 46.8017H120.046C120.002 46.419 119.915 46.0702 119.807 45.7532C119.698 45.4361 119.556 45.1655 119.383 44.9351C119.207 44.7173 119 44.5419 118.761 44.4108C118.52 44.2819 118.237 44.2269 117.93 44.2269V46.8017H116.873V44.2269V44.229ZM111.866 43.9246C111.866 43.6519 111.821 43.3771 111.724 43.1277C111.637 42.8761 111.506 42.669 111.341 42.483C111.179 42.2969 110.971 42.1553 110.73 42.0475C110.492 41.9376 110.227 41.8826 109.936 41.8826C109.644 41.8826 109.38 41.9376 109.149 42.0475C108.91 42.1553 108.712 42.2969 108.538 42.483C108.375 42.669 108.244 42.8761 108.156 43.1277C108.056 43.3771 108.014 43.6519 108.014 43.9246C108.014 44.2185 108.056 44.4912 108.156 44.7406C108.242 44.9922 108.373 45.2099 108.538 45.3959C108.712 45.5798 108.908 45.7236 109.149 45.8208C109.377 45.9307 109.652 45.9836 109.936 45.9836C110.219 45.9836 110.492 45.9307 110.73 45.8208C110.959 45.7236 111.168 45.5819 111.341 45.3959C111.506 45.2099 111.637 44.9922 111.724 44.7406C111.821 44.4912 111.866 44.2185 111.866 43.9246ZM112.999 43.9246C112.999 44.3728 112.922 44.7871 112.77 45.157C112.608 45.527 112.4 45.8462 112.126 46.1062C111.853 46.3789 111.536 46.586 111.155 46.7298C110.785 46.8799 110.382 46.9581 109.933 46.9581C109.485 46.9581 109.092 46.8799 108.722 46.7298C108.352 46.586 108.025 46.381 107.752 46.1062C107.479 45.8441 107.261 45.527 107.109 45.157C106.957 44.7871 106.879 44.3728 106.879 43.9246C106.879 43.4765 106.957 43.0727 107.109 42.7028C107.261 42.3329 107.479 42.0264 107.752 41.7642C108.025 41.5021 108.352 41.2949 108.722 41.1533C109.092 41.0011 109.498 40.9356 109.933 40.9356C110.369 40.9356 110.783 41.0011 111.155 41.1533C111.538 41.2928 111.853 41.5021 112.126 41.7642C112.398 42.0264 112.608 42.3329 112.77 42.7028C112.922 43.0727 112.999 43.4765 112.999 43.9246ZM102.767 45.1782H102.801L104.306 41.0857H105.856V46.8038H104.809L104.83 42.3963H104.809L103.097 46.8038H102.397L100.696 42.3963H100.675L100.696 46.8038H99.681V41.0857H101.22L102.769 45.1782H102.767ZM95.4892 43.4554H96.1001C96.47 43.4554 96.7639 43.3771 96.9605 43.2461C97.1676 43.1044 97.2649 42.8973 97.2649 42.6246C97.2649 42.373 97.1888 42.1764 97.0133 42.0348C96.8505 41.8932 96.6201 41.8276 96.3474 41.8276C96.1064 41.8276 95.9099 41.8911 95.7471 42.0116C95.5822 42.1426 95.4744 42.316 95.3983 42.5464L94.483 42.1743C94.6457 41.7811 94.8867 41.4767 95.2123 41.2696C95.5505 41.0518 95.9437 40.9419 96.4235 40.9419C96.6962 40.9419 96.9583 40.9736 97.1866 41.0392C97.4255 41.1047 97.6348 41.2019 97.8081 41.333C97.9836 41.4641 98.1252 41.6289 98.233 41.8255C98.3324 42.02 98.3852 42.2399 98.3852 42.502C98.3852 42.6859 98.3429 42.8508 98.2774 42.9924C98.2119 43.1446 98.1125 43.2651 98.0047 43.3729C97.8969 43.4701 97.7764 43.5589 97.6454 43.635C97.5164 43.7006 97.3832 43.7428 97.2543 43.7767V43.7851C97.3959 43.8084 97.5481 43.8422 97.713 43.8972C97.8652 43.9521 98.0195 44.0388 98.1506 44.1487C98.2816 44.2565 98.4021 44.3876 98.4782 44.563C98.5649 44.7258 98.6093 44.933 98.6093 45.1739C98.6093 45.4466 98.5564 45.6961 98.436 45.9138C98.326 46.1315 98.1633 46.3176 97.9667 46.4719C97.7701 46.6241 97.5291 46.734 97.267 46.8207C96.9943 46.8968 96.711 46.9391 96.4066 46.9391C96.1234 46.9391 95.8697 46.9073 95.652 46.8312C95.4342 46.7657 95.2376 46.6685 95.0622 46.548C94.8994 46.4275 94.7472 46.2859 94.6373 46.1104C94.5168 45.9476 94.4195 45.7616 94.354 45.5545L95.2926 45.2162C95.3898 45.4784 95.5315 45.6855 95.7175 45.8377C95.9035 45.9793 96.1551 46.0554 96.4595 46.0554C96.7977 46.0554 97.0598 45.9667 97.2458 45.8145C97.4424 45.6623 97.5291 45.4445 97.5291 45.1718C97.5291 44.5377 97.0387 44.2227 96.0663 44.2227H95.4871V43.449L95.4892 43.4554ZM92.5001 43.9246C92.5001 43.6519 92.4452 43.3771 92.3585 43.1277C92.2718 42.8761 92.1408 42.669 91.9653 42.483C91.8025 42.2969 91.606 42.1553 91.365 42.0475C91.1261 41.9376 90.8534 41.8826 90.5701 41.8826C90.2869 41.8826 90.0121 41.9376 89.7732 42.0475C89.5449 42.1553 89.3356 42.2969 89.1729 42.483C88.9995 42.669 88.879 42.8761 88.7818 43.1277C88.6951 43.3771 88.6507 43.6519 88.6507 43.9246C88.6507 44.2185 88.6951 44.4912 88.7818 44.7406C88.879 44.9922 88.9995 45.2099 89.1729 45.3959C89.3356 45.5798 89.5449 45.7236 89.7732 45.8208C90.0121 45.9307 90.2763 45.9836 90.5701 45.9836C90.864 45.9836 91.1261 45.9307 91.3565 45.8208C91.5954 45.7236 91.8047 45.5819 91.9674 45.3959C92.1408 45.2099 92.2739 44.9922 92.3606 44.7406C92.4473 44.4912 92.5022 44.2185 92.5022 43.9246H92.5001ZM93.6247 43.9246C93.6247 44.3728 93.5486 44.7871 93.3964 45.157C93.2442 45.527 93.0244 45.8462 92.7623 46.1062C92.4896 46.3789 92.1619 46.586 91.792 46.7298C91.422 46.8799 91.0077 46.9581 90.5701 46.9581C90.1326 46.9581 89.7309 46.8799 89.3483 46.7298C88.9763 46.586 88.6486 46.381 88.378 46.1062C88.1053 45.8441 87.8855 45.527 87.7333 45.157C87.5811 44.7871 87.505 44.3728 87.505 43.9246C87.505 43.4765 87.5811 43.0727 87.7333 42.7028C87.8855 42.3329 88.1032 42.0264 88.378 41.7642C88.6507 41.5021 88.9763 41.2949 89.3483 41.1533C89.7288 41.0011 90.1326 40.9356 90.5701 40.9356C91.0077 40.9356 91.4199 41.0011 91.792 41.1533C92.1619 41.2928 92.4917 41.5021 92.7623 41.7642C93.0244 42.0264 93.2421 42.3329 93.3964 42.7028C93.5486 43.0727 93.6247 43.4765 93.6247 43.9246ZM83.5541 45.9307H84.4483C84.6026 45.9307 84.7442 45.918 84.8964 45.8863C85.0381 45.8631 85.1691 45.8102 85.2791 45.7447C85.3974 45.6897 85.4862 45.6031 85.5518 45.4826C85.6279 45.3748 85.6617 45.2437 85.6617 45.0788C85.6617 44.785 85.5518 44.5673 85.3446 44.4468C85.1374 44.3157 84.8542 44.2502 84.4948 44.2502H83.5562V45.9307H83.5541ZM83.5541 43.4554H84.461C84.6026 43.4554 84.7231 43.4321 84.8436 43.4088C84.962 43.3771 85.0719 43.3327 85.1586 43.2693C85.2452 43.2038 85.3108 43.1277 85.3657 43.0283C85.4207 42.9311 85.4418 42.8106 85.4418 42.6796C85.4418 42.4174 85.3425 42.2314 85.148 42.1151C84.9514 42.0052 84.6893 41.9397 84.3722 41.9397H83.5541V43.4575V43.4554ZM82.5204 41.0857H84.5709C84.7886 41.0857 85.0191 41.1089 85.2368 41.1533C85.4651 41.1956 85.6744 41.2717 85.8583 41.3922C86.0337 41.5021 86.1859 41.6437 86.3064 41.8403C86.4142 42.0264 86.4798 42.2652 86.4798 42.5612C86.4798 42.8571 86.3931 43.1277 86.2071 43.3349C86.0337 43.5526 85.7927 43.7069 85.5095 43.783V43.7915C85.6828 43.8253 85.8371 43.8697 85.9893 43.9458C86.131 44.0219 86.262 44.1085 86.3719 44.229C86.4903 44.3474 86.5664 44.4806 86.6341 44.6434C86.6996 44.7956 86.7313 44.971 86.7313 45.1676C86.7313 45.4509 86.6658 45.7003 86.558 45.9096C86.448 46.1041 86.2958 46.2795 86.0993 46.4127C85.8921 46.5416 85.6744 46.641 85.4101 46.7065C85.148 46.7721 84.8647 46.8059 84.5709 46.8059H82.5204V41.0878V41.0857ZM72.898 46.8038H71.8389V41.9925H70.1055V41.0857H74.6314V41.9925H72.898V46.8038ZM69.3826 46.8038H68.3362V41.0857H69.3826V46.8038ZM65.0533 45.899H65.7171C66.0976 45.899 66.3829 45.8229 66.5457 45.6707C66.7212 45.5291 66.8078 45.3114 66.8078 45.0175C66.8078 44.766 66.7212 44.5588 66.5457 44.4066C66.3724 44.2523 66.0976 44.1656 65.7171 44.1656H65.0533V45.899ZM65.0533 41.0857V43.2693H65.6642C65.9792 43.2693 66.2751 43.301 66.5457 43.3666C66.8184 43.4321 67.0488 43.542 67.2454 43.6837C67.442 43.8253 67.5942 44.0007 67.7147 44.2185C67.8225 44.4362 67.8775 44.6983 67.8775 45.0027C67.8775 45.3071 67.8225 45.5608 67.7147 45.7891C67.5963 46.0068 67.442 46.1928 67.2327 46.345C67.0382 46.4972 66.7973 46.6072 66.5246 46.6833C66.2519 46.7594 65.9686 46.8038 65.6515 46.8038H63.9942V41.0857H65.0533ZM62.6857 41.0857V46.8038H61.6372V41.9925H59.183V46.8038H58.1261V41.0857H62.6878H62.6857ZM55.9657 43.9246C55.9657 43.6519 55.9213 43.3771 55.8346 43.1277C55.7373 42.8761 55.6063 42.669 55.4414 42.483C55.2786 42.2969 55.0715 42.1553 54.8305 42.0475C54.5916 41.9376 54.3274 41.8826 54.0336 41.8826C53.7397 41.8826 53.4882 41.9376 53.2493 42.0475C53.0083 42.1553 52.8117 42.2969 52.6384 42.483C52.4756 42.669 52.3424 42.8761 52.2558 43.1277C52.1691 43.3771 52.1141 43.6519 52.1141 43.9246C52.1141 44.2185 52.1691 44.4912 52.2558 44.7406C52.3424 44.9922 52.4735 45.2099 52.6384 45.3959C52.8117 45.5798 53.0083 45.7236 53.2493 45.8208C53.4882 45.9307 53.7503 45.9836 54.0336 45.9836C54.3168 45.9836 54.5916 45.9307 54.8305 45.8208C55.0694 45.7236 55.266 45.5819 55.4414 45.3959C55.6042 45.2099 55.7352 44.9922 55.8346 44.7406C55.9213 44.4912 55.9657 44.2185 55.9657 43.9246ZM57.1008 43.9246C57.1008 44.3728 57.0247 44.7871 56.8725 45.157C56.7203 45.527 56.5026 45.8462 56.2299 46.1062C55.9572 46.3789 55.6401 46.586 55.2596 46.7298C54.8876 46.8799 54.4838 46.9581 54.0378 46.9581C53.5917 46.9581 53.1986 46.8799 52.8265 46.7298C52.4566 46.586 52.1268 46.381 51.8562 46.1062C51.5835 45.8441 51.3658 45.527 51.2115 45.157C51.0593 44.7871 50.9832 44.3728 50.9832 43.9246C50.9832 43.4765 51.0593 43.0727 51.2115 42.7028C51.3637 42.3329 51.5835 42.0264 51.8562 41.7642C52.1289 41.5021 52.4566 41.2949 52.8265 41.1533C53.1965 41.0011 53.6002 40.9356 54.0378 40.9356C54.4754 40.9356 54.8876 41.0011 55.2596 41.1533C55.6401 41.2928 55.9572 41.5021 56.2299 41.7642C56.5026 42.0264 56.7203 42.3329 56.8725 42.7028C57.0247 43.0727 57.1008 43.4765 57.1008 43.9246Z" fill="#2B2A29"/>
<path fill-rule="evenodd" clip-rule="evenodd" d="M78.024 45.026C78.6666 45.026 79.1803 44.5123 79.1803 43.8697C79.1803 43.2271 78.6666 42.7134 78.024 42.7134C77.3814 42.7134 76.8677 43.2376 76.8677 43.8697C76.8677 44.5017 77.392 45.026 78.024 45.026Z" fill="#176BB2"/>
<path d="M78.0242 43.0919C77.6035 43.0919 77.2463 43.447 77.2463 43.8677C77.2463 44.2884 77.595 44.6435 78.0242 44.6435C78.4533 44.6435 78.8 44.301 78.8 43.8677C78.8 43.4343 78.4512 43.0919 78.0242 43.0919ZM78.0242 45.4045C77.1765 45.4045 76.4874 44.7154 76.4874 43.8677C76.4874 43.02 77.1765 42.333 78.0242 42.333C78.8718 42.333 79.561 43.0221 79.561 43.8677C79.561 44.7133 78.8718 45.4045 78.0242 45.4045Z" fill="#176BB2"/>
<path fill-rule="evenodd" clip-rule="evenodd" d="M154.64 45.026C155.285 45.026 155.796 44.5123 155.796 43.8697C155.796 43.2271 155.283 42.7134 154.64 42.7134C153.998 42.7134 153.484 43.2376 153.484 43.8697C153.484 44.5017 154.008 45.026 154.64 45.026Z" fill="#176BB2"/>
<path d="M154.64 43.0919C154.219 43.0919 153.864 43.447 153.864 43.8677C153.864 44.2884 154.213 44.6435 154.64 44.6435C155.067 44.6435 155.418 44.301 155.418 43.8677C155.418 43.4343 155.069 43.0919 154.64 43.0919ZM154.64 45.4045C153.795 45.4045 153.103 44.7154 153.103 43.8677C153.103 43.02 153.792 42.333 154.64 42.333C155.488 42.333 156.177 43.0221 156.177 43.8677C156.177 44.7133 155.488 45.4045 154.64 45.4045Z" fill="#176BB2"/>
<path fill-rule="evenodd" clip-rule="evenodd" d="M50.7612 36.7014H198.102C198.233 36.7014 198.33 36.7987 198.33 36.9297C198.33 37.0502 198.233 37.1474 198.102 37.1474H50.7612C50.6428 37.1474 50.5435 37.0502 50.5435 36.9297C50.5435 36.7987 50.6428 36.7014 50.7612 36.7014Z" fill="#2B2A29"/>
<path d="M198.104 37.5279H50.7612C50.4314 37.5279 50.1629 37.2595 50.1629 36.9297C50.1629 36.5999 50.4314 36.323 50.7612 36.323H198.102C198.442 36.323 198.711 36.5893 198.711 36.9297C198.711 37.27 198.436 37.5279 198.102 37.5279H198.104Z" fill="#176BB2"/>
</svg>
