<svg width="21" height="20" viewBox="0 0 21 20" fill="none" xmlns="http://www.w3.org/2000/svg">
<path d="M10.5723 0C7.92013 0 5.37659 1.05357 3.50123 2.92893C1.62586 4.8043 0.572296 7.34784 0.572296 10C0.572296 12.6522 1.62586 15.1957 3.50123 17.0711C5.37659 18.9464 7.92013 20 10.5723 20C13.2245 20 15.768 18.9464 17.6434 17.0711C19.5187 15.1957 20.5723 12.6522 20.5723 10C20.5723 7.34784 19.5187 4.8043 17.6434 2.92893C15.768 1.05357 13.2245 0 10.5723 0ZM1.80563 10.7556H4.59452C4.63896 11.7667 4.78007 12.7711 5.01674 13.7556H2.61674C2.16919 12.8121 1.89447 11.796 1.80563 10.7556ZM11.3279 4.75556V1.32222C12.3986 1.72914 13.2785 2.5218 13.7945 3.54444C14.0223 3.93 14.2234 4.33111 14.3945 4.74444L11.3279 4.75556ZM14.9056 6.25556C15.1634 7.23667 15.3167 8.24222 15.3612 9.25556H11.3279V6.25556H14.9056ZM9.81674 1.32222V4.75556H6.75007C6.92148 4.34188 7.12198 3.94088 7.35007 3.55556C7.86393 2.52873 8.74406 1.73185 9.81674 1.32222ZM9.81674 6.25556V9.25556H5.79452C5.83896 8.24222 5.9923 7.23667 6.25007 6.25556H9.81674ZM4.59452 9.24444H1.80563C1.89447 8.20399 2.16919 7.18791 2.61674 6.24444H5.01674C4.77962 7.2285 4.63822 8.23317 4.59452 9.24444ZM5.79452 10.7556H9.81674V13.7556H6.25007C5.99234 12.7745 5.83963 11.7689 5.79452 10.7556ZM9.82785 15.2V18.6333C8.75709 18.2264 7.87724 17.4338 7.36119 16.4111C7.13309 16.0258 6.93259 15.6248 6.76119 15.2111L9.82785 15.2ZM11.3279 18.6333V15.2556H14.3945C14.2231 15.6692 14.0226 16.0702 13.7945 16.4556C13.2785 17.4782 12.3986 18.2709 11.3279 18.6778V18.6333ZM11.3279 13.7V10.7H15.3501C15.305 11.7133 15.1523 12.719 14.8945 13.7H11.3279ZM16.5612 10.7H19.3501C19.2612 11.7405 18.9865 12.7565 18.539 13.7H16.1279C16.3612 12.7333 16.5023 11.7478 16.5501 10.7556L16.5612 10.7ZM16.5612 9.2C16.5103 8.20701 16.3652 7.2211 16.1279 6.25556H18.5279C18.9756 7.2 19.2501 8.21556 19.339 9.25556L16.5612 9.2ZM17.6723 4.75556H15.6834C15.3235 3.74478 14.8019 2.79914 14.139 1.95556C15.5216 2.5762 16.7226 3.54006 17.6279 4.75556H17.6723ZM7.00563 1.95556C6.34265 2.79914 5.82105 3.74478 5.46119 4.75556H3.51674C4.42199 3.54006 5.62298 2.5762 7.00563 1.95556ZM3.50563 15.2889H5.46119C5.82105 16.2997 6.34265 17.2453 7.00563 18.0889C5.61916 17.4589 4.41779 16.4833 3.51674 15.2556L3.50563 15.2889ZM14.1279 18.0889C14.7908 17.2453 15.3124 16.2997 15.6723 15.2889H17.6279C16.7171 16.4881 15.5166 17.4363 14.139 18.0444L14.1279 18.0889Z" fill="#176BB2"/>
</svg>
