<svg width="21" height="20" viewBox="0 0 21 20" fill="none" xmlns="http://www.w3.org/2000/svg">
<path d="M5.14038 1.66012C5.06659 1.5652 4.97345 1.48706 4.86714 1.43091C4.76083 1.37475 4.64378 1.34185 4.52378 1.3344C4.40378 1.32695 4.28357 1.34512 4.17113 1.38771C4.05869 1.43029 3.9566 1.4963 3.87163 1.58137L2.57913 2.87512C1.97538 3.48012 1.75288 4.33638 2.01663 5.08763C3.11255 8.19651 4.89308 11.0194 7.22663 13.3476C9.55488 15.6812 12.3777 17.4617 15.4866 18.5576C16.2379 18.8214 17.0941 18.5989 17.6991 17.9951L18.9916 16.7026C19.0767 16.6177 19.1427 16.5156 19.1853 16.4031C19.2279 16.2907 19.2461 16.1705 19.2386 16.0505C19.2312 15.9305 19.1983 15.8134 19.1421 15.7071C19.0859 15.6008 19.0078 15.5077 18.9129 15.4339L16.0291 13.1914C15.9276 13.1129 15.8097 13.0584 15.6841 13.032C15.5586 13.0056 15.4287 13.0079 15.3041 13.0389L12.5666 13.7226C12.2012 13.8133 11.8185 13.8082 11.4557 13.7077C11.0928 13.6072 10.7621 13.4147 10.4954 13.1489L7.42538 10.0776C7.15936 9.81108 6.96666 9.48036 6.86592 9.1175C6.76519 8.75464 6.75984 8.37191 6.85038 8.00638L7.53539 5.26888C7.56633 5.14436 7.56869 5.01445 7.54228 4.88889C7.51587 4.76333 7.46138 4.64537 7.38288 4.54387L5.14038 1.66012ZM2.92788 0.638875C3.14663 0.420061 3.40942 0.250288 3.69881 0.140826C3.9882 0.0313647 4.29756 -0.0152795 4.60636 0.0039909C4.91516 0.0232613 5.21633 0.108005 5.48986 0.252596C5.7634 0.397186 6.00304 0.598314 6.19288 0.842625L8.43538 3.72512C8.84663 4.25387 8.99164 4.94263 8.82913 5.59262L8.14539 8.33012C8.11028 8.47192 8.11231 8.62038 8.15129 8.76116C8.19026 8.90195 8.26486 9.03031 8.36789 9.13387L11.4391 12.2051C11.5428 12.3084 11.6714 12.3831 11.8124 12.4221C11.9535 12.461 12.1022 12.463 12.2441 12.4276L14.9804 11.7439C15.3012 11.6641 15.6359 11.6581 15.9593 11.7263C16.2828 11.7945 16.5866 11.9352 16.8479 12.1376L19.7304 14.3801C20.7666 15.1864 20.8616 16.7176 19.9341 17.6439L18.6416 18.9364C17.7166 19.8614 16.3341 20.2676 15.0454 19.8139C11.7462 18.6546 8.75106 16.7661 6.28288 14.2889C3.80585 11.8211 1.91732 8.82634 0.757885 5.52762C0.305385 4.24012 0.711635 2.85637 1.63663 1.93137L2.92788 0.638875Z" fill="#176BB2"/>
</svg>
