<svg width="12" height="11" viewBox="0 0 12 11" fill="none" xmlns="http://www.w3.org/2000/svg">
<path fill-rule="evenodd" clip-rule="evenodd" d="M11.3112 9.83664L6.51017 0.91244C6.4352 0.775 6.29465 0.51886 6.01977 0.51886C5.74489 0.51886 5.6668 0.700027 5.59808 0.828096L0.662743 9.8991C0.662743 9.8991 0.615891 9.99907 0.615891 10.1084C0.615891 10.2177 0.656497 10.6144 1.18127 10.6144L10.8957 10.6144C10.8957 10.6144 11.3987 10.5926 11.3987 10.2271C11.3987 10.0366 11.358 9.91473 11.3143 9.83351" fill="#E3000F"/>
<path d="M6.00094 8.86819C5.6917 8.86819 5.41994 8.60893 5.41682 8.28408C5.41682 7.96547 5.68858 7.70621 6.00094 7.70621C6.31331 7.70621 6.58818 7.96547 6.58506 8.28408C6.58506 8.60581 6.32268 8.86819 6.00094 8.86819ZM5.46055 3.82355L6.54132 3.82355L6.44449 7.31263H5.55426L5.46055 3.82355Z" fill="white"/>
</svg>
