<svg width="22" height="25" viewBox="0 0 22 25" fill="none" xmlns="http://www.w3.org/2000/svg">
<path fill-rule="evenodd" clip-rule="evenodd" d="M11.4731 1.65636C12.3234 1.65636 13.2799 1.9462 13.9369 2.45828L14.3524 2.80609C14.478 2.92203 14.7002 3.19257 14.8065 3.32784C15.2219 3.8689 15.5987 4.77713 15.5987 5.52109C15.5987 6.26505 15.5794 6.43895 15.3862 7.16359C15.2799 7.55006 15.1446 7.90756 14.9997 8.26505C14.8548 8.62254 14.7002 8.95103 14.5263 9.27953C14.362 9.60804 14.1784 9.94621 13.9949 10.2554C13.5987 10.9027 13.2896 11.4052 12.8161 12.0428C12.7099 12.1878 12.6132 12.323 12.4973 12.4679L11.6664 13.5017C11.6084 13.5694 11.5408 13.637 11.4925 13.7143L11.1929 13.3955C11.1446 13.3375 11.0963 13.2892 11.048 13.2215L9.80163 11.608C9.70502 11.4824 9.62772 11.3665 9.54076 11.2312L8.82579 10.0621C8.53594 9.50175 8.20744 8.95104 7.98522 8.352C7.41517 6.81577 7.05768 5.63702 7.77266 3.99451C8.06251 3.32784 8.64222 2.71915 9.26057 2.31336C9.82096 1.94621 10.6326 1.65636 11.4828 1.65636M2.99004 16.5066C3.05767 16.4003 6.75816 12.7771 6.98038 12.5549L7.47313 12.0718C7.6567 11.8882 7.60841 11.9365 7.90792 11.8399C8.06251 11.7916 8.55525 11.5887 8.68086 11.5887C8.73883 11.695 8.80647 11.7916 8.88376 11.8979C8.96106 12.0042 9.01903 12.1008 9.08667 12.1974C8.89343 12.323 6.13014 15.1443 5.66637 15.5694C5.57941 15.6467 4.20744 16.1008 3.99488 16.1684C3.87893 16.2071 3.09633 16.4873 2.99971 16.4969L2.99004 16.5066ZM12.0335 17.7916C12.1108 17.6853 16.2171 13.6563 16.7871 13.0863C16.8258 13.0477 16.8548 13.0187 16.8934 12.98C16.9611 12.9124 16.9224 12.9317 17.0287 12.9027L19.3958 12.3906C19.5021 12.3713 19.647 12.323 19.7437 12.3134C19.676 12.4196 19.2799 12.7771 19.135 12.922L15.0094 17.038C14.9127 17.1346 14.9128 17.1733 14.7485 17.2023L12.7099 17.637C12.6132 17.6563 12.4876 17.6853 12.3717 17.7047C12.2557 17.7336 12.1205 17.7723 12.0142 17.7723L12.0335 17.7916ZM10.4973 18.0042C10.4393 17.9945 10.3234 17.9172 10.2557 17.8882C10.1784 17.8399 10.1011 17.8013 10.0239 17.7626C9.94656 17.7143 9.86927 17.6757 9.79198 17.637L8.58425 16.9703C8.49729 16.922 8.43931 16.893 8.35236 16.8447L7.27024 16.2457C7.22193 16.2167 7.19294 16.2071 7.14463 16.1781C7.06733 16.1298 6.99005 16.0911 6.91275 16.0525C6.85478 16.0235 6.70985 15.9365 6.66154 15.9269L9.46348 13.1443C9.53111 13.0766 9.57942 12.9897 9.67604 12.9704C9.69536 13.0573 10.1398 13.579 10.1978 13.6563L11.048 14.6129C11.164 14.7288 11.2219 14.8351 11.4055 14.8737C11.7147 14.9414 11.9369 14.6805 12.1301 14.4293C12.1784 14.3713 12.2171 14.3423 12.2654 14.265C12.5842 13.8592 12.8644 13.5694 13.2219 13.096C13.3089 12.98 13.3958 12.8737 13.4828 12.7578L14.2557 11.6853C14.3524 11.7046 15.7727 12.5163 15.9659 12.6129L15.1253 13.4535C15.0577 13.5211 15.0383 13.5694 14.9611 13.637C14.6132 13.9752 10.6229 17.9462 10.5069 18.0235L10.4973 18.0042ZM21.676 11.4824C21.676 11.7433 21.6471 11.7723 21.4538 11.9655L19.4345 13.9848C18.2558 15.1346 17.1156 16.294 15.9466 17.4438C15.3282 18.0525 15.5215 17.9849 14.8838 18.1298C14.7195 18.1684 14.5746 18.1974 14.4103 18.236L11.0577 18.9607C10.9127 18.9897 10.7195 19.0476 10.5553 19.0573H10.5166C10.4393 19.0573 10.3717 19.038 10.3041 19.009L5.83062 16.5452C5.734 16.5452 3.68569 17.2795 3.52144 17.3278C3.14463 17.4534 2.74849 17.5887 2.37168 17.7336L1.51178 18.0332C1.44414 18.0621 1.29922 18.1105 1.21226 18.1105C0.932068 18.1105 0.719513 17.9655 0.719513 17.7047C0.719513 17.3568 0.835445 17.3279 1.08665 17.0766L6.02385 12.1974C6.33303 11.8979 6.62289 11.608 6.92241 11.3085C7.23159 10.9993 7.83062 10.951 8.15912 10.7771C8.06251 10.5935 7.95623 10.4196 7.85961 10.2264C7.33787 9.23123 6.93207 8.37132 6.65188 7.26021C6.49729 6.66118 6.44898 6.26504 6.44898 5.59837C6.44898 4.59354 6.81613 3.695 7.35719 2.8834C8.14946 1.71432 9.76299 0.767456 11.2413 0.767456H11.7727C12.7485 0.767456 13.8983 1.25055 14.6615 1.85925C14.6905 1.88823 14.7098 1.8979 14.7388 1.92689C15.1833 2.28438 15.4925 2.6805 15.8113 3.15393L16.1205 3.73365C16.8258 5.44379 16.5746 6.89307 15.8983 8.56457C15.4055 9.77229 15.2413 9.91721 14.7292 10.8737C14.8355 10.9414 14.9611 11.009 15.0867 11.067L16.1108 11.637C17.0287 12.1394 16.6229 12.0332 17.705 11.8303C18.5649 11.666 19.4925 11.4244 20.3524 11.2602C20.5553 11.2215 21.0673 11.0863 21.2413 11.0863C21.4538 11.0863 21.6664 11.2699 21.6664 11.4921L21.676 11.4824ZM8.68086 5.71431C8.68086 6.40996 8.99005 7.17324 9.49246 7.66599C9.70502 7.86889 10.0335 8.12012 10.3041 8.23607C10.6036 8.36167 10.7485 8.41963 11.0963 8.46794C11.1929 8.4776 11.3185 8.4776 11.4345 8.49693C11.7243 8.53557 12.3137 8.40031 12.5842 8.28436C12.9611 8.12978 13.1446 7.98485 13.4248 7.7433C13.4731 7.69499 13.4731 7.7143 13.5118 7.66599C13.7533 7.39546 13.8306 7.33751 14.0142 6.9607C14.5553 5.8979 14.333 4.60319 13.4925 3.77227C13.0287 3.31817 12.362 2.95104 11.6664 2.95104C11.0867 2.95104 10.7871 2.9607 10.2557 3.22157C9.92724 3.38582 9.61807 3.59838 9.38618 3.87857C8.9514 4.41963 8.68086 4.98001 8.68086 5.71431ZM11.5601 7.5694C10.7388 7.5694 10.1301 7.17326 9.81131 6.53557C9.44416 5.80127 9.6084 4.96069 10.1784 4.39065C10.8355 3.73364 11.792 3.69499 12.5842 4.20707C12.6519 4.25538 12.6615 4.25539 12.7195 4.31336C12.7678 4.36167 12.8065 4.37132 12.8451 4.41963C13.4538 5.0863 13.5794 5.98486 13.0577 6.75781C12.9901 6.86409 12.9321 6.92205 12.8548 7.01867C12.7582 7.13461 12.4586 7.32783 12.3137 7.39546C12.1205 7.49208 11.8499 7.58871 11.5698 7.58871L11.5601 7.5694ZM5.6084 21.067V20.323H2.0142V21.067H3.35719V24.6515H4.27506V21.067H5.61806H5.6084ZM8.0625 23.9848C7.86926 23.9848 7.70502 23.9462 7.5601 23.8786C7.41517 23.8013 7.28956 23.695 7.18328 23.5597C7.077 23.4245 6.9997 23.2699 6.9514 23.0863C6.89342 22.9027 6.86444 22.7095 6.86444 22.4873C6.86444 22.2651 6.89342 22.0718 6.9514 21.8882C6.9997 21.7046 7.077 21.5501 7.18328 21.4148C7.28956 21.2795 7.40551 21.1829 7.5601 21.1056C7.70502 21.0283 7.86926 20.9897 8.0625 20.9897C8.25574 20.9897 8.41999 21.0283 8.56492 21.1056C8.70985 21.1732 8.83545 21.2795 8.94173 21.4148C9.03835 21.5501 9.11565 21.7046 9.17362 21.8882C9.23159 22.0718 9.25092 22.2651 9.25092 22.4873C9.25092 22.7095 9.22193 22.9027 9.17362 23.0863C9.11565 23.2699 9.03835 23.4245 8.94173 23.5597C8.83545 23.695 8.70985 23.7916 8.56492 23.8786C8.41999 23.9462 8.25574 23.9848 8.0625 23.9848ZM5.94657 22.4873C5.94657 22.8061 5.98521 23.1056 6.07216 23.3858C6.16878 23.666 6.29439 23.9076 6.4683 24.1105C6.64222 24.3134 6.86443 24.4776 7.1253 24.5839C7.38617 24.6998 7.69536 24.7578 8.05284 24.7578C8.38135 24.7578 8.67121 24.6998 8.93207 24.5839C9.19294 24.4679 9.41517 24.3037 9.59874 24.1105C9.77266 23.9076 9.91758 23.666 10.0142 23.3858C10.1108 23.1056 10.1591 22.8061 10.1591 22.4873C10.1591 22.1684 10.1108 21.8689 10.0142 21.5887C9.91758 21.3085 9.77266 21.067 9.59874 20.8641C9.41517 20.6612 9.19294 20.5066 8.93207 20.3906C8.67121 20.2747 8.37168 20.2167 8.05284 20.2167C7.70502 20.2167 7.39583 20.2747 7.1253 20.3906C6.85477 20.5066 6.64222 20.6612 6.4683 20.8641C6.29439 21.067 6.15912 21.3085 6.07216 21.5887C5.98521 21.8689 5.94657 22.1588 5.94657 22.4873ZM14.42 24.6612V20.323H10.8644V24.6612H11.7823V21.0766H13.5021V24.6612H14.42ZM17.5601 23.5114H16.7099C16.7388 23.9076 16.8838 24.2167 17.1543 24.439C17.4152 24.6612 17.7533 24.7675 18.1688 24.7675C18.6712 24.7675 19.0577 24.6129 19.3185 24.294C19.5794 23.9849 19.705 23.637 19.705 23.2409C19.705 22.7868 19.5698 22.4486 19.3089 22.2071C19.0384 21.9752 18.7292 21.8496 18.3717 21.8496C18.1978 21.8496 18.0528 21.8689 17.9272 21.9172C17.8499 21.9462 17.7533 22.0042 17.6181 22.0815L17.7727 21.1443H19.5408V20.4293H17.1543L16.8451 22.7868L17.6084 22.8254C17.6857 22.6998 17.7823 22.6129 17.9176 22.5646C17.9949 22.5356 18.0818 22.5259 18.1881 22.5259C18.4007 22.5259 18.5649 22.6032 18.6712 22.7578C18.7775 22.9027 18.8258 23.0863 18.8258 23.3085C18.8258 23.5307 18.7678 23.7143 18.6615 23.8592C18.5553 24.0042 18.391 24.0815 18.1784 24.0815C17.9949 24.0815 17.8499 24.0332 17.763 23.9269C17.6664 23.8303 17.5987 23.695 17.5697 23.5114H17.5601Z" fill="#176BB2"/>
</svg>
