<svg width="17" height="17" viewBox="0 0 17 17" fill="none" xmlns="http://www.w3.org/2000/svg">
<path fill-rule="evenodd" clip-rule="evenodd" d="M0.00952576 7.99685V13.0887C0.00952576 13.2269 0.179619 13.2907 0.317812 13.3864C0.370963 13.4289 0.445372 13.4714 0.498524 13.5033L1.25326 13.9817C1.98675 14.4175 2.78403 14.9703 3.50688 15.4061L5.5904 16.7137C6.09002 17.0432 5.99435 16.99 6.6428 16.6392L7.9822 15.927C8.05661 15.8845 8.10977 15.8632 8.18418 15.8314L8.74758 15.5231C8.81136 15.4806 8.87515 15.4593 8.93893 15.4168L10.2783 14.7045C10.3527 14.662 10.3953 14.6408 10.4697 14.5982L11.8091 13.886C11.9685 13.8116 12.0323 13.7372 12.0323 13.5139V8.17758C12.0323 7.85867 11.7878 7.84805 11.4158 7.62482L9.70431 6.69996C9.70431 6.69996 9.65115 6.66808 9.60863 6.64682C9.5661 6.62556 9.54485 6.61494 9.51296 6.59368L8.18418 5.86019C8.10977 5.81767 8.05662 5.78578 7.99284 5.75388L7.04675 5.23301C6.98297 5.19049 6.91918 5.16923 6.8554 5.1267L6.09002 4.7015C5.9412 4.63772 5.87743 4.72275 5.68608 4.81842C5.61167 4.85031 5.55851 4.88221 5.49473 4.92473L2.0399 6.76374C1.96549 6.79563 1.91235 6.82752 1.84857 6.87005L1.08319 7.274C0.944997 7.34841 0.838683 7.4122 0.68986 7.47598L0.10521 7.78426C0.10521 7.78426 -0.00109863 7.91182 -0.00109863 7.9756M4.55926 6.03028C4.66557 6.00902 5.93057 5.27551 5.99435 5.27551L10.5547 7.75237C10.6716 7.80552 10.7673 7.87992 10.8843 7.93307C10.948 7.96496 10.9799 7.98624 11.0437 8.01813C11.1075 8.05002 11.1606 8.09253 11.2244 8.10316C11.1925 8.15631 10.6185 8.45396 10.5228 8.50711L9.8106 8.90042C9.74682 8.90042 9.68304 8.8579 9.64051 8.826C9.58736 8.79411 9.53422 8.77287 9.48107 8.74098L4.5699 6.03028H4.55926ZM3.99586 6.34917L9.16216 9.16618C9.22594 9.19807 9.26846 9.21933 9.33224 9.26185C9.3854 9.29374 9.47045 9.34689 9.5236 9.35752V10.9733L8.85389 11.3348C8.76885 11.3773 8.70506 11.4092 8.63065 11.4517V9.88903C8.58812 9.71895 8.32237 9.6233 8.18418 9.54889L7.87591 9.3788C7.81213 9.33628 7.74834 9.31501 7.67393 9.27249L6.4302 8.60278C6.292 8.52837 6.16443 8.4646 6.02624 8.37955C5.88805 8.30514 5.74986 8.24135 5.61166 8.16694C5.53725 8.12441 5.4841 8.09252 5.40969 8.06063L4.17658 7.39095C4.10216 7.34843 4.03839 7.32715 3.96397 7.274C3.88956 7.23148 3.82578 7.21021 3.762 7.16769L3.14546 6.82755C3.14546 6.82755 3.28364 6.74248 3.34742 6.69996C3.38994 6.6787 3.42184 6.66808 3.45373 6.64682L3.67697 6.5299C3.74075 6.49801 3.97461 6.34917 4.01713 6.34917H3.99586ZM0.817434 8.00749L2.55015 7.10391L3.86831 7.81615C4.17658 7.97561 4.56989 8.20947 4.85691 8.34766C5.17582 8.50712 5.53725 8.71972 5.84553 8.87918L6.84477 9.4213C6.96171 9.48508 7.05737 9.53824 7.18493 9.60202C7.30187 9.66581 7.39754 9.7296 7.51447 9.78275C7.58888 9.82527 7.79086 9.94219 7.85464 9.96345C7.78023 10.0272 6.79162 10.5375 6.61091 10.6438L6.02624 10.9521C5.96246 10.9521 3.79389 9.68708 3.43246 9.48511C2.70961 9.10242 1.90172 8.60278 1.16823 8.20947C1.10445 8.17758 0.881214 8.06065 0.849323 8.01813L0.817434 8.00749ZM0.519789 8.47522C0.5942 8.49648 0.636709 8.52836 0.68986 8.56025C1.24263 8.87916 1.94424 9.25122 2.47575 9.55949L3.28364 10.0166C3.33679 10.0485 3.38995 10.0804 3.4431 10.1016L5.73922 11.3879V16.1821L0.530413 12.9187V8.46458L0.519789 8.47522ZM6.26011 16.2353V11.4198L7.75898 10.5906C7.83339 10.5587 8.05662 10.4099 8.1204 10.4099V11.8769C8.1204 11.9726 8.14166 12.0151 8.18418 12.0576C8.34363 12.2383 8.58813 12.0576 8.74758 11.9726C9.08775 11.7919 9.4917 11.558 9.83187 11.3773C10.1295 11.2285 10.0445 10.9627 10.0445 10.4737V9.33627C10.1614 9.27249 10.289 9.19807 10.4059 9.13429L10.5866 9.03862C10.6504 9.00673 10.7142 8.97483 10.778 8.93231L11.5114 8.52836V13.4289C11.3095 13.5671 9.9169 14.2687 9.54485 14.4813L8.40742 15.0872C8.34364 15.1191 8.31174 15.151 8.23733 15.1829C8.17355 15.2148 8.14167 15.236 8.07789 15.2679L6.91918 15.8739C6.81288 15.927 6.3239 16.2034 6.24948 16.2247L6.26011 16.2353Z" fill="white"/>
<path fill-rule="evenodd" clip-rule="evenodd" d="M16.8902 2.27774V2.74544C16.8902 3.05371 16.8583 3.27696 16.7201 3.69154C16.2843 5.05221 15.5721 6.49792 14.8386 7.74166C14.7323 7.92237 14.5622 8.27317 14.4027 8.27317C14.1476 8.27317 14.2008 8.24128 14.0519 8.00742C13.7756 7.57158 13.5523 7.11446 13.3185 6.73177L13.1484 6.41288C12.9677 6.07271 12.6275 5.38176 12.5106 5.06285C12.4574 4.93529 12.4149 4.82899 12.3617 4.70143C12.2235 4.36126 12.0747 3.94666 11.9791 3.58523C11.8409 3.03246 11.8302 3.00056 11.8302 2.44779C11.8302 1.57611 12.4787 0.672565 13.2653 0.311137C13.7011 0.109163 13.9775 0.0772705 14.4665 0.0772705C15.1043 0.0772705 15.8378 0.428045 16.2524 0.917036C16.2949 0.970187 16.3374 1.01272 16.38 1.06587C16.6138 1.34226 16.8902 1.94818 16.8902 2.28834M14.3709 7.51843C14.3071 7.47591 13.8074 6.54044 13.7437 6.41288C13.6905 6.31721 13.648 6.23216 13.5948 6.13648C13.5523 6.04081 13.4992 5.95578 13.4567 5.84948C13.0314 5.00969 12.3511 3.52147 12.3511 2.60727C12.3511 1.89505 12.7125 1.28912 13.2015 0.948957C13.9456 0.438706 14.913 0.459964 15.6252 1.01274C15.6677 1.04463 15.6784 1.05523 15.7103 1.08712L15.9654 1.35288C16.1142 1.55485 16.2418 1.78873 16.3056 2.03323C16.4012 2.38403 16.4012 2.59662 16.3481 2.94741C16.2311 3.74468 15.6571 5.04157 15.3276 5.70064C15.285 5.78568 15.2638 5.84949 15.2213 5.9239L14.8705 6.60422C14.711 6.91249 14.5409 7.19951 14.3815 7.49715L14.3709 7.51843Z" fill="white"/>
<path fill-rule="evenodd" clip-rule="evenodd" d="M9.20472 0.311157C9.20472 0.459981 9.35354 0.566258 9.43859 0.6513C9.55552 0.768233 10.2784 1.48049 10.3209 1.54427C10.1508 1.54427 2.1675 1.52301 2.07183 1.54427C1.99741 1.56553 1.94426 1.61867 1.923 1.67183C1.88048 1.77813 1.90174 1.85252 1.90174 1.98008C1.90174 2.05449 1.89111 2.07576 1.89111 2.11828V2.30965C1.90174 2.38406 1.89111 2.40529 1.89111 2.44781V2.63918C1.90174 2.71359 1.89111 2.73483 1.89111 2.77735V2.96872C1.90174 3.04313 1.89111 3.06439 1.89111 3.10691V3.29825C1.90174 3.37266 1.89111 3.39393 1.89111 3.43645V3.62778C1.90174 3.7022 1.89111 3.72346 1.89111 3.76598V3.95732C1.90174 4.03173 1.89111 4.053 1.89111 4.09552V4.28685C1.90174 4.36127 1.89111 4.38253 1.89111 4.42505V4.61639C1.90174 4.6908 1.89111 4.71207 1.89111 4.75459V4.94592C1.90174 5.02034 1.89111 5.0416 1.89111 5.08412V5.27546C1.90174 5.38176 1.89111 5.38176 1.89111 5.47744C1.91237 5.66878 1.84859 5.76447 1.97616 5.89203C2.00805 5.92392 2.00805 5.92391 2.03994 5.94517C2.14624 5.98769 2.25255 5.96642 2.32696 5.90264C2.36948 5.87075 2.412 5.80697 2.412 5.74319V2.0545H10.3209C10.2677 2.12891 10.1083 2.2671 10.0339 2.35214L9.44921 2.93683C9.3748 3.01124 9.19408 3.16004 9.19408 3.27697C9.19408 3.42579 9.30038 3.54273 9.49172 3.54273C9.60866 3.54273 9.86379 3.24508 9.95946 3.14941L11.0331 2.07578C11.267 1.84191 11.2882 1.77813 11.0544 1.54427L9.75748 0.247379C9.61929 0.109186 9.61929 0.0666504 9.42795 0.0666504C9.28975 0.0666504 9.19408 0.236746 9.19408 0.311157" fill="white"/>
<path fill-rule="evenodd" clip-rule="evenodd" d="M13.4144 10.697C13.4144 10.8671 13.5208 10.9627 13.6908 10.9627C13.829 10.9627 14.2011 10.5375 14.318 10.4312L14.9027 9.85717V15.9696H10.438C10.151 15.9696 10.151 16.4798 10.438 16.4798H15.1897C15.498 16.4798 15.4236 16.0971 15.4236 15.8526V9.84656C15.6574 10.006 16.4228 10.9521 16.6248 10.9521C16.7949 10.9521 16.9012 10.8458 16.9012 10.6863C16.9012 10.5269 16.6673 10.3462 16.5291 10.208L15.6681 9.34694C15.0621 8.74102 15.211 8.78353 14.2224 9.77214L13.5845 10.4206C13.5101 10.495 13.4251 10.5588 13.4251 10.6863" fill="white"/>
<path fill-rule="evenodd" clip-rule="evenodd" d="M12.9467 2.50101C12.9467 2.95811 13.0955 3.26639 13.3613 3.53214C14.2542 4.42508 15.7637 3.7979 15.7637 2.50101C15.7637 1.77815 15.0834 1.1297 14.4137 1.1297C13.9779 1.1297 13.6589 1.24665 13.3613 1.54429C13.1487 1.7569 12.9467 2.08643 12.9467 2.50101ZM14.2755 1.66121C14.5838 1.66121 14.7539 1.68246 14.9771 1.91633C15.4555 2.39469 15.2535 3.09631 14.7645 3.34081C14.0629 3.6916 13.2231 3.01124 13.542 2.21397C13.6483 1.93759 13.9778 1.66121 14.2755 1.66121Z" fill="white"/>
<path fill-rule="evenodd" clip-rule="evenodd" d="M1.2 10.6969C1.2 10.8138 1.26377 10.8776 1.32755 10.9308C1.35945 10.952 1.40197 10.9733 1.44449 10.9945C2.03978 11.356 2.69886 11.7068 3.29415 12.0682L4.56978 12.8123C4.63356 12.8442 4.75049 12.9292 4.83554 12.9292C4.97373 12.9292 5.19696 12.7379 5.04814 12.504C5.01625 12.4509 5.00562 12.4509 4.95247 12.419L1.74213 10.5587C1.67835 10.5268 1.57204 10.4418 1.487 10.4418C1.34881 10.4418 1.21062 10.5693 1.21062 10.7075" fill="white"/>
<path fill-rule="evenodd" clip-rule="evenodd" d="M4.79309 14.173C5.0057 14.173 5.16515 13.9179 4.99507 13.7478C4.93129 13.6841 4.15529 13.2376 4.00647 13.1525L2.00798 11.9832C1.92294 11.9301 1.56151 11.7068 1.49773 11.7068C1.37017 11.7068 1.25324 11.7175 1.20009 11.8663C1.09378 12.1427 1.41268 12.249 1.62529 12.3766L2.76273 13.0356C3.37928 13.3971 4.03835 13.7585 4.64427 14.1305C4.68679 14.1518 4.75058 14.1837 4.80373 14.1837" fill="white"/>
</svg>
