<svg width="25" height="25" viewBox="0 0 25 25" fill="none" xmlns="http://www.w3.org/2000/svg">
<path fill-rule="evenodd" clip-rule="evenodd" d="M14.6505 5.3394V8.80332L13.8652 8.84636V6.11394C13.8652 5.90955 13.6931 5.74819 13.4994 5.74819H11.9288C11.4232 5.74819 11.5631 6.49046 11.5631 7.16819V8.99698C11.2404 8.78183 11.5308 8.79258 10.7778 8.79258V6.80244C10.7778 6.67335 10.5626 6.52273 10.412 6.52273H8.84142C8.68006 6.52273 8.46492 6.67335 8.46492 6.80244V8.79258H3.84994C3.84994 8.44834 3.90373 8.01804 3.3551 8.01804H1.21435C0.945411 8.01804 0.719513 8.16865 0.719513 8.42683V17.5922C0.719513 17.8934 0.988443 18.001 1.30041 18.001H3.32283C4.03282 18.001 3.8607 17.291 3.8607 16.495C4.07585 16.6133 4.34478 16.8392 4.55994 16.9898C4.95796 17.291 4.89343 17.2265 5.56039 17.2265C5.40979 17.4416 4.97948 17.7428 4.97948 18.4098C4.97948 18.8186 5.17312 19.1843 5.37752 19.3995C5.7863 19.8083 6.0122 19.8728 6.53931 19.8728C6.53931 20.3892 6.63614 20.6474 7.00189 21.0024C7.24932 21.239 7.59356 21.4219 8.06689 21.4219C8.06689 22.2502 8.77689 22.9279 9.39006 22.9279H9.63748C9.63748 23.8638 10.3045 24.477 11.122 24.477C12.0364 24.477 12.23 23.8316 12.7249 23.4981C13.2197 23.8316 13.4241 24.477 14.3278 24.477C15.1453 24.477 15.8123 23.8638 15.8123 22.9279C16.3717 22.9279 16.5761 22.8419 16.9741 22.4546C17.2215 22.2179 17.3721 21.8845 17.3721 21.4219C18.2112 21.4219 18.8997 20.7657 18.8997 20.0342V19.8728C19.4268 19.8728 19.6312 19.819 20.04 19.4102C20.4918 18.9692 20.5886 18.3022 20.2874 17.7213C20.1798 17.5062 20.0077 17.3986 19.8894 17.2157C20.6962 17.2157 20.481 17.2803 21.2126 16.7316C21.3416 16.6348 21.4277 16.5595 21.5783 16.4842C21.5783 18.2699 21.2556 17.9902 24.1386 17.9902C24.4506 17.9902 24.7195 17.8827 24.7195 17.5814V8.41606C24.7195 8.15788 24.4936 8.00727 24.2247 8.00727H22.0839C21.5353 8.00727 21.5891 8.43757 21.5891 8.78181H16.9741V5.31789C16.9741 5.10274 16.7697 4.95214 16.5653 4.95214H15.0808C14.8764 4.95214 14.672 5.10274 14.672 5.31789M9.25021 7.29727H9.99248V8.80332H9.25021V7.29727ZM15.4358 5.79123H16.178V8.80332H15.4358V5.79123ZM12.3376 9.73925V6.52273H13.0799V9.08302C13.0799 9.20135 12.897 9.27666 12.7141 9.4165C12.5635 9.52408 12.4775 9.64243 12.3376 9.73925ZM12.9185 10.3524C13.209 9.91134 13.8222 9.57786 14.5644 9.57786H21.5676V15.4407C21.5676 15.559 21.4708 15.5806 21.2986 15.6989C20.0723 16.5918 20.6424 16.4197 19.0933 16.4197C18.975 16.4197 18.2865 15.6774 18.1574 15.559C17.7486 15.1502 17.5227 14.9136 16.8235 14.9136C16.049 14.9136 15.4035 15.5913 15.382 16.4197C15.1561 16.4734 14.984 16.4627 14.7796 16.5487C14.1879 16.8177 13.8652 17.248 13.8652 17.958C13.3703 17.958 13.0046 18.1193 12.7249 18.4098C12.499 18.6465 12.3161 19.023 12.3053 19.464C12.1225 19.507 11.9288 19.507 11.7567 19.5716C10.5841 20.0234 10.8423 21.0777 10.7455 21.2605C10.724 21.3036 10.4551 21.551 10.4013 21.6048C10.1538 21.8522 9.97097 22.1427 9.54067 22.1427C9.11037 22.1427 8.88446 21.8414 8.88446 21.4111C8.88446 20.8195 10.0355 20.2708 10.0355 19.862C10.0355 19.6684 9.72354 19.2812 9.34702 19.5824C8.78763 20.0342 8.48643 20.6904 7.92704 20.6043C7.59356 20.5505 7.32462 20.3031 7.32462 19.9373C7.32462 19.2489 8.47567 18.8186 8.47567 18.313C8.47567 18.0978 8.30356 17.9472 8.06689 17.9472C7.84099 17.9472 7.53976 18.3237 7.31386 18.5496C7.06643 18.797 6.88357 19.0875 6.45327 19.0875C6.02297 19.0875 5.79706 18.7863 5.79706 18.356C5.79706 17.9902 6.10903 17.7859 6.30266 17.5922C6.52857 17.3771 6.7222 17.1834 6.93735 16.9575C7.26008 16.6348 10.5949 13.3 10.7778 13.1816L12.0472 14.408C12.4667 14.8168 12.8432 15.2901 13.6608 15.2901C14.629 15.2901 15.4358 14.4941 15.4358 13.5366C15.4358 12.6438 14.8226 12.2135 14.3493 11.7509L12.9185 10.3201V10.3524ZM6.32417 16.4197H5.13008C5.05478 16.4197 4.12964 15.7096 3.97904 15.6021C3.90373 15.5375 3.84994 15.559 3.84994 15.4407V9.57786H10.9391C11.079 9.57786 11.5738 10.1373 11.6922 10.2556L13.919 12.4501C14.1126 12.6438 14.5106 12.9772 14.5859 13.2569C14.8549 14.2144 13.8652 14.7845 13.1875 14.3972C12.7894 14.1713 11.2296 12.3748 10.9391 12.2565C10.5949 12.1167 10.2614 12.5792 10.0678 12.7728L6.73296 16.0754C6.6469 16.1615 6.45327 16.4089 6.33493 16.4089L6.32417 16.4197ZM16.2103 16.4197C16.2103 15.9356 16.5546 15.6881 16.8665 15.6881C17.3183 15.6881 17.9638 16.4734 18.3833 16.8822C18.62 17.1189 18.8244 17.3233 19.0611 17.5492C19.4483 17.9364 19.6312 17.958 19.6312 18.5389C19.6312 18.8401 19.3085 19.109 18.932 19.109C18.5555 19.109 18.3188 18.7755 18.1144 18.5712L16.7589 17.2265C16.5438 17.0221 16.2103 16.8069 16.2103 16.4197ZM1.49405 8.84636H3.02162V17.1942H1.49405V8.84636ZM22.3959 8.84636H23.9235V17.1942H22.3959V8.84636ZM14.6505 17.9257C14.6505 17.7321 14.7365 17.5707 14.8334 17.4524C15.0055 17.248 15.2206 17.2372 15.4358 17.2372C15.7908 17.2372 16.6406 18.1946 16.9096 18.4636C17.1462 18.7002 17.3506 18.9046 17.5873 19.1305C17.7917 19.3349 18.1144 19.5716 18.1144 19.9589C18.1144 20.3784 17.6733 20.7657 17.157 20.5828C16.9311 20.4967 15.6617 19.1736 15.382 18.9154C15.1561 18.6895 14.6505 18.3237 14.6505 17.9257ZM13.1229 19.4748C13.1229 18.9907 13.4672 18.7433 13.7791 18.7433C14.1556 18.7433 14.4138 19.0552 14.6182 19.2596L15.9737 20.6043C16.3609 20.9916 16.5438 21.0131 16.5438 21.594C16.5438 21.8952 16.2211 22.1642 15.8446 22.1642C15.4681 22.1642 15.2314 21.8307 15.027 21.6263L13.6715 20.2816C13.4564 20.0772 13.1229 19.8621 13.1229 19.4748ZM11.5523 20.9808C11.5523 20.7872 11.6384 20.6258 11.7352 20.5075C11.9073 20.3031 12.1225 20.2924 12.3376 20.2924C12.6926 20.2924 13.5425 21.2498 13.8114 21.5187C14.2309 21.9382 15.0162 22.5622 15.0162 23.014C15.0162 23.4336 14.5752 23.8316 14.0588 23.6379C13.8329 23.5519 12.5635 22.2287 12.2838 21.9705C12.0579 21.7446 11.5523 21.3789 11.5523 20.9808ZM16.9526 1.55277H18.308C18.1359 1.81095 17.4689 2.40261 17.2 2.66079C16.2533 3.59669 16.5761 3.4676 15.7478 3.4676H12.4129C11.8858 3.4676 11.789 3.42457 11.4985 3.70427C11.122 4.07002 10.7563 4.42501 10.3905 4.80152C10.2614 4.93061 10.2829 4.97365 10.0355 4.97365H8.30354C7.74415 4.97365 7.59356 5.28561 6.99114 5.87727L5.87235 7.00683L6.39948 7.54471C6.60387 7.48016 7.90552 6.11394 8.10992 5.90954C8.27128 5.74818 8.23901 5.7697 8.55098 5.78046H10.2399C10.6594 5.75894 10.724 5.60834 10.9499 5.38244C11.1005 5.23183 12.0041 4.30668 12.0902 4.26365C12.3053 4.14531 15.9414 4.26365 16.5546 4.23138C16.8665 4.22062 17.0279 3.94093 17.2 3.76881L18.8997 2.11214V3.45683H19.685V1.17625C19.685 0.950339 19.5021 0.767456 19.2762 0.767456H16.9633V1.542L16.9526 1.55277ZM10.4013 23.014C10.4013 22.7451 10.5519 22.5514 10.7025 22.4116C10.8531 22.261 11.0144 22.0673 11.1866 21.9598L12.144 22.9279C11.9934 23.1538 11.5308 23.6057 11.2619 23.6702C10.8316 23.7778 10.4013 23.4658 10.4013 23.014Z" fill="#176BB2"/>
</svg>
