<svg width="16" height="17" viewBox="0 0 16 17" fill="none" xmlns="http://www.w3.org/2000/svg">
<path fill-rule="evenodd" clip-rule="evenodd" d="M10.4979 10.6069C10.4979 10.9569 9.99789 11.2269 9.63789 10.9869C9.29789 10.7669 9.3779 10.3269 9.3779 9.8269C9.3779 9.5069 9.3479 8.9569 9.8979 8.9169C10.4179 8.8769 10.4279 9.4669 10.9379 9.2869C11.0879 9.2369 11.2279 9.06689 11.2379 8.87689C11.2479 8.63689 11.1179 8.51689 10.9979 8.40689C9.97789 7.45689 8.61789 8.15689 8.43789 9.24689C8.38789 9.51689 8.3979 10.3469 8.4279 10.6369C8.5279 11.8069 9.9279 12.5169 10.9579 11.6469C11.1779 11.4569 11.4079 11.0969 11.4579 10.7169C11.6279 9.49689 11.0679 9.64689 10.3779 9.65689C9.7579 9.65689 9.7179 10.2069 9.9279 10.4369C10.0879 10.6169 10.2079 10.5969 10.4979 10.6069ZM6.2879 3.6969C5.2579 3.6969 4.16789 3.57689 3.32789 3.99689C2.63789 4.33689 2.07789 4.93689 1.82789 5.74689C1.69789 6.14689 1.6379 6.66691 1.5579 7.08691C1.4779 7.55691 1.3979 8.00691 1.3079 8.48691C1.1479 9.38691 0.977899 10.3369 0.817899 11.2369C0.657899 12.1069 0.367899 13.1969 0.567899 14.0669C0.757899 14.8969 1.35789 15.5869 1.96789 15.9169C2.87789 16.4169 3.69789 16.2969 4.83789 16.2969H11.3579C12.4879 16.2969 13.3379 16.4169 14.2379 15.9269C14.8579 15.5869 15.4479 14.9269 15.6479 14.0869C15.8579 13.2069 15.5679 12.1269 15.4079 11.2569C15.3079 10.6969 14.5479 6.19691 14.4079 5.76691C14.1579 4.94691 13.6179 4.3669 12.9179 4.0069C12.0879 3.5769 10.9779 3.7069 9.94789 3.6969C9.96789 3.6269 10.1079 3.4069 10.1879 3.1969C10.7279 1.8369 9.73789 0.18689 8.10789 0.18689C6.31789 0.18689 5.4079 2.10689 6.1279 3.43689C6.1779 3.52689 6.2379 3.5969 6.2679 3.6969H6.2879ZM7.99789 1.14691C8.74789 1.06691 9.3279 1.62691 9.3979 2.26691C9.4779 3.01691 8.93789 3.60691 8.27789 3.67691C7.53789 3.75691 6.9379 3.21692 6.8679 2.55692C6.7879 1.79692 7.3179 1.22691 8.0079 1.14691H7.99789ZM4.4279 4.65689C4.8379 4.61689 5.47789 4.65689 5.91789 4.65689C6.81789 4.65689 11.5579 4.62691 11.9179 4.67691C12.3379 4.73691 12.7179 4.94691 12.9479 5.14691C13.5579 5.69691 13.5879 6.29689 13.7679 7.31689C14.0579 8.98689 14.3679 10.6969 14.6679 12.4069C14.7479 12.8469 14.8679 13.3069 14.7679 13.7769C14.6879 14.1769 14.4679 14.5469 14.2479 14.7569C13.9679 15.0169 13.6979 15.2069 13.2879 15.2969C12.8979 15.3869 12.2879 15.3469 11.8579 15.3469H5.83789C5.14789 15.3469 3.44789 15.4269 2.89789 15.2769C2.18789 15.0769 1.6179 14.4969 1.4879 13.7069C1.3879 13.1469 1.7279 11.6769 1.8379 11.0569C1.9179 10.5869 2.63789 6.30691 2.75789 5.98691C2.99789 5.33691 3.5779 4.7569 4.4279 4.6669V4.65689ZM4.79789 8.49689V11.4769C4.79789 11.9869 5.3179 12.1969 5.6179 11.8669C5.8479 11.6169 5.72789 10.9069 5.74789 10.5269L7.0379 11.8369C7.1179 11.9169 7.1479 11.9769 7.2879 12.0069C7.6779 12.1069 8.0079 11.7269 7.8479 11.3669C7.7579 11.1569 6.72789 10.2169 6.58789 10.0069C6.62789 9.8869 6.8579 9.69691 7.0079 9.54691C7.1579 9.38691 7.2879 9.25689 7.4279 9.09689C7.5579 8.96689 7.75789 8.8069 7.83789 8.6369C8.05789 8.1969 7.48789 7.68691 7.05789 8.11691C6.89789 8.27691 6.7779 8.39692 6.6279 8.55692C6.4679 8.72692 5.87789 9.37691 5.74789 9.45691C5.72789 9.06691 5.84789 8.33689 5.60789 8.09689C5.29789 7.79689 4.79789 7.98689 4.79789 8.49689Z" fill="white"/>
</svg>
