<svg width="21" height="23" viewBox="0 0 21 23" fill="none" xmlns="http://www.w3.org/2000/svg">
<path d="M19.5531 21.5529H13.896C13.7362 21.5529 13.587 21.489 13.4805 21.3825C13.3739 21.2759 13.31 21.1268 13.31 20.9776V19.273C13.31 19.1132 13.3739 18.9641 13.4805 18.8682C13.587 18.7616 13.7362 18.6977 13.896 18.6977H19.5531C19.7129 18.6977 19.8621 18.7616 19.9686 18.8682C20.0751 18.9747 20.139 19.1132 20.139 19.273V20.9776C20.139 21.1374 20.0751 21.2866 19.9686 21.3825C19.8621 21.489 19.7129 21.5529 19.5531 21.5529ZM14.7057 15.6081C14.8655 15.6081 15.0146 15.6721 15.1211 15.7786C15.2276 15.8851 15.2916 16.0343 15.2916 16.1834C15.2916 16.3326 15.2276 16.4924 15.1211 16.5883C15.0146 16.6948 14.8655 16.7587 14.7057 16.7587H4.31826V17.7708C4.31826 17.9307 4.2543 18.0798 4.14777 18.1757C4.04123 18.2822 3.89213 18.3461 3.73232 18.3461C3.57251 18.3461 3.42335 18.2822 3.31681 18.1757C3.21027 18.0692 3.14631 17.92 3.14631 17.7708V16.7587H2.11293C1.95313 16.7587 1.80396 16.6948 1.69742 16.5883C1.59088 16.4817 1.52696 16.3432 1.52696 16.1834C1.52696 16.0236 1.59088 15.8745 1.69742 15.7786C1.80396 15.6721 1.95313 15.6081 2.11293 15.6081H3.14631V5.30596C3.14631 5.14615 3.21027 4.99702 3.31681 4.89048C3.42335 4.78394 3.57251 4.72002 3.73232 4.72002C3.89213 4.72002 4.04123 4.78394 4.14777 4.89048C4.2543 4.99702 4.31826 5.13549 4.31826 5.2953V12.8275L5.68191 11.2721L5.70324 11.2401C5.82043 11.1229 5.9696 11.059 6.11875 11.0696C6.2679 11.0696 6.417 11.1229 6.53419 11.2401L8.29209 12.9873L9.25095 10.0256C9.25095 10.0256 9.28291 9.92969 9.31487 9.87642C9.31487 9.87642 9.37877 9.78055 9.42138 9.74858C9.53857 9.64205 9.69841 9.58876 9.84756 9.59942C9.99671 9.59942 10.1459 9.67398 10.2524 9.79117L11.7226 11.4106L13.5337 7.87352L13.555 7.83089C13.6296 7.70305 13.7361 7.62849 13.864 7.58588C14.0025 7.54326 14.1623 7.54326 14.3115 7.61784L14.3541 7.63913C14.4713 7.72436 14.5565 7.83089 14.5991 7.95873C14.6417 8.09723 14.6417 8.25704 14.5672 8.39554L14.5458 8.43816L12.3938 12.6357L12.3725 12.689C12.2979 12.8275 12.1701 12.9341 12.0316 12.9767C11.9144 13.0193 11.7865 13.0193 11.6586 12.9767H11.648L11.6054 12.9553L11.5628 12.9767L11.4243 12.8168L10.0606 11.3147L9.11245 14.2445C9.05918 14.3936 8.95262 14.5108 8.82477 14.5854C8.69693 14.6493 8.54775 14.6706 8.3986 14.628L8.34534 14.6812L8.14292 14.4788L6.15068 12.4972L4.31826 14.5854V15.5868H14.7057V15.6081ZM12.234 21.6168C12.3938 21.6168 12.543 21.6808 12.6495 21.7873C12.756 21.8938 12.8199 22.0323 12.8199 22.1921C12.8199 22.352 12.756 22.5011 12.6495 22.597C12.543 22.7035 12.3938 22.7675 12.234 22.7675H0.86643C0.706624 22.7675 0.557488 22.7035 0.450951 22.597C0.344413 22.4905 0.280487 22.352 0.280487 22.1921V1.34277C0.280487 1.18296 0.344413 1.0338 0.450951 0.93792C0.557488 0.831382 0.706624 0.767456 0.86643 0.767456H11.371C11.4563 0.767456 11.5308 0.788783 11.6054 0.820744C11.68 0.852705 11.7439 0.895326 11.7971 0.959248L17.4223 6.20087L17.5076 6.28612H17.5182L17.5289 6.30741H17.5395V6.32871H17.5928L17.6141 6.40329H17.6674V14.5747C17.6674 14.7345 17.6035 14.8837 17.4969 14.9796C17.3904 15.0861 17.2412 15.15 17.0814 15.15C16.9216 15.15 16.7724 15.0861 16.6659 14.9796C16.5594 14.873 16.4955 14.7345 16.4955 14.5641V7.25561H11.3604C11.2006 7.25561 11.0514 7.19169 10.9449 7.08515C10.8383 6.97861 10.7744 6.84011 10.7744 6.6803V1.92874H1.44174V21.6275H12.2233L12.234 21.6168ZM14.4819 20.3917H18.9565V19.8377H14.4819V20.3917ZM11.68 2.03525V6.37133H16.3356L11.68 2.03525Z" fill="#176BB2"/>
</svg>
