<svg width="25" height="21" viewBox="0 0 25 21" fill="none" xmlns="http://www.w3.org/2000/svg">
<path opacity="0.9" fill-rule="evenodd" clip-rule="evenodd" d="M2.31365 5.10887C2.31365 8.26779 5.57037 11.1627 5.73663 11.7788C3.3112 11.7788 1.87354 13.5881 2.36254 15.6712L0.719513 16.7372C0.758633 16.9133 1.08137 17.4414 1.18895 17.6174L2.15717 19.3485C2.34299 19.6517 2.4799 19.9451 2.64616 20.258H3.67306C3.72196 20.082 3.8491 20.0233 3.96646 19.8961C4.35766 19.4658 4.52391 19.2311 5.02268 18.8595C6.41144 17.8424 8.48479 17.9695 9.80508 19.1138C10.744 19.9255 11.8589 20.483 13.2085 20.2287C13.9029 20.1016 14.7831 19.6614 15.3503 19.6614C16.475 19.6614 17.7562 20.1602 18.9102 18.6346C19.1156 18.3607 19.2819 17.9402 19.7904 17.8424C20.2403 17.7544 20.6217 18.1651 20.9249 18.3607L22.2354 17.7152C22.3625 18.2727 22.519 18.5954 22.5581 19.2507C22.5972 19.8571 22.2452 19.7592 23.8784 19.7592C23.9567 19.7592 24.0154 19.7299 24.0154 19.6712C24.0154 17.9891 23.2329 16.3754 22.5973 14.8106C22.519 14.615 22.4212 14.3411 22.3234 14.1553H21.3845C21.453 14.0184 21.4726 13.9108 21.5606 13.7739C22.3234 12.4341 22.0105 11.7397 22.4408 11.1627C22.5777 10.9768 22.5973 10.9475 22.7537 10.8693L23.0862 11.6517C23.184 11.8864 23.2916 12.2091 23.409 12.4438L24.7195 11.9353C24.7 11.7592 24.5044 11.3485 24.4457 11.192L22.3723 6.10645C21.9029 6.21403 21.5704 6.24334 21.1694 6.44872C20.387 6.83014 20.0154 7.192 19.497 7.85704C19.2623 8.16021 19.1254 8.50253 18.9004 8.79593C18.4799 9.36317 17.854 9.85215 17.2378 10.214C16.2109 10.8204 15.1743 10.9671 14.9591 11.0649L14.5875 9.67612C13.9713 9.6859 12.1132 10.4879 11.6046 10.7519C10.744 11.2116 9.98112 11.8962 8.68039 11.8962C8.83687 11.6614 9.04225 11.4267 9.21829 11.1822L10.3136 9.76414C10.5092 9.50986 10.6657 9.27514 10.8515 9.0013C12.4652 6.615 12.876 3.80814 10.6755 1.62721C10.0398 1.0013 9.21828 0.56121 8.30875 0.355831C7.25251 0.121112 6.07893 0.267808 5.19873 0.688345C3.54592 1.4903 2.29409 3.02574 2.29409 5.13821M3.77085 5.20668C3.77085 4.3656 3.95668 3.73969 4.40656 3.10399C4.4848 2.98663 4.50436 2.97686 4.59238 2.86928C4.6804 2.75193 4.70972 2.71281 4.80752 2.62479C6.16694 1.40229 8.32831 1.25557 9.68772 2.60521C11.5361 4.43406 10.7342 6.83016 9.33564 8.66879C9.15961 8.90351 9.02269 9.10888 8.83687 9.33382L7.78064 10.703C7.63394 10.8888 7.39922 11.2507 7.23296 11.368C6.92 10.9084 6.55814 10.4683 6.21584 10.0086C5.18894 8.659 3.76108 7.02575 3.76108 5.20668H3.77085ZM19.9469 14.3216C19.9469 14.8693 20.1229 15.2018 20.3185 15.5734H21.3943C21.4139 15.857 21.6486 16.1211 21.6779 16.4047C21.1107 16.6981 21.1205 16.747 20.8858 16.6394C19.8197 16.1602 18.9591 16.4243 18.1767 17.1969C17.6975 17.6663 17.7171 18.302 16.7097 18.302C15.8882 18.302 15.2819 18.1553 14.4995 18.3411C13.4237 18.5954 12.563 19.3583 11.2036 18.3803C10.8222 18.1064 10.5484 17.8228 10.1474 17.5783C8.24029 16.3754 5.86376 16.483 4.06425 17.8033C3.80019 17.9989 3.39922 18.4096 3.26231 18.4487C3.22319 18.2629 2.7244 17.4316 2.60704 17.1969C2.88087 17.1284 3.82954 16.346 4.10338 16.2678C3.95668 15.6517 3.73174 15.7984 3.73174 14.7813C3.73174 13.7641 4.60215 13.2067 5.6975 13.2067C6.35276 13.2067 7.05692 13.3436 7.9958 13.3436C9.27697 13.3436 10.2061 13.1089 11.0765 12.6786L12.2599 11.994C12.9347 11.6125 13.0129 11.6615 13.5801 11.3974C13.6486 11.5441 13.8931 12.4145 13.9127 12.6003C14.5875 12.6003 15.8198 12.2873 16.475 12.0722C17.8149 11.6321 19.3601 10.6737 20.1327 9.51964C20.4261 9.08932 20.7195 8.51229 21.1009 8.16021C21.2281 8.04285 21.4139 7.90594 21.5606 7.8277C21.6779 8.06242 21.7855 8.38515 21.8833 8.61987C21.9909 8.88393 22.0985 9.19689 22.2158 9.45117C21.8051 9.72501 21.5997 9.90105 21.3063 10.3118C21.052 10.6737 20.8955 11.0453 20.788 11.5636C20.6804 12.1015 20.6608 12.5416 20.4066 12.9426C20.1718 13.3143 19.9664 13.7446 19.9664 14.3118L19.9469 14.3216Z" fill="#176BB2"/>
</svg>
