<svg width="25" height="21" viewBox="0 0 25 21" fill="none" xmlns="http://www.w3.org/2000/svg">
<path fill-rule="evenodd" clip-rule="evenodd" d="M0.686188 2.94022V14.5132C0.686188 15.1162 1.03529 15.7827 1.50074 16.1741L1.65942 16.301C1.97678 16.5337 2.49513 16.7559 2.88654 16.7559H20.8279V2.59113C20.8279 2.59113 20.8173 2.52766 20.7644 2.52766H5.38309C5.38309 2.25261 5.06574 1.71312 4.87532 1.48039C4.7378 1.32171 4.50506 1.09955 4.31464 0.993763C3.91265 0.782191 3.60589 0.634094 3.08754 0.634094C2.93943 0.634094 2.69612 0.665827 2.56918 0.697563C1.86041 0.8774 1.24685 1.31111 0.929491 1.97757C0.813126 2.23145 0.696761 2.5594 0.696761 2.91908M1.64884 12.4821V3.39511C1.64884 2.90849 1.62768 2.56998 1.93446 2.16799C2.02966 2.04105 2.18835 1.89295 2.33645 1.80832C2.80191 1.53328 3.44721 1.55443 3.91266 1.87179C4.19829 2.07278 4.36755 2.33725 4.46276 2.66518C4.52623 2.88733 4.50506 3.10948 4.50506 3.37395V12.5033C3.9444 12.133 3.66936 12.0272 2.93944 12.0272C2.55861 12.0272 2.24123 12.1648 1.93446 12.3235C1.88156 12.3552 1.84984 12.3658 1.79694 12.4081C1.75463 12.4398 1.72289 12.4715 1.65942 12.4927L1.64884 12.4821ZM21.2827 4.929C21.2827 5.19347 21.5049 5.40504 21.7693 5.40504V17.6974H4.89647C4.6849 17.6974 4.42043 17.5916 4.28291 17.507C4.10307 17.4012 3.96555 17.2213 3.75398 17.2213C3.38372 17.2213 3.12984 17.6339 3.33084 17.9618C3.45778 18.1628 3.90208 18.4061 4.13481 18.5014C4.74837 18.7658 5.78508 18.6706 6.64195 18.6706H22.7531C22.7531 18.6706 22.7743 18.6283 22.7743 18.5754V4.51644C22.7743 4.51644 22.7637 4.45297 22.7108 4.45297H21.7482C21.5155 4.45297 21.3039 4.6857 21.3039 4.929H21.2827ZM23.7052 7.28803V19.6015H7.01219C6.6102 19.6015 6.29284 19.4957 6.0178 19.263C5.57349 18.9033 5.17152 19.2947 5.17152 19.5169C5.17152 19.7919 5.19268 19.8554 5.43599 20.0352C5.51004 20.0881 5.54176 20.1199 5.62639 20.1728C5.70044 20.2151 5.76391 20.2574 5.83796 20.2997C6.11301 20.4372 6.50441 20.5536 6.92756 20.5536H24.6679V6.33596H23.7052C23.0599 6.33596 23.0494 7.28803 23.7052 7.28803ZM15.6443 6.93893C15.528 7.02356 15.4539 7.13993 15.3376 7.22456L14.4066 8.09201C14.3537 8.14491 14.3114 8.18722 14.2585 8.24011C14.1951 8.30358 14.1633 8.31415 14.0998 8.37762C13.9941 8.48341 13.8989 8.57862 13.8036 8.67382L13.3276 9.09698C13.2641 9.14987 13.2218 9.20276 13.1584 9.24508C13.0843 9.13929 12.2169 8.293 12.0265 8.07085L12.0053 8.04969C12.0053 8.04969 12.0053 8.0497 12.0053 8.03912L10.8522 6.8543C10.7888 6.79083 10.8522 6.82257 10.7676 6.78026C10.5983 6.88605 10.1435 7.37265 9.94246 7.53133L9.29717 8.14489C9.22312 8.21894 9.15964 8.26126 9.07501 8.34589L7.81617 9.5307C7.67865 9.64707 7.53054 9.83748 7.39302 9.92211L7.55171 10.1019C7.61518 10.1654 7.66806 10.2077 7.72095 10.2712C7.82674 10.3876 7.92195 10.5251 8.05947 10.6097C8.12295 10.5674 8.16527 10.5145 8.22874 10.451L8.39798 10.3029C8.46145 10.25 8.50378 10.1971 8.55667 10.1442C8.58841 10.1125 8.60957 10.0914 8.6413 10.0702L9.07501 9.6788C9.19138 9.5836 9.29718 9.45664 9.40296 9.35085L10.1223 8.68441C10.1223 8.68441 10.1329 8.67382 10.1646 8.64209C10.3021 8.52572 10.4291 8.36705 10.5772 8.25069C10.6512 8.19779 10.6936 8.13433 10.757 8.09201C10.884 8.27185 11.0532 8.41994 11.2119 8.57862C11.2225 8.5892 11.2331 8.59979 11.2542 8.62094C11.286 8.65268 11.3071 8.67382 11.3388 8.70556C11.3917 8.75845 11.4341 8.80077 11.4869 8.85366L11.6245 9.01235C11.7197 9.11813 11.8255 9.21333 11.9418 9.31912L12.5342 9.94327C12.5871 9.99616 12.6294 10.0385 12.6823 10.0914L12.7352 10.1548C12.8516 10.2712 13.0526 10.451 13.1266 10.5674C13.1689 10.5357 13.1795 10.5145 13.2218 10.4828L16.2579 7.65829C16.2579 7.65829 16.3214 7.59482 16.3637 7.56308C16.4589 7.71118 17.1571 8.35646 17.3581 8.55746C17.3898 8.58919 17.4956 8.72672 17.4956 8.59978V5.8705C17.4956 5.77529 17.284 5.80703 17.1888 5.80703H14.6076C14.6499 5.94455 15.5385 6.70622 15.6549 6.88605L15.6443 6.93893ZM7.39302 12.5456V13.4554H17.4215C17.4215 13.4554 17.485 13.4448 17.485 13.3919V12.535C17.485 12.535 17.4744 12.4716 17.4215 12.4716H7.45649C7.45649 12.4716 7.39302 12.4821 7.39302 12.535V12.5456ZM1.64884 14.4286C1.64884 13.6035 2.25182 12.9793 3.07695 12.9793C3.90208 12.9793 4.50506 13.6035 4.50506 14.3863H5.48887V3.51148H19.844V15.8038H3.02407C2.63266 15.8038 2.30471 15.6346 2.05082 15.3912C1.82867 15.1797 1.62768 14.8517 1.62768 14.4286H1.64884Z" fill="#176BB2"/>
</svg>
