<svg width="25" height="15" viewBox="0 0 25 15" fill="none" xmlns="http://www.w3.org/2000/svg">
<path fill-rule="evenodd" clip-rule="evenodd" d="M0.281387 8.35575C0.281387 8.51117 0.263125 8.59346 0.391121 8.70317C0.546543 8.84945 1.04938 8.9683 1.27795 9.0323L3.1613 9.58999C3.2893 9.6357 3.45386 9.6357 3.56357 9.5717C3.67328 9.5077 3.71899 9.40714 3.78299 9.36143C3.8287 9.37057 3.80128 9.37057 3.84699 9.39799L4.34982 9.69056L4.69724 9.90083C4.7978 9.96483 4.76123 10.1568 4.77952 10.2482C4.78866 10.3488 4.78867 10.3397 4.81609 10.4219C4.89838 10.6871 5.13609 10.9888 5.39208 11.1076L5.53833 11.1716C5.60233 11.1899 5.62978 11.2082 5.70292 11.2174C5.86748 11.2356 6.03204 11.2082 6.09604 11.3362C6.10518 11.3636 6.11433 11.3819 6.13262 11.4093C6.2149 11.6288 6.35204 11.8116 6.53489 11.9487C6.54403 11.9579 6.55315 11.9579 6.56229 11.9762C6.63543 12.031 6.71772 12.0768 6.8 12.1133C6.83657 12.1316 6.84574 12.1316 6.88231 12.1499C6.91888 12.159 6.92798 12.1682 6.95541 12.1773L7.22058 12.2322C7.33943 12.2505 7.5314 12.2322 7.65025 12.2322C7.65939 12.2687 7.66857 12.287 7.68686 12.3236L7.78741 12.4882C8.05254 12.9179 8.48224 13.1281 8.98508 13.1281C9.09479 13.1281 9.14961 13.1099 9.24104 13.1007C9.27761 13.1739 9.31418 13.2013 9.3599 13.2744C9.38732 13.311 9.39647 13.3293 9.4239 13.3658C9.43304 13.3841 9.44222 13.3841 9.46051 13.4024L9.49706 13.4481C9.64334 13.6218 9.80793 13.7681 10.0365 13.823C10.3839 13.9144 10.7221 13.8778 11.033 13.695C11.2616 13.567 11.225 13.631 11.4444 13.7315C11.4718 13.7407 11.4627 13.7407 11.4901 13.759C11.5175 13.7681 11.5267 13.7773 11.545 13.7864L12.1027 13.9875C12.1575 14.0058 12.1575 14.0058 12.2307 14.015L12.4867 14.0698C12.6878 14.1247 13.0169 14.0972 13.2181 14.0424C13.5198 13.951 13.602 13.9144 13.8763 13.7681C13.8946 13.7681 13.8946 13.759 13.9129 13.7498C14.0866 13.6401 14.0774 13.6493 14.2694 13.7315C14.5711 13.8687 14.8271 13.8961 15.1563 13.8504C15.3483 13.823 15.586 13.7224 15.7323 13.5853C15.842 13.4756 15.9059 13.4207 15.9882 13.3019C16.0156 13.2653 16.0248 13.2653 16.0431 13.2196L16.1985 12.9636C16.6374 13.1921 17.1585 13.183 17.5699 12.8904L17.9539 12.5156C17.9539 12.5156 17.9904 12.4516 18.0087 12.4242L18.1001 12.2139C18.1459 12.0859 18.1641 11.9579 18.1641 11.8208C18.6761 11.8208 18.9139 11.8208 19.2796 11.4551C19.3801 11.3545 19.4624 11.2539 19.5173 11.1259L19.5904 10.9157C19.6361 10.7328 19.6178 10.4494 19.5721 10.2757C19.5447 10.1843 19.4989 10.102 19.4715 10.0105C19.5538 9.89169 19.7184 9.82769 19.8281 9.73626C19.9652 9.61741 20.1298 9.52599 20.2761 9.41628C20.3035 9.398 20.3126 9.37971 20.3401 9.36143C20.3675 9.34314 20.3858 9.334 20.4224 9.31571C20.4589 9.29743 20.459 9.27915 20.4864 9.26086C20.5229 9.24258 20.532 9.23343 20.5595 9.21515C20.596 9.18772 20.6144 9.17858 20.6418 9.16029C20.7241 9.22429 20.7972 9.37056 20.8612 9.45285L20.9618 9.55341C20.9618 9.55341 20.9801 9.5717 21.0075 9.58084C21.2086 9.69055 21.364 9.61741 21.5469 9.53512L23.86 8.46545C23.86 8.46545 23.8874 8.45632 23.9057 8.44718C23.9331 8.42889 23.9239 8.43802 23.9514 8.41974C24.1891 8.31003 24.2805 8.21861 24.2805 7.94434C24.2805 7.83463 24.2348 7.77976 24.1982 7.70662L23.6588 6.65524C23.5857 6.50896 23.5125 6.37181 23.4485 6.23468L22.1412 3.70221C22.068 3.55593 22.004 3.41879 21.9218 3.28165L21.6566 2.76053C21.6566 2.76053 21.6383 2.72395 21.6292 2.70566L21.0349 1.55371C21.0349 1.55371 21.0258 1.52629 21.0075 1.49886L20.8429 1.16973C20.8063 1.09659 20.7698 1.0326 20.7332 0.959455C20.6966 0.895457 20.6418 0.840604 20.5686 0.804034C20.5321 0.785749 20.5138 0.767456 20.4589 0.767456C20.3858 0.767456 20.3675 0.767456 20.3218 0.767456C20.2578 0.767456 20.2395 0.767455 20.1938 0.794882L20.139 0.822309C20.0292 0.877164 19.8189 1.0143 19.7092 1.09659L18.3196 1.97427C18.3196 1.97427 18.2647 2.01084 18.2281 2.02913L18.1276 2.09312C18.027 2.15712 18.0087 2.14797 17.8807 2.16626C17.6887 2.20283 17.4693 2.19369 17.2682 2.21198L16.6739 2.26683C16.5002 2.28511 16.2533 2.32169 16.0979 2.28512C16.0248 2.26683 15.9517 2.21197 15.8968 2.16626L14.9734 1.65428C14.7083 1.53543 14.4249 1.41658 14.1415 1.36173C14.0958 1.36173 14.0683 1.34343 14.0226 1.33429C13.922 1.30686 13.6661 1.28859 13.5655 1.28859H12.9529C12.7792 1.28859 12.6512 1.316 12.4775 1.33429C12.4044 1.33429 12.3404 1.36172 12.2672 1.37087C12.1758 1.38001 12.1392 1.3983 12.0478 1.41658C11.9198 1.43487 11.7735 1.48972 11.6547 1.54458L11.5267 1.59943C11.5267 1.59943 11.5267 1.59943 11.481 1.62685C11.2981 1.71828 10.8684 2.00169 10.6856 2.12054C10.6581 2.13883 10.6399 2.14797 10.6033 2.16626C10.457 2.26683 10.1645 2.48625 10.0182 2.48625C9.92676 2.48625 9.8353 2.46797 9.75302 2.45883C9.48789 2.44054 9.17706 2.43139 8.92107 2.39482C8.84793 2.38568 8.73824 2.3674 8.65596 2.3674L8.09823 2.32168C8.0068 2.31254 7.90624 2.3034 7.82396 2.29425L6.7086 2.20284C6.61718 2.20284 6.49833 2.20284 6.42519 2.20284C6.31548 2.18455 6.30631 2.14798 6.23317 2.08398C6.02289 1.8737 5.97719 1.89198 5.70292 1.76399L3.6367 0.849735C3.399 0.730883 3.13387 0.740034 2.98759 0.986881C2.96931 1.01431 2.96015 1.05087 2.94186 1.0783L2.10989 3.36393C2.08246 3.44621 2.05504 3.51935 2.02761 3.58335C2.00933 3.62907 2.00935 3.63821 1.99106 3.68392L1.68022 4.56161C1.51565 5.03702 1.33278 5.51243 1.16821 5.98784L0.875673 6.80152C0.875673 6.80152 0.857389 6.82895 0.848246 6.85637L0.436822 8.00833C0.436822 8.00833 0.436832 8.02661 0.418547 8.06318C0.400262 8.10889 0.400254 8.12719 0.381969 8.1729C0.363684 8.22775 0.29969 8.33746 0.29969 8.40146M3.143 8.69402L1.40593 8.1729C1.30536 8.14547 1.36936 8.1729 1.29622 8.12718C1.29622 8.02662 1.3602 7.9169 1.39678 7.82548L1.71677 6.92952C1.81734 6.65524 2.01846 6.05183 2.10989 5.84155C2.12818 5.79584 2.12818 5.77756 2.14647 5.74099L2.53959 4.65302C2.6493 4.38789 2.74987 4.0222 2.85958 3.75706C2.87787 3.72049 2.87788 3.72049 2.89616 3.66563L3.54527 1.86456C3.54527 1.86456 3.57272 1.79141 3.591 1.76399C3.64586 1.76399 3.67327 1.77313 3.71898 1.79141L5.31892 2.49539C5.47434 2.55939 5.38294 2.64167 5.36465 2.77881C5.33722 2.99823 5.27321 3.2268 5.23664 3.44622C5.23664 3.49193 5.23665 3.51021 5.21837 3.55593L5.09036 4.09533C5.09036 4.09533 5.07207 4.14104 5.06293 4.1959C5.05379 4.24161 5.04465 4.25989 5.03551 4.3056L4.98065 4.4976C4.93494 4.6896 4.86181 4.90902 4.78867 5.10101C4.76124 5.17415 4.75209 5.22901 4.72466 5.30215C4.70638 5.33872 4.70637 5.34785 4.68809 5.39357L4.61496 5.58557C4.54182 5.74099 4.44124 6.05183 4.34982 6.24383L3.54527 7.93518C3.54527 7.93518 3.54527 7.95347 3.51784 7.9809C3.49956 8.00833 3.51785 7.9809 3.49042 8.02662L3.30759 8.37404C3.28016 8.42889 3.25272 8.48375 3.21615 8.54775L3.17042 8.63002C3.143 8.68488 3.13386 8.66659 3.11557 8.72144L3.143 8.69402ZM18.667 2.7971C18.667 2.70567 18.7584 2.68739 18.8133 2.64167L19.1973 2.38569C19.1973 2.38569 19.2521 2.35826 19.2887 2.33083C19.3253 2.3034 19.3527 2.29426 19.3893 2.26683C19.5173 2.18455 19.6544 2.1114 19.7732 2.01998L20.0658 1.83713C20.0658 1.83713 20.1298 1.79142 20.1664 1.77314C20.1755 1.81885 20.1938 1.82799 20.2121 1.86456L22.3971 6.12497C22.3971 6.12497 22.4154 6.1524 22.4246 6.17069L22.8634 7.02093C22.9274 7.13979 23.2291 7.70663 23.2382 7.78891C23.1285 7.81634 22.4154 8.1729 22.2143 8.25518L22.0497 8.32832C22.0497 8.32832 22.0497 8.32832 22.0406 8.32832L21.556 8.55688C21.4738 8.59345 21.3823 8.66659 21.3092 8.58431L20.8887 7.96261C20.8429 7.88947 20.8063 7.81634 20.7515 7.7432L20.3218 6.99351C20.3218 6.99351 20.3218 6.97523 20.3035 6.95694L19.4715 5.21072C19.4715 5.21072 19.4716 5.19244 19.4533 5.17416L19.115 4.28733C19.115 4.28733 19.0875 4.1959 19.0692 4.15018L18.9778 3.88506C18.9413 3.79363 18.923 3.72048 18.8955 3.61992L18.8133 3.3365C18.7859 3.26336 18.6579 2.83366 18.6579 2.77881L18.667 2.7971ZM9.55191 6.93865C9.98161 6.93865 10.2102 6.93865 10.5942 6.73752L10.6856 6.6918C10.6856 6.6918 10.713 6.67352 10.7404 6.66438C10.7953 6.62781 10.8593 6.59124 10.905 6.55467C11.1153 6.39925 11.3256 6.22554 11.4901 6.01526C11.5724 5.9147 11.6547 5.81413 11.737 5.70442C11.7827 5.64042 11.8101 5.59471 11.8467 5.53071C11.865 5.49414 11.8741 5.48499 11.9015 5.44842C11.9564 5.36614 11.993 5.25643 12.0661 5.18329C12.185 5.07358 12.6604 5.07359 12.8523 5.14673L14.4706 6.51811L14.4889 6.53638C14.4889 6.53638 14.498 6.54553 14.5071 6.55467L14.5711 6.61867C14.6351 6.68267 14.6991 6.74667 14.7814 6.80152L15.9517 7.86206C16.034 7.9352 16.098 8.01747 16.1894 8.08147L16.4728 8.32832C16.4728 8.32832 16.4819 8.32832 16.5002 8.35575L17.4144 9.17857C17.4876 9.23342 17.5425 9.30657 17.6156 9.37057L17.9356 9.65398C17.9356 9.65398 17.963 9.67227 17.963 9.68141C17.9722 9.69055 17.9721 9.69055 17.9813 9.6997L18.027 9.74541C18.027 9.74541 18.0453 9.7637 18.0544 9.77284C18.0727 9.79112 18.0819 9.80027 18.1001 9.81855C18.1367 9.85512 18.1642 9.88255 18.2007 9.91912C18.3287 10.0288 18.4933 10.1751 18.5939 10.3031C18.8041 10.5682 18.7401 10.9888 18.3379 10.9888C18.1459 10.9888 17.9539 10.9157 17.7985 10.8151C17.5699 10.6688 17.3779 10.4768 17.1585 10.3031L15.8328 9.16943C15.778 9.11457 15.7323 9.08715 15.6683 9.04144L15.2294 8.67574L14.2694 7.86206C14.2146 7.81634 14.1597 7.77976 14.1049 7.73405H14.0866C13.9495 7.59691 13.7575 7.40493 13.5655 7.41407C13.1815 7.42321 12.9804 7.88947 13.2638 8.16375L14.69 9.3797C14.69 9.3797 14.7174 9.39799 14.7449 9.42542C14.7723 9.4437 14.7814 9.45284 14.8089 9.48027L15.138 9.75455C15.1837 9.79112 15.2111 9.80941 15.2477 9.85512L16.5734 10.9796C16.5734 10.9796 16.6465 11.0345 16.6831 11.0619C16.8111 11.1716 16.875 11.2174 17.0122 11.3454C17.1036 11.4276 17.1676 11.5191 17.2225 11.6379C17.3413 11.8939 17.195 12.1682 16.9573 12.287L16.9208 12.3053C16.6831 12.3967 16.4819 12.223 16.3082 12.095C16.2168 12.031 16.1345 11.9762 16.0522 11.903L15.8054 11.7019L15.5769 11.5191L14.9917 11.0254C14.9917 11.0254 14.9277 10.9614 14.8912 10.9339C14.5895 10.6871 14.2969 10.4494 14.0135 10.1842L13.7849 10.0014C13.7849 10.0014 13.7209 9.92826 13.6752 9.90083L13.3552 9.62656C13.3552 9.62656 13.2821 9.56255 13.2364 9.53512L12.9072 9.25171C12.9072 9.25171 12.8798 9.22428 12.8523 9.20599C12.8249 9.18771 12.8158 9.18772 12.7883 9.16029C12.7426 9.12372 12.7335 9.10543 12.6878 9.06886C12.6512 9.04143 12.6055 9.00486 12.5781 8.97743C12.5415 8.94086 12.5049 8.92258 12.4684 8.88601C12.249 8.66659 11.9655 8.44717 11.6547 8.68488C11.4444 8.85859 11.4901 9.17857 11.6638 9.35228L11.8924 9.54428L12.8432 10.3488C12.8432 10.3488 12.8706 10.3762 12.898 10.3945L13.7941 11.1534C13.9678 11.3088 14.3426 11.6105 14.5528 11.7842L14.818 12.0219C14.9369 12.1316 15.0923 12.2322 15.1928 12.3693C15.2203 12.415 15.2477 12.4516 15.266 12.5064C15.3117 12.6253 15.3391 12.7533 15.266 12.8722C15.266 12.8813 15.2294 12.9179 15.2203 12.927L15.1746 12.9727C15.1746 12.9727 15.0923 13.0367 15.0557 13.0459C14.7997 13.1373 14.562 13.0184 14.3609 12.863C14.3243 12.8356 14.3151 12.8264 14.2786 12.799C14.2511 12.7807 14.2329 12.7624 14.1963 12.7442L13.3735 12.0585C13.3186 12.0036 13.2821 11.9853 13.2181 11.9305L12.6055 11.4276C12.377 11.1991 12.1392 11.1991 11.8924 11.3636C11.7918 11.2173 11.7095 11.1534 11.5815 11.0436C11.545 11.0162 11.5541 11.0162 11.5084 10.9888L11.3347 10.9065C11.1061 10.8334 10.9507 10.8699 10.8776 10.6139C10.841 10.486 10.8044 10.3671 10.7404 10.2574C10.7221 10.23 10.7039 10.2117 10.6947 10.1842C10.6307 10.0837 10.5484 9.99226 10.457 9.91912C10.3382 9.8277 10.2102 9.74541 10.0547 9.69056C9.9816 9.66313 9.94506 9.65398 9.86278 9.63569C9.59765 9.58998 9.53362 9.58084 9.25934 9.63569C9.16792 9.65398 9.10391 9.69055 9.02163 9.70883C8.83878 9.43456 8.63767 9.206 8.30854 9.08715C7.81485 8.9043 7.5314 9.078 7.36684 9.078C7.2937 9.078 7.27541 9.03229 7.24798 8.98658C7.17484 8.88601 7.08344 8.80372 6.99202 8.72144C6.63546 8.41974 6.04119 8.40146 5.64807 8.63916L5.44693 8.78545L5.22749 9.04144C5.0995 9.19686 5.13609 9.19686 4.8801 9.04144L4.31324 8.7123C4.1761 8.63002 4.20354 8.61173 4.26754 8.49288C4.35896 8.31003 4.47782 8.12718 4.5601 7.93518C4.59667 7.8529 4.63325 7.7889 4.67896 7.70662L4.81609 7.42321C4.81609 7.42321 4.81609 7.42321 4.81609 7.41407L4.89837 7.24036C4.91666 7.19465 4.9258 7.17637 4.95323 7.13065C5.02637 6.98437 5.09036 6.81066 5.15436 6.65524C5.21836 6.49982 5.30064 6.33525 5.3555 6.17069C5.3555 6.14326 5.37377 6.12497 5.37377 6.10668L5.44693 5.93299C5.44693 5.93299 5.47435 5.85069 5.49263 5.79584C5.56577 5.58556 5.65719 5.38442 5.71204 5.165C5.72119 5.11015 5.73948 5.08272 5.74862 5.03701L5.90406 4.51589C5.96805 4.34219 6.0229 4.03133 6.06861 3.83934L6.20577 3.12623C6.2332 2.94338 6.48001 3.05308 6.736 3.05308L7.35768 3.11709C7.54968 3.14452 7.79654 3.13536 7.99767 3.16279C8.10738 3.18108 8.18969 3.18108 8.30854 3.18108C8.39997 3.18108 8.53707 3.20851 8.61936 3.21766L9.25934 3.26336C9.24106 3.42792 9.14965 3.64735 9.10394 3.82105L9.03078 4.10448C9.0125 4.16848 9.02162 4.19591 9.01248 4.2599C9.01248 4.30562 8.97591 4.36047 8.95762 4.39704C8.88448 4.54332 8.82049 4.59817 8.72906 4.70788L8.54626 4.98216L8.39994 5.31129C8.38166 5.36614 8.38168 5.40272 8.36339 5.45757C8.34511 5.51243 8.33594 5.53986 8.33594 5.60385C8.33594 5.68614 8.32679 5.71356 8.32679 5.76841C8.31765 5.90555 8.37253 6.13411 8.41825 6.25296L8.5005 6.40839C8.55535 6.49067 8.61022 6.56381 8.68336 6.62781L8.90277 6.78323C8.90277 6.78323 8.92109 6.78324 8.93938 6.80152C9.10394 6.8838 9.35076 6.9478 9.53361 6.9478L9.55191 6.93865ZM9.76217 6.07012C9.60675 6.07012 9.34163 6.07011 9.25934 5.95126C9.10392 5.74098 9.3325 5.29301 9.50621 5.14673C9.71649 4.97302 9.79878 4.78103 9.86278 4.51589C9.88107 4.46104 9.87189 4.37875 9.89018 4.3056C9.89932 4.25075 9.91759 4.16848 9.93588 4.10448C9.94502 4.05877 9.94505 4.04963 9.96333 4.00391C10.0273 3.72964 10.137 3.47365 10.3839 3.31823L10.9781 2.92509C11.1518 2.80624 11.8832 2.33997 12.0386 2.26683L12.6604 2.14798C12.9164 2.10227 13.5198 2.05655 13.7941 2.13883L14.242 2.26683L14.7265 2.4771L15.2385 2.76967C15.5219 2.93423 15.7414 3.15365 16.0979 3.15365C16.2625 3.15365 16.6465 3.08051 16.9208 3.08051C17.1219 3.08051 17.2773 3.04394 17.4785 3.0348C17.8076 3.0348 17.7893 2.87024 17.899 3.2908C17.9082 3.33651 17.9173 3.36393 17.9264 3.40964L18.4842 5.11015C18.4842 5.11015 18.5024 5.17414 18.5299 5.21986C18.5939 5.36614 18.6396 5.50328 18.7036 5.64042L19.1699 6.67353C19.2064 6.74667 19.2338 6.80152 19.2704 6.87466L20.139 8.41974C20.0567 8.54773 19.8829 8.6026 19.7732 8.70317C19.6727 8.78545 19.4258 8.95916 19.3161 9.0323L19.2704 9.06886C19.2156 9.11457 18.9687 9.30656 18.9138 9.30656C18.8316 9.30656 18.7584 9.20601 18.7127 9.16029L18.5207 9.00487C18.3927 8.88602 18.1001 8.5843 17.9904 8.49288C17.9447 8.45631 17.9356 8.45631 17.899 8.41974L17.4328 7.99919C17.3139 7.88948 17.2407 7.84377 17.067 7.67006C17.0305 7.63349 17.0122 7.62434 16.9756 7.59692C16.8751 7.51463 16.7928 7.41407 16.6922 7.34093C16.6008 7.26779 16.5185 7.16722 16.4271 7.08494L15.8694 6.5821C15.6408 6.39925 15.4305 6.19811 15.2111 6.00611C15.1471 5.95126 15.1014 5.88727 15.0374 5.83242C14.9186 5.72271 14.7815 5.62213 14.6626 5.51242L14.4706 5.33871C14.4706 5.33871 14.4158 5.293 14.3792 5.26557C14.1598 5.07358 13.9403 4.87245 13.7117 4.69874C13.6752 4.67131 13.6569 4.65303 13.6203 4.61646C13.4558 4.47932 13.282 4.36047 13.0718 4.28733C12.8158 4.18676 12.4958 4.21419 12.2307 4.2599C12.1849 4.2599 12.1484 4.25989 12.1118 4.27818C12.0661 4.28732 12.0295 4.29646 11.9838 4.3056C11.8924 4.32389 11.8467 4.33304 11.7552 4.35132C11.7187 4.35132 11.6912 4.3696 11.6455 4.37875C11.5815 4.39703 11.5815 4.37875 11.5267 4.41532C11.3621 4.50675 11.2981 4.72617 11.2067 4.88159L11.1335 5.00044C11.0238 5.17415 10.8959 5.33871 10.7679 5.49413C10.7039 5.56727 10.6307 5.6587 10.5576 5.71356C10.5301 5.73184 10.5119 5.75012 10.4753 5.77755L10.2741 5.92383C10.2741 5.92383 10.2376 5.94212 10.2193 5.95126C10.1827 5.96955 10.1645 5.9787 10.1187 5.98784C10.009 6.03355 9.88106 6.06098 9.74392 6.06098L9.76217 6.07012ZM5.99546 10.3854C5.85832 10.3854 5.79433 10.3305 5.72119 10.2574C5.5292 10.0745 5.67549 9.92826 5.7852 9.75455C5.89491 9.58084 5.92235 9.56255 6.02291 9.40713C6.05034 9.37056 6.07775 9.334 6.11432 9.31571C6.36116 9.18772 6.5989 9.39799 6.5989 9.63569C6.5989 9.73626 6.35201 10.0471 6.27887 10.1477C6.22402 10.23 6.11431 10.3762 5.99546 10.3762V10.3854ZM7.39429 11.3819C7.22058 11.3819 7.13829 11.3454 7.03772 11.2448C6.89144 11.0985 6.85484 10.9248 6.95541 10.7419C6.98284 10.6779 7.0286 10.6414 7.06517 10.5865L7.48569 9.98311C7.54055 9.90997 7.63198 9.85512 7.72341 9.84598C7.90626 9.80941 8.07082 9.84598 8.18053 9.97398C8.39995 10.2483 8.19883 10.4585 8.02513 10.7237L7.58625 11.3179C7.58625 11.3179 7.43999 11.3819 7.38514 11.3819H7.39429ZM9.02163 12.2687C8.82964 12.2687 8.88451 12.287 8.75652 12.2322L8.59196 12.1225C8.29025 11.8116 8.56454 11.5648 8.71997 11.3088L8.91192 11.0162C8.91192 11.0162 8.92107 11.0071 8.92107 10.9979L9.14049 10.6779C9.56104 10.0928 10.3839 10.6414 9.95418 11.2448C9.92675 11.2814 9.91761 11.2996 9.89018 11.3362C9.86275 11.3728 9.85361 11.3819 9.83533 11.4185L9.36905 12.0767C9.28677 12.1865 9.16792 12.2779 9.03078 12.2779L9.02163 12.2687ZM10.4022 13.0276C10.329 13.0276 10.2742 13.0093 10.2193 12.9727C10.0822 12.8996 10.009 12.6802 10.1279 12.5156L10.6124 11.8299C10.6581 11.7751 10.6582 11.7385 10.713 11.7019C10.9599 11.5373 11.2433 11.7568 11.2342 11.967C11.2342 12.0402 11.1335 12.2139 11.0787 12.2779C11.0513 12.3144 11.033 12.3327 11.0056 12.3784C10.8867 12.5613 10.7587 12.5064 10.6307 12.6344C10.4204 12.8356 10.585 13.0367 10.393 13.0367L10.4022 13.0276ZM12.0936 12.0767C12.1393 12.1133 12.2032 12.159 12.249 12.1956C12.2672 12.2047 12.2672 12.2139 12.2855 12.2322L12.5049 12.415L13.2729 13.0367C13.2729 13.0367 13.2912 13.0367 13.3095 13.0824C13.0443 13.2196 12.9712 13.2196 12.6695 13.2196C12.5689 13.2196 12.4958 13.1921 12.3952 13.1739L11.7095 12.8813L11.8284 12.7076C11.9472 12.543 12.0936 12.2779 12.0936 12.0585V12.0767Z" fill="#176BB2"/>
</svg>
