<svg width="20" height="14" viewBox="0 0 20 14" fill="none" xmlns="http://www.w3.org/2000/svg">
<path fill-rule="evenodd" clip-rule="evenodd" d="M9.82001 0.0918711C8.96001 0.271871 8.09001 0.511866 7.23001 0.711866C6.37001 0.911866 5.50002 1.11186 4.65002 1.33186C4.16002 1.46186 3.79001 1.47187 3.54001 1.81187C3.22001 2.25187 3.44 2.64186 3.66 3.02186C4.08 3.75186 4.47002 4.35186 4.93002 4.95186C6.58002 7.09186 8.83 8.94186 11.63 9.49187C12.44 9.65187 12.26 9.66187 12.9 9.37187L18.39 6.87187C18.58 6.78187 19.39 6.44186 19.47 6.33186C19.62 6.13186 19.51 5.89187 19.34 5.81187C19.24 5.77187 18.75 5.75186 18.6 5.73186C16.45 5.47186 14.47 4.57186 13.04 3.27186C11.56 1.92186 11.31 0.921854 10.98 0.511854C10.77 0.251854 10.32 -0.0181289 9.82001 0.0918711ZM17.89 6.30186C17.85 6.37186 17.9 6.31186 17.83 6.36186L13.18 8.48186C13 8.56186 12.37 8.89185 12.2 8.88185C11.63 8.85185 10.52 8.47186 10.06 8.27186C7.55 7.18186 5.79001 5.21187 4.42001 2.96187C4.11001 2.45187 3.9 2.20186 4.28 2.11186C4.66 2.02186 5.02001 1.93187 5.39001 1.84187L9.80002 0.781874C10.32 0.651874 10.43 0.881855 10.61 1.23186C11.35 2.68186 12.5 3.86186 13.91 4.77186C14.96 5.45186 16.45 6.05185 17.88 6.29185L17.89 6.30186ZM0.0200195 12.1019C0.41002 12.1419 1 12.1019 1.41 12.1019H11.85C12.19 12.1019 12.16 12.1019 12.42 11.9819C13.16 11.6619 19.09 9.06186 19.16 8.99187H17.5C17.32 8.99187 16.96 9.20187 16.79 9.28187L13.48 10.8619C13.18 11.0119 12.4 11.4418 12.1 11.4418C9.73001 11.4418 7.45 11.1319 5.38 10.5019C5.13 10.4219 4.89 10.3419 4.66 10.2719C4.51 10.2219 4.16 10.4219 4 10.4819C3.55 10.6519 3.12001 10.8419 2.67001 11.0219C2.49001 11.0919 0.14001 12.0219 0.0100098 12.1019H0.0200195ZM0 13.0819H12.14V12.3619H0V13.0819ZM12.32 13.0619C12.48 13.0319 17.1 10.9119 17.5 10.7319C17.76 10.6219 19.08 10.0319 19.21 9.95186V9.26185C19.12 9.26185 16.07 10.6619 15.74 10.8119C15.16 11.0819 14.58 11.3419 14.01 11.6019L12.71 12.1918C12.63 12.2318 12.57 12.2519 12.49 12.2919C12.35 12.3519 12.33 12.3418 12.31 12.4118V13.0719L12.32 13.0619ZM11.86 10.7919C12.38 10.7919 12.43 10.7019 12.99 10.4219C13.27 10.2819 13.56 10.1519 13.85 10.0119C14.52 9.70185 18.95 7.59185 18.98 7.54185C18.77 7.54185 18.56 7.54187 18.34 7.53187C17.99 7.53187 18.05 7.52186 17.78 7.64186L15.06 8.88185C14.45 9.16185 13.87 9.42186 13.26 9.70186C12.14 10.2119 12.34 10.2619 11.23 10.0019C8.85001 9.43188 7.13001 8.15187 5.57001 6.46187C5.41001 6.29187 5.07 5.93187 4.97 5.74187C4.86 5.76187 3.49001 6.39187 3.26001 6.50187C2.99001 6.63188 1.30001 7.35187 1.17001 7.49187C1.04001 7.64187 1.08 7.82187 1.19 7.93187C1.33 8.07187 1.74001 8.28187 1.95001 8.40187C2.45001 8.69187 3.07003 8.98186 3.62003 9.20186C6.23003 10.2419 8.96002 10.7919 11.86 10.7919Z" fill="white"/>
</svg>
