<svg width="16" height="17" viewBox="0 0 16 17" fill="none" xmlns="http://www.w3.org/2000/svg">
<path fill-rule="evenodd" clip-rule="evenodd" d="M0.279846 7.97414C0.279846 9.17688 0.372367 9.73198 0.732162 10.8216C0.773281 10.945 0.814405 11.0581 0.865804 11.1609C1.10224 11.7365 1.35924 12.1992 1.71903 12.7131C1.79099 12.8159 1.84239 12.8982 1.92463 12.9804L2.2433 13.3711C2.2433 13.3711 2.30498 13.4533 2.35638 13.4944C2.43862 13.5766 2.52086 13.6589 2.6031 13.7411C2.68534 13.8234 2.75729 13.8953 2.83953 13.9776L3.09653 14.1934C3.40492 14.4813 4.14508 14.9644 4.51515 15.1495C4.83383 15.3037 5.17305 15.4784 5.51228 15.5915C6.60194 15.9513 7.16735 16.0438 8.37009 16.0438C9.29527 16.0438 10.2924 15.8074 11.1148 15.4681L11.7727 15.1597C12.5951 14.7485 13.3044 14.1626 13.9315 13.5047C13.9829 13.4533 13.9931 13.4224 14.0445 13.3813C14.4866 12.9393 14.9903 12.0758 15.2781 11.5001C15.3295 11.3973 15.3809 11.274 15.4221 11.1712C15.7613 10.3282 16.008 9.37219 16.008 8.41616C16.008 7.55265 15.9874 7.13118 15.7818 6.29852C15.7099 6.02096 15.6482 5.82564 15.566 5.56864C15.4529 5.21913 15.2884 4.89017 15.1239 4.5715C15.0623 4.45842 15.0109 4.36591 14.9595 4.26311C14.8361 4.04724 14.723 3.87247 14.5791 3.67715C14.5071 3.57436 14.4557 3.49212 14.3735 3.40988C14.0548 3.01925 14.0651 3.00896 13.695 2.64917C13.6128 2.56693 13.5408 2.49498 13.4586 2.41274L12.9446 1.98099C12.8521 1.90903 12.7699 1.83707 12.6671 1.77539C12.4717 1.64176 12.297 1.52868 12.0914 1.40532C11.9886 1.34364 11.8961 1.29224 11.783 1.24084C11.6699 1.18944 11.5671 1.12776 11.454 1.07636C10.6008 0.654883 9.31582 0.346497 8.3598 0.346497C7.49629 0.346497 7.07482 0.367042 6.24216 0.572639C5.97488 0.644597 5.76928 0.706283 5.51228 0.788522C5.23472 0.881041 4.60766 1.15859 4.36094 1.31279C4.00115 1.52866 3.69276 1.70343 3.35352 1.98099C2.88065 2.37162 2.80869 2.42301 2.35638 2.8856C2.21246 3.0398 1.83211 3.52297 1.71903 3.68744C1.534 3.95472 1.32839 4.27338 1.18448 4.5715C1.13308 4.68457 1.07139 4.78738 1.02 4.90046C0.834959 5.29109 0.629366 5.8976 0.526568 6.30879C0.40321 6.79194 0.30041 7.39846 0.30041 7.98441M2.02742 8.20029C2.02742 7.33679 2.24331 6.45271 2.57226 5.68172C2.71618 5.34248 2.93205 4.99297 3.12737 4.70514C3.3124 4.43786 3.39464 4.3659 3.53855 4.17058L4.21703 3.5024C4.28898 3.44072 4.36095 3.38932 4.43291 3.33792C4.75158 3.0912 5.25528 2.7828 5.62536 2.62861C5.8104 2.54637 5.98517 2.4847 6.1702 2.41274L7.41406 2.13518C7.51685 2.1249 7.66077 2.10434 7.76357 2.10434C7.90748 2.10434 7.97945 2.08378 8.12337 2.08378C8.5654 2.08378 9.06911 2.15574 9.49059 2.23798C9.69618 2.2791 9.90178 2.34079 10.0868 2.40246C10.3027 2.47442 10.4363 2.54637 10.6316 2.61833C10.8167 2.69029 10.9709 2.78281 11.1354 2.87533C11.3307 2.98841 11.6391 3.18373 11.8241 3.32764L12.4409 3.8622C13.1296 4.55095 13.7464 5.56866 13.9931 6.5144C14.0959 6.89475 14.1268 7.04894 14.1782 7.47042C14.2707 8.11805 14.2193 8.93016 14.0651 9.54695C13.8904 10.246 13.7773 10.5544 13.4278 11.202C13.2838 11.4693 13.0063 11.8599 12.8007 12.1066L12.6157 12.3122C12.5437 12.3842 12.5026 12.4459 12.4306 12.5075C11.9577 12.9804 11.2176 13.5047 10.6214 13.7514C9.90177 14.0392 9.64478 14.1317 8.82239 14.2448C8.06168 14.3476 7.46545 14.2757 6.73558 14.1317C6.31411 14.0495 5.97487 13.9056 5.59452 13.7514C5.17305 13.5766 4.54598 13.1757 4.18619 12.8673L3.60024 12.3019C3.34325 12.0449 2.96288 11.5001 2.7984 11.202C2.57225 10.7805 2.47974 10.5955 2.32554 10.1535C2.1919 9.79366 2.09938 9.28994 2.04798 8.90959L1.99658 8.19L2.02742 8.20029Z" fill="white"/>
<path fill-rule="evenodd" clip-rule="evenodd" d="M7.37296 3.45102V9.1769C7.37296 9.60865 7.52715 9.90676 7.86638 10.0815C7.97946 10.1432 8.12338 10.174 8.28786 10.174C8.6271 10.174 9.0794 9.81424 9.41863 9.61893L11.0017 8.64235C11.1868 8.52927 11.3512 8.42648 11.5363 8.3134C11.6699 8.22088 11.9578 8.06668 12.0503 7.97416C12.1325 7.89192 12.1736 7.8508 12.2353 7.748C12.5334 7.26485 12.1942 6.44246 11.4643 6.44246C11.1765 6.44246 11.012 6.5761 10.827 6.68918L9.42892 7.54241C9.3364 7.60409 9.24389 7.66577 9.14109 7.71717C9.14109 7.60409 9.16165 3.31738 9.14109 3.14263C9.12053 3.01927 9.08968 2.94732 9.03828 2.86508C8.82241 2.46417 8.27758 2.27912 7.86638 2.50528C7.77386 2.55668 7.66079 2.63892 7.59911 2.71087C7.44492 2.90619 7.38323 3.10151 7.38323 3.44075" fill="white"/>
</svg>
