<svg width="36" height="36" viewBox="0 0 36 36" fill="none" xmlns="http://www.w3.org/2000/svg">
<path fill-rule="evenodd" clip-rule="evenodd" d="M14.9441 6.13246C14.9441 5.73972 14.8698 4.74193 15.6765 4.74193H20.3576C21.2492 4.74193 21.2492 6.25983 20.8565 6.70564C20.7079 6.87548 20.5168 6.93917 20.209 6.93917H15.8145C15.2519 6.93917 14.9335 6.56766 14.9335 6.13246M35.6427 25.6422V25.7802C35.6215 26.1517 35.4623 26.5126 35.1863 26.7462C34.8891 26.9903 34.5706 27.0646 34.0293 27.054H25.389L28.5309 31.8094C28.7326 32.1172 29.4862 33.115 29.4862 33.4971C29.4862 35.1742 27.7454 35.4502 27.0448 34.41C26.5247 33.6351 22.2682 27.3937 22.1727 27.0646H19.3174V33.8686C19.3174 34.4524 18.6062 35.0362 18.0011 35.0362C17.343 35.0362 16.6849 34.4312 16.6849 33.8686V27.0646H14.1268C14.0418 27.3724 12.991 28.816 12.7362 29.1875L9.22279 34.463C8.74513 35.1424 7.75796 35.2273 7.19538 34.6541C6.83448 34.2826 6.80264 33.9854 6.80264 33.5077C6.80264 32.9345 10.3692 28.0836 10.8999 27.0646H2.12156C1.54837 27.0646 1.26178 27.0646 0.900881 26.8205C0.210927 26.3534 0.168461 25.207 0.826571 24.6763C1.36792 24.2411 2.30203 24.3579 3.06629 24.3579V8.9878C3.06629 6.93917 4.39312 5.46373 5.88979 4.85869C7.20601 4.32796 10.7831 4.52964 12.439 4.52964C12.4921 3.93522 13.2139 3.07543 13.6173 2.77822C14.7 1.9715 15.3899 2.03519 16.6849 2.03519V1.59999C16.6849 0.379297 19.3174 -0.25758 19.3174 2.03519C20.6017 2.03519 21.366 1.96089 22.4169 2.82067C22.8521 3.17096 23.5102 3.91399 23.5632 4.52964C25.5269 4.52964 28.7857 4.2855 30.1762 4.86931C31.6198 5.48496 32.936 6.97101 32.936 8.9878V24.3579H34.1036C35.1332 24.3579 35.6109 25.0054 35.6427 25.6529V25.6422ZM18.6698 16.8108C18.4788 16.6728 17.5341 15.2186 17.2581 14.8577C16.8123 14.2633 16.4089 13.2974 15.4536 13.2974C14.9016 13.2974 13.7553 14.0828 13.2351 14.3694C12.5133 14.7728 11.8552 15.1868 11.1334 15.5583L9.03173 16.7577C7.66244 17.5114 7.24847 17.6069 7.24847 18.7852C7.24847 19.2734 7.85351 19.8785 8.34178 19.8785C9.32895 19.8785 9.2971 19.6662 10.3904 19.0717L13.4687 17.3203C13.7446 17.1611 13.9994 17.0337 14.2648 16.8745C14.4664 16.7577 14.8486 16.503 15.0715 16.4393L17.1201 19.369C17.9799 20.579 19.2749 19.56 20.3151 18.9762L22.3638 17.8829C22.6079 17.7449 22.8202 17.6706 23.0431 17.5326C23.2873 17.3946 23.4677 17.2885 23.7543 17.1505L27.8516 14.9533C29.2527 14.2102 28.8493 12.7879 27.9471 12.4163C27.3208 12.151 26.9812 12.3951 26.4823 12.6393C26.0364 12.8622 25.6649 13.0851 25.1873 13.3186C24.9113 13.4566 24.8052 13.5521 24.5292 13.6901L18.6486 16.8108H18.6698ZM5.79427 8.8392C5.79427 8.23416 6.16577 7.80957 6.5479 7.5442C7.06802 7.17269 7.46074 7.23638 8.28869 7.23638C9.67921 7.23638 11.0698 7.23638 12.4603 7.23638C12.5983 7.84141 13.1927 8.58444 13.6385 8.9135C14.1586 9.30624 14.8592 9.65653 15.7508 9.65653H20.2833C21.8118 9.65653 23.2979 8.44645 23.5739 7.24699C24.9431 7.24699 26.3018 7.24699 27.6711 7.24699C28.4672 7.24699 28.9449 7.18331 29.4438 7.52298C29.8153 7.77773 30.2399 8.25539 30.2399 8.84981V24.2836H5.80486V8.84981L5.79427 8.8392Z" fill="#1A1A18"/>
</svg>
