<svg width="38" height="29" viewBox="0 0 38 29" fill="none" xmlns="http://www.w3.org/2000/svg">
<path fill-rule="evenodd" clip-rule="evenodd" d="M25.6889 3.89791H29.0252V0.561535H25.6889V3.89791ZM24.8817 9.4083H29.5419V4.74816H24.8817V9.4083ZM20.2538 9.46213H23.5902V6.12575H20.2538V9.46213ZM21.4377 13.2936H24.7741V9.9572H21.4377V13.2936ZM16.8098 13.8748H19.705V10.9796H16.8098V13.8748ZM15.1955 17.4802H18.2412V14.4344H15.1955V17.4802ZM19.2206 17.1573H22.2664V14.1115H19.2206V17.1573ZM24.2037 16.7591H27.54V13.4227H24.2037V16.7591ZM28.2396 15.5644H33.7608V10.0433H28.2396V15.5644ZM12.5156 26.553C12.5586 26.2624 12.8385 26.0686 12.9999 25.8534C13.269 25.509 13.2259 25.4659 13.7856 25.4659H21.1148C21.6637 25.4659 21.6422 25.4982 21.9113 25.8426C22.0619 26.0364 22.331 26.2839 22.3848 26.5422H12.5156V26.553ZM14.6681 27.5001C14.9264 27.048 15.0986 27.1664 15.7443 27.1772C16.8098 27.1772 19.6511 27.0265 20.157 27.3279C20.1354 27.9198 19.8879 27.7799 18.8762 27.7799H15.4753C15.0125 27.7799 14.9694 27.8552 14.6789 27.4893L14.6681 27.5001ZM13.8717 6.73922H16.0242C16.8852 6.73922 17.6493 6.73922 18.2197 6.73922H19.3498V5.53383H16.6807C16.1856 5.53383 15.6475 5.53383 15.0986 5.53383H13.8717C12.0313 5.55536 10.2017 5.57686 9.17925 5.57686C8.08147 5.57686 5.24016 5.39391 4.51907 5.79212C3.88409 6.14728 3.91638 6.7177 3.91638 7.64327V19.9125C3.91638 20.7304 3.89485 21.5699 3.91638 22.3879C3.92714 22.9153 3.92715 22.8399 3.65809 23.1628L1.94686 25.2077C1.53788 25.7243 1.24727 26.1009 0.816774 26.5637C0.849062 27.4139 1.53787 28.3826 2.44192 28.3826H32.3509C33.0397 28.3826 33.4379 28.0059 33.7392 27.5216C34.202 26.7897 34.0406 26.5422 33.5778 26.0148C32.8782 25.2184 32.254 24.4005 31.5221 23.5502C30.984 22.9152 30.941 23.0013 30.9517 22.0542L30.9733 17.4371C30.9733 17.2327 30.9948 17.0927 30.9625 17.0174V16.4793H29.1867V17.2757V18.4165V19.6542V19.9986C29.1867 21.1394 29.0791 21.7636 27.8198 21.7636H7.09132C5.27246 21.7636 5.67067 20.5798 5.67067 18.6318V9.34373C5.67067 8.13833 5.42311 7.19125 6.35945 6.8038C6.80071 6.62083 10.5138 6.67465 13.8394 6.70694V6.72845L13.8717 6.73922ZM30.2522 7.08363H37.1832V0.152588H30.2522V7.08363Z" fill="#1A1A18"/>
</svg>
