<svg width="21" height="21" viewBox="0 0 21 21" fill="none" xmlns="http://www.w3.org/2000/svg">
<path d="M11.085 20.5465H10.3796C5.01807 20.3637 0.728302 15.9586 0.728302 10.5509C0.728302 5.14326 5.20617 0.546509 10.7327 0.546509C16.2593 0.546509 20.7372 5.02437 20.7372 10.5509C20.7372 16.0775 16.4474 20.3637 11.085 20.5456V20.5465ZM10.7327 20.1987C5.40757 20.1987 1.08497 15.8761 1.08497 10.5518C1.08497 5.22755 5.40757 0.903176 10.7327 0.903176C16.0579 0.903176 20.3796 5.22045 20.3796 10.5509C20.3796 15.8814 16.0615 20.1978 10.7327 20.1978V20.1987Z" fill="#176BB2"/>
<path d="M20.1374 10.4915C20.1374 15.6978 15.9151 19.9193 10.7053 19.9193C5.49544 19.9193 1.27754 15.6978 1.27754 10.4915C1.27754 5.28523 5.49899 1.06378 10.7053 1.06378C15.9116 1.06378 20.1374 5.28523 20.1374 10.4915Z" fill="#FEFEFE"/>
<path fill-rule="evenodd" clip-rule="evenodd" d="M4.20366 8.94862V10.7302L7.61507 12.1453H7.6195C7.62838 12.1489 7.6195 12.1453 7.64257 12.1542V12.1489C7.78897 12.195 7.98504 12.1906 8.16427 12.1134C8.32929 12.0397 8.46238 11.8978 8.48012 11.6777C8.48544 11.6689 8.48544 11.6414 8.48544 11.5864C8.48012 11.3211 8.40293 11.0922 8.27872 10.9085C8.23791 10.85 8.20064 10.7985 8.15983 10.7577C8.11902 10.7071 8.07288 10.6619 8.02763 10.6202C7.89455 10.5013 7.75259 10.4134 7.61596 10.3593L4.20455 8.94862H4.20366ZM2.54099 14.4938V6.65512L7.61418 8.70197C7.99392 8.84836 8.40116 9.0959 8.77202 9.42595C8.90954 9.54927 9.04174 9.68236 9.16595 9.82432C9.2946 9.97515 9.4126 10.1313 9.51818 10.291C9.88993 10.8544 10.0771 11.5136 10.0816 12.2181C10.0816 12.2784 10.0771 12.36 10.0683 12.4567C9.99906 13.1665 9.68764 13.588 9.2254 13.7938C8.77202 13.9961 8.2175 13.9961 7.77388 13.8621L7.76945 13.8577C7.73218 13.8488 7.67806 13.8266 7.60442 13.7991L4.20277 12.3884L4.20721 15.1264L2.54099 14.4947V14.4938Z" fill="#176BB2"/>
<path fill-rule="evenodd" clip-rule="evenodd" d="M13.2276 8.4953L14.8991 7.83076L8.98305 5.38111L9.5562 5.15221C9.91287 5.02356 10.3937 4.99605 10.8063 5.06526C10.8879 5.07945 10.966 5.09276 11.0352 5.11051C11.0947 5.12825 11.163 5.15221 11.2322 5.17882C11.2641 5.19302 11.2588 5.18858 11.2686 5.19302L16.3418 7.2585L18.0089 6.59396L12.9312 4.52405L12.9179 4.51961C12.8629 4.49654 12.8354 4.48323 12.8177 4.4788C12.6296 4.40161 12.4193 4.32797 12.1851 4.26764C11.9606 4.20819 11.7273 4.15762 11.4939 4.11681C10.313 3.92871 8.95732 3.99792 7.95829 4.35458L7.92192 4.36789L5.04639 5.51686L5.01445 5.52573C4.98251 5.54436 5.00115 5.53549 4.98251 5.54436H4.97275C4.79886 5.62155 4.65246 5.70939 4.51938 5.8061C4.39162 5.89748 4.29047 5.99419 4.2124 6.09888C3.81403 6.62058 4.10238 7.23454 5.06946 7.67461L10.1196 9.72589L11.7902 9.06668L6.74012 7.01096C6.41983 6.86457 6.32401 6.6534 6.46064 6.47507C6.48815 6.43869 6.52541 6.40675 6.5751 6.36949C6.62123 6.33755 6.67535 6.30561 6.74456 6.27367L6.75432 6.26923C6.76319 6.26391 6.77295 6.26391 6.77295 6.26391L7.31771 6.04387L13.2285 8.49352L13.2276 8.4953Z" fill="#176BB2"/>
<path d="M11.722 16.9249L16.4199 15.0475L15.7332 13.5135L12.3857 14.855L11.722 16.9249Z" fill="#176BB2"/>
<path d="M12.8523 13.5047L15.3161 12.5198L14.0704 9.72684L12.8523 13.5047Z" fill="#176BB2"/>
<path d="M13.2374 8.50418L10.1516 9.72679V17.5655L13.2374 8.50418Z" fill="#176BB2"/>
<path d="M18.0728 14.4291V6.59567L14.9719 7.82715L18.0728 14.4291Z" fill="#176BB2"/>
</svg>
