<svg width="20" height="18" viewBox="0 0 20 18" fill="none" xmlns="http://www.w3.org/2000/svg">
<path fill-rule="evenodd" clip-rule="evenodd" d="M3.45003 6.30683V13.6268C3.45003 14.2168 3.76003 14.2168 4.33003 14.5468L5.49004 15.1868C5.88004 15.3868 6.26005 15.6368 6.66005 15.8368C6.80005 15.9068 6.91004 15.9868 7.05004 16.0468C7.46004 16.2468 8.15004 16.6568 8.59004 16.8968C8.70004 16.9568 9.32002 17.3268 9.38002 17.3268C9.74002 17.3268 9.74003 17.2868 10.04 17.1168L11.9401 16.0768C12.14 15.9668 12.32 15.8568 12.52 15.7568C12.58 15.7268 12.6001 15.7068 12.6601 15.6768L13.96 14.9668C14.31 14.7968 14.63 14.5868 14.98 14.4068C15.12 14.3368 15.2901 14.2668 15.4101 14.1568C15.6101 13.9768 15.56 13.7668 15.56 13.4168V8.90681C15.67 8.87681 16.39 8.42682 16.51 8.35682L18.88 6.95682C19.14 6.80682 19.22 6.73682 19.22 6.41682C19.22 6.19682 18.9601 6.03681 18.6601 6.03681C18.5501 6.03681 18.5301 6.01682 18.4401 6.01682L17.76 5.97681C17.65 5.97681 17.64 5.95682 17.54 5.95682L15.54 5.82682C15.34 5.79682 15.35 5.7968 15.18 5.7168C15.06 5.6568 14.98 5.60682 14.87 5.54682L13.28 4.7468C13.23 4.8168 12.65 5.31681 12.54 5.34681C12.59 5.41681 12.83 5.52681 12.92 5.56681C13.05 5.62681 14.0701 6.16681 14.1601 6.18681C14.1001 6.26681 11.28 7.7868 10.9 7.9968L9.41005 8.81681C9.22005 8.71681 9.03003 8.5968 8.83003 8.4968L8.24004 8.16682C7.79004 7.92682 7.36003 7.66681 6.92003 7.43681C6.47003 7.20681 6.03003 6.92682 5.58003 6.69682C5.53003 6.66681 5.49005 6.64683 5.44005 6.61683C5.39005 6.58683 5.33005 6.56681 5.28005 6.53681C5.19005 6.48681 5.09004 6.42683 4.99004 6.36683C4.89004 6.31683 4.79004 6.2368 4.68004 6.2168C4.72004 6.1568 4.87003 6.10681 4.95003 6.06681C5.51003 5.78681 6.09004 5.53681 6.65004 5.25681C6.73004 5.21681 6.86005 5.14681 6.94005 5.12681C6.90005 4.98681 6.44002 4.86681 6.32002 4.34681C6.22002 4.39681 6.13004 4.43682 6.02004 4.48682L4.68004 5.11683C4.43004 5.23683 4.17004 5.3368 3.93004 5.4668C3.83004 5.3168 3.50003 5.02682 3.36003 4.88682C3.16003 4.68682 2.98005 4.50683 2.78005 4.30683L1.77004 3.29682C1.72004 3.24682 1.66003 3.20682 1.64003 3.13682C1.75003 3.13682 4.58004 1.89683 4.80004 1.80683C5.02004 1.71683 5.22004 1.62681 5.43004 1.53681C5.85004 1.35681 6.29004 1.1968 6.71004 0.996803C6.77004 1.0868 6.89005 1.18682 6.97005 1.26682C7.16005 1.45682 7.60005 1.96683 7.78005 2.08683C7.78005 1.71683 7.80005 1.27681 7.78005 0.906806C7.78005 0.796806 7.74003 0.796823 7.67003 0.736823L7.38002 0.426826C7.33002 0.376826 7.28003 0.326801 7.23003 0.276801C6.80003 -0.153199 6.67003 0.0368307 6.01003 0.306831C5.87003 0.366831 5.73004 0.416823 5.59004 0.486823L1.44005 2.2468C1.17005 2.3668 0.880033 2.46681 0.610033 2.59681C0.330033 2.73681 0.290026 3.15682 0.540026 3.35682L2.07002 4.7768C2.13002 4.8368 2.17003 4.85682 2.23003 4.91682C2.37003 5.05682 2.53005 5.21683 2.69005 5.33683L3.31005 5.91682C3.53005 6.14682 3.45003 5.99682 3.45003 6.32682M12.49 9.6868L10.75 9.30683C10.85 9.22683 11.36 8.94681 11.48 8.87681C12.67 8.17681 13.9601 7.47682 15.1601 6.76682C15.2201 6.72682 15.27 6.68681 15.36 6.68681L17.3 6.80683C17.25 6.87683 14.9801 8.1968 14.9101 8.2468C14.7101 8.3668 12.5 9.6868 12.49 9.6868ZM4.12004 6.92683L5.01003 7.41682C5.08003 7.44682 5.10005 7.46681 5.16005 7.50681C5.22005 7.53681 5.26002 7.55683 5.32002 7.58683C5.37002 7.61683 5.40004 7.63682 5.46004 7.66682C5.53004 7.69682 5.55003 7.72681 5.61003 7.75681C6.00003 7.95681 6.45002 8.23683 6.82002 8.42683C7.20002 8.61683 7.64005 8.89683 8.03005 9.08683L8.94005 9.59681V16.2168L4.11003 13.5668V6.94682L4.12004 6.92683Z" fill="white"/>
<path fill-rule="evenodd" clip-rule="evenodd" d="M8.39001 0.766876V3.77686H7.19003C7.04003 3.77686 6.89001 3.94686 6.89001 4.09686C6.89001 4.31686 7.16002 4.47686 7.36002 4.62686L8.86002 5.79688C9.04002 5.93687 9.70001 6.50687 9.85001 6.50687C10.03 6.50687 10.49 6.10687 10.65 5.97687L12.73 4.33688C12.99 4.08688 12.74 3.77686 12.54 3.77686H11.34V0.766876C11.34 0.406876 11.22 0.286865 10.86 0.286865H8.86002C8.50002 0.286865 8.38 0.406876 8.38 0.766876" fill="white"/>
</svg>
