<svg width="18" height="18" viewBox="0 0 18 18" fill="none" xmlns="http://www.w3.org/2000/svg">
<path fill-rule="evenodd" clip-rule="evenodd" d="M17.0536 5.07275L16.4533 4.73126L13.3591 2.972C13.3177 3.36525 13.2764 3.86198 13.2453 4.0793V4.17243H13.235C13.1729 4.56568 13.1315 4.88647 13.0901 5.19692C13.0073 5.79714 12.9245 6.40772 12.821 7.02863L12.8831 6.96651L13.1832 6.69747L13.235 6.65607C13.3384 6.55258 13.4937 6.40771 13.6075 6.34562L14.0939 6.07655L14.394 6.54225C14.4871 6.67678 14.5285 6.92512 14.5492 7.19418C14.5699 7.49428 14.5803 7.88752 14.5803 8.0324C14.5699 8.76715 14.425 9.4812 14.1767 10.1435C13.9283 10.8265 13.5558 11.4785 13.1108 12.0373C12.997 12.1822 12.8831 12.3063 12.7796 12.4098C12.6968 12.4926 12.583 12.6064 12.4485 12.7306C12.2725 12.8962 12.0863 13.0514 11.8897 13.1963C11.693 13.3412 11.4757 13.4861 11.2687 13.5999H11.2584L11.217 13.6309V13.7862L11.1963 13.8069L11.2894 13.9828L11.7344 14.8107L11.7965 14.7693C11.8897 14.7175 11.9724 14.6554 12.0656 14.6037C12.1277 14.5623 12.2208 14.5002 12.3243 14.4278C12.6968 14.1691 12.8521 14.0242 13.1108 13.7965L13.2971 13.6309C13.5558 13.3929 13.8352 13.0928 14.0835 12.772C14.3526 12.4202 14.601 12.0476 14.7976 11.6958C15.1494 11.0645 15.3978 10.4022 15.5634 9.69853C15.729 8.98448 15.791 8.2394 15.7703 7.47361C15.7703 7.33908 15.76 7.21489 15.7496 7.08036C15.7496 6.97687 15.7186 6.84234 15.6979 6.68711L15.5634 5.91097L15.4599 5.3211L16.0498 5.22797L16.2774 5.19692C16.5568 5.15553 16.8362 5.10378 17.0536 5.06239V5.07275ZM0.216553 7.55638V7.67023V7.69092V7.72196C0.226901 8.16695 0.278645 8.62228 0.371782 9.07761C0.464918 9.5226 0.589095 9.96758 0.754671 10.4022C1.12722 11.3853 1.64465 12.2339 2.2966 12.9479C2.95891 13.6723 3.75574 14.2622 4.67675 14.7176C4.76989 14.7589 4.86303 14.8107 4.95617 14.8417C5.00791 14.8624 5.11139 14.9038 5.25627 14.9659C5.3494 15.0073 5.4115 15.028 5.47359 15.0487C5.63917 15.1005 5.80473 15.1625 5.94961 15.235L6.28077 15.4006V15.7731C6.28077 15.9387 6.0738 16.4561 5.93927 16.7976L5.84614 17.046V17.0667L9.65438 14.8831L8.11246 13.6723C7.71922 13.3619 7.36736 13.0825 7.01551 12.8134C6.7154 12.5858 6.40495 12.3374 6.26007 12.2236L6.20833 12.1718C6.22902 12.2856 6.26008 12.4098 6.28077 12.5237L6.31182 12.6685L6.34286 12.7824C6.38425 12.948 6.43599 13.1756 6.43599 13.3309V14.0242L5.76335 13.9207C5.64951 13.9 5.47358 13.8276 5.28731 13.7344C5.06999 13.6309 4.79059 13.4654 4.69745 13.4136C4.54223 13.3205 4.39735 13.2274 4.26282 13.1239C4.10759 13.01 3.98341 12.9169 3.87992 12.8238C3.35215 12.3788 2.89681 11.8821 2.51392 11.3129C2.14137 10.7541 1.85161 10.1332 1.64464 9.45017C1.56185 9.16042 1.48942 8.8603 1.43768 8.5395C1.39628 8.23939 1.36524 7.92895 1.36524 7.60814V7.53569C1.06513 7.53569 0.682234 7.53568 0.361431 7.52534H0.216553V7.55638ZM1.68604 2.32004C1.5929 2.23726 1.32384 1.89576 1.17896 1.70949L1.10652 1.61635L1.08582 1.59567L0.961646 1.45077C0.961646 1.57496 0.961646 1.69912 0.961646 1.8233V2.18551C0.940949 2.96165 0.94095 3.74814 0.930602 4.52428V5.5074V5.65226V5.75575L1.28245 5.61086C2.30695 5.20727 3.60051 4.6795 3.74539 4.61741C3.93166 4.53462 4.14898 4.45184 4.36629 4.3587C4.53187 4.29661 4.69746 4.22417 4.86303 4.16207H4.83199V4.15172L4.60432 4.0793C4.30421 3.98616 3.84887 3.83092 3.74539 3.76883L3.3004 3.49979L3.50738 3.03409C3.56947 2.88921 3.72469 2.74433 3.91097 2.6098C4.09724 2.47527 4.35595 2.3097 4.44908 2.25796C5.24592 1.77158 6.15659 1.47148 7.08795 1.368C8.00897 1.26451 8.96103 1.35764 9.851 1.6474C10.1304 1.74053 10.3477 1.82333 10.5547 1.91647C10.7513 1.99926 10.9376 2.10272 11.1446 2.21655L11.2377 2.09238L11.424 2.21655C11.6102 1.92679 11.8276 1.56461 11.9931 1.29555L12.0449 1.21275C11.3412 0.798807 10.5651 0.47801 9.74753 0.281389C8.8886 0.0744187 7.99861 0.012324 7.12934 0.115809C6.65331 0.167551 6.20834 0.260708 5.78405 0.395239C5.32871 0.529769 4.89408 0.705683 4.49049 0.902305C4.25247 1.01614 4.0041 1.161 3.77644 1.30588C3.55912 1.44041 3.36249 1.57496 3.19692 1.70949L2.68984 2.12342C2.68984 2.12342 2.67949 2.13378 2.64845 2.16482C2.54496 2.25796 2.42078 2.38213 2.26555 2.44422L1.94475 2.55807L1.68604 2.3304V2.32004Z" fill="white"/>
<path d="M9.68557 6.12843C9.68557 5.61101 9.55104 5.19709 9.27164 4.88663C9.00257 4.58652 8.66107 4.43129 8.26783 4.43129C7.87459 4.43129 7.51239 4.59685 7.21228 4.928C6.91217 5.25915 6.7673 5.68346 6.7673 6.21124C6.7673 6.67692 6.91218 7.0598 7.19159 7.3599C7.471 7.64966 7.82284 7.80491 8.24713 7.80491C8.67142 7.80491 9.01292 7.66001 9.28198 7.3599C9.55104 7.07015 9.68557 6.65621 9.68557 6.13879M5.98081 9.38823L6.85009 9.31579C6.92253 9.72973 7.0674 10.0195 7.27437 10.2057C7.48134 10.392 7.75041 10.4852 8.08156 10.4852C8.36097 10.4852 8.60933 10.4231 8.8163 10.2885C9.02327 10.1644 9.19919 9.98844 9.33372 9.77112C9.46825 9.5538 9.5821 9.26405 9.66488 8.90185C9.75802 8.53965 9.7994 8.1671 9.7994 7.79456C9.7994 7.75316 9.7994 7.69108 9.7994 7.60829C9.62348 7.89805 9.37511 8.13606 9.05431 8.31198C8.74386 8.4879 8.40236 8.58105 8.04016 8.58105C7.4296 8.58105 6.91218 8.36372 6.48789 7.91873C6.0636 7.47375 5.85663 6.89423 5.85663 6.16983C5.85663 5.44544 6.07395 4.81418 6.51893 4.35885C6.96392 3.90351 7.51239 3.67584 8.1747 3.67584C8.65073 3.67584 9.09572 3.80003 9.48896 4.06909C9.8822 4.3278 10.1927 4.70036 10.3893 5.17639C10.5962 5.65242 10.6997 6.34575 10.6997 7.25641C10.6997 8.16708 10.5962 8.95359 10.3893 9.51241C10.1823 10.0712 9.8822 10.4955 9.46826 10.7956C9.06467 11.0854 8.58863 11.2303 8.0505 11.2303C7.47099 11.2303 7.00531 11.075 6.63277 10.7439C6.27057 10.4231 6.0429 9.96775 5.97046 9.38823H5.98081Z" fill="white"/>
</svg>
