<svg width="36" height="32" viewBox="0 0 36 32" fill="none" xmlns="http://www.w3.org/2000/svg">
<path fill-rule="evenodd" clip-rule="evenodd" d="M25.1312 18.5519V31.4556C25.1312 31.5412 25.1526 31.5626 25.2382 31.5626H30.6094V18.4343H25.2382C25.1526 18.4343 25.1312 18.4557 25.1312 18.5413M20.0596 4.68534V14.8285C20.0596 15.9092 20.3806 16.8293 21.258 17.268C21.5255 17.4071 21.8572 17.5462 22.2317 17.5462H33.2201C34.3221 17.5462 35.3493 16.4548 35.3493 15.417V4.09686C35.3493 3.059 34.3221 1.96766 33.2201 1.96766H22.2317C21.5469 1.96766 20.9263 2.39564 20.616 2.78082C20.188 3.3158 20.0596 3.74378 20.0596 4.68534ZM21.2366 14.2507V5.24172C21.2366 4.07547 22.0712 3.18741 22.9592 3.18741H32.4818C33.2735 3.18741 34.1723 4.03267 34.1723 5.10262V14.5182C34.1723 15.524 33.3057 16.3906 32.2999 16.3906H23.1839C22.7666 16.3906 22.3387 16.2623 22.0391 16.0269L21.7716 15.7808C21.4185 15.4063 21.2366 14.9676 21.2366 14.2614V14.2507ZM26.6826 10.538C26.0407 10.3668 25.6769 8.70837 24.6498 9.93882C24.2218 10.4524 23.8366 10.6664 24.6498 11.4688L25.9551 12.7421C26.7468 13.5339 26.8431 13.352 27.4851 12.6351L30.0744 10.003C30.1493 9.91742 30.16 9.88532 30.2349 9.79972L31.6365 8.40879C31.8077 8.2483 32.2357 7.7989 32.2357 7.57421C32.2357 7.13553 31.3156 6.36518 31.0588 6.36518C30.6201 6.36518 29.7641 7.41372 29.3361 7.8417C29.2291 7.9487 29.197 8.0129 29.1008 8.1199L27.7633 9.45734C27.5814 9.62854 27.3888 9.81043 27.2283 9.99232C27.0892 10.1528 26.8645 10.431 26.6826 10.5487V10.538ZM11.7568 26.6408C11.7568 26.7264 11.7782 26.7478 11.8638 26.7478H15.2448V23.9124C15.2448 23.7947 15.2127 23.6877 15.095 23.6877H11.7461V26.6301L11.7568 26.6408ZM11.7568 30.7494C11.7568 30.835 11.7782 30.8564 11.8638 30.8564H15.095C15.2127 30.8564 15.2448 30.7494 15.2448 30.6317V27.7964H11.7568V30.7387V30.7494ZM7.60534 26.7478H11.0613V23.6984H7.60534V26.7478ZM7.60534 30.8671H10.9115C10.9971 30.8671 11.0613 30.8029 11.0613 30.7174V27.8178H7.60534V30.8671ZM11.7568 19.7289V22.5215C11.7568 22.6071 11.7782 22.6285 11.8638 22.6285H15.1379C15.2235 22.6285 15.2448 22.6071 15.2448 22.5215V19.7289C15.2448 19.6433 15.2235 19.6219 15.1379 19.6219H11.8638C11.7782 19.6219 11.7568 19.6433 11.7568 19.7289ZM15.9403 26.7478H19.3642V23.6984H15.9403V26.7478ZM15.9403 30.8671H19.3642V27.8178H15.9403V30.8671ZM20.1025 30.8671H23.5263V27.8178H20.1025V30.8671ZM7.60534 22.6285H11.0613V19.6112H7.60534V22.6285ZM0.650665 8.18409V31.5626H5.97905C6.06465 31.5626 6.08602 31.5412 6.08602 31.4556V12.4853H18.9897C19.0753 12.4853 19.0967 12.4639 19.0967 12.3783V2.85573C19.0967 2.70593 18.8078 2.63103 18.6794 2.56683L16.7321 1.64667C16.5181 1.55038 15.3304 0.972595 15.2021 0.972595C14.956 0.972595 11.9708 2.51334 11.5214 2.73803C10.9222 3.03762 10.3231 3.35859 9.71318 3.64748L4.23502 6.33308C4.07453 6.41867 3.94615 6.46147 3.78566 6.53637L1.9774 7.44582C1.60291 7.62772 0.650665 7.9487 0.650665 8.18409Z" fill="#1A1A18"/>
</svg>
