<svg width="25" height="17" viewBox="0 0 25 17" fill="none" xmlns="http://www.w3.org/2000/svg">
<path fill-rule="evenodd" clip-rule="evenodd" d="M12.5253 12.7827C12.3854 12.7227 12.4553 12.7327 12.1354 13.0525C11.9955 13.1925 11.8955 13.2924 11.7556 13.4224C11.5457 13.6323 11.2358 13.9822 11.0059 14.1421L10.966 14.5919C10.5461 13.9922 9.62653 9.92387 9.48659 8.94427C8.507 9.19417 6.91765 9.57399 6.47783 10.4236C6.088 11.1733 5.8581 13.1625 5.73815 14.1321C5.40829 16.801 5.31831 16.6411 7.27749 16.6511H16.2737C18.3629 16.6511 18.2529 16.811 17.943 14.1821C17.8331 13.2325 17.5832 11.2233 17.2133 10.4636C16.9734 9.98383 16.5636 9.71393 15.9539 9.48403C15.524 9.32409 14.6644 9.06421 14.2046 8.96426C14.0846 9.18416 13.4549 12.3528 13.205 13.2325C13.145 13.4224 12.8952 14.2721 12.7852 14.442C12.7852 14.452 12.7752 14.462 12.7652 14.472C12.7252 14.5319 12.7252 14.5219 12.6952 14.5619L12.5253 12.7827ZM14.2346 13.8122H15.9739V14.342H14.2446V13.8122H14.2346Z" fill="#176BB2"/>
<path fill-rule="evenodd" clip-rule="evenodd" d="M24.2804 15.1816V14.6818C24.2204 14.5218 24.0504 11.4231 23.8005 10.2936C23.6306 9.50394 23.3607 9.26403 22.691 8.97415C22.3212 8.81422 21.2016 8.45435 20.8118 8.39437C20.6319 8.76422 20.362 9.12409 20.1021 9.41397C19.9922 9.53392 19.2825 10.1536 19.1025 10.1736C18.8426 10.1936 17.5831 9.02413 17.3832 8.3844L16.0338 8.79423C16.5736 9.08411 16.9634 9.10409 17.4932 9.71383C18.3228 10.6534 18.6327 14.2819 18.7526 15.5614C19.2224 15.6414 22.2312 15.5814 23.1408 15.5814C23.8505 15.5814 23.9005 15.6614 24.2704 15.1916" fill="#176BB2"/>
<path fill-rule="evenodd" clip-rule="evenodd" d="M8.92692 4.70579C8.54707 4.68579 8.48707 4.81575 8.52706 5.24557C8.55705 5.60542 8.98686 5.95528 9.14679 6.03525C9.3767 6.1552 9.28675 5.98526 9.4067 6.24515C9.8765 7.25473 10.6462 8.54418 11.9157 8.48421C13.455 8.41424 14.1147 6.43509 14.3046 6.1652C14.4046 6.02526 14.4346 6.08522 14.6045 5.99526L14.7644 5.87531C14.7644 5.87531 14.7745 5.86533 14.7845 5.85533L14.8344 5.79536C14.9944 5.60544 15.1243 5.56545 15.1543 5.22559C15.2043 4.62584 14.9044 4.72579 14.7544 4.62583C14.8644 4.08606 14.9644 3.60626 14.8944 3.0365C14.7844 2.19685 14.3246 1.89697 13.7849 1.49713C13.585 1.34719 13.505 1.26724 13.2651 1.1373C12.8452 0.907393 12.3854 0.767456 11.8357 0.767456C11.2459 0.767456 10.8261 0.927373 10.4263 1.15728C8.74699 2.12687 8.58701 2.73663 8.93686 4.69581" fill="#176BB2"/>
<path fill-rule="evenodd" clip-rule="evenodd" d="M0.290493 14.7417V15.1815C0.550384 15.5214 0.580368 15.5714 1.13014 15.5714C1.80986 15.5714 4.61867 15.6113 4.89856 15.5314C5.01851 14.3319 5.34837 10.9533 5.95811 9.96368C6.38793 9.26397 6.93768 9.14403 7.18758 8.94411C6.94768 8.86415 6.42794 8.66421 6.16805 8.55426C6.0381 9.36392 5.96813 9.36394 5.54831 9.88372C5.35839 10.1236 4.79859 10.7034 4.5487 10.8533C4.40875 10.7833 3.95895 10.2935 3.80901 10.1436C3.38919 9.72377 3.00934 9.44389 2.92938 8.55426C1.38002 9.09404 1.20009 9.15403 0.860232 10.8533C0.730286 11.4931 0.640347 12.1228 0.540388 12.7825C0.480413 13.1923 0.400437 14.4618 0.280487 14.7517" fill="#176BB2"/>
<path fill-rule="evenodd" clip-rule="evenodd" d="M1.33013 7.04481L2.16978 7.2847C3.11938 7.44463 3.02942 7.21472 3.41926 7.62455C4.65874 8.92401 5.84823 7.43463 5.93819 7.40464C6.11812 7.35466 6.66792 7.32469 6.90782 7.2947C7.26767 7.23473 7.50755 7.15474 7.82742 7.08477C7.68748 6.81488 7.25767 6.55498 7.14771 5.70534C7.05775 5.02562 7.20767 4.43589 7.00776 3.75617C6.30805 1.36717 2.92947 1.29719 2.1498 3.65621C1.81993 4.66578 2.19978 5.54543 1.74997 6.41506C1.63002 6.64497 1.37011 6.91484 1.33013 7.05478" fill="#176BB2"/>
<path fill-rule="evenodd" clip-rule="evenodd" d="M19.8824 1.68723C19.5726 1.56728 19.5526 1.3374 19.2927 1.26743L19.3227 1.7372C18.3131 1.72721 17.4635 2.10706 17.0136 2.62685C16.3639 3.36654 16.3139 3.9763 16.6338 5.04585C16.6138 5.06584 16.0241 5.24576 16.6938 6.06541C16.8337 6.24534 16.8537 6.16536 17.0636 6.24533C17.7733 7.80468 18.9928 8.92423 20.3922 7.44484C20.7621 7.05501 21.122 6.15538 21.1619 6.22535C21.1619 6.23535 21.1919 6.22534 21.2019 6.21534C21.5518 6.10539 21.7617 5.6056 21.7817 5.40568C21.8017 5.1258 21.7816 5.16579 21.5617 5.09582C21.7717 4.52605 21.9216 4.25617 21.7217 3.53647C21.5318 2.84676 21.2619 2.7468 20.992 2.34696C21.0419 2.07708 21.1619 2.0071 21.2619 1.77719C20.882 1.82717 20.7921 1.95713 20.4822 2.03709C20.4522 1.89715 20.2723 1.29741 20.2123 1.19745C20.0524 1.33739 20.0324 1.48733 19.8824 1.66725" fill="#176BB2"/>
<path fill-rule="evenodd" clip-rule="evenodd" d="M11.1061 13.1124L11.0461 13.8421C11.2461 13.7621 11.6259 13.3323 11.7858 13.1724C11.9757 12.9824 12.3256 12.6826 12.4555 12.4827L12.4256 11.8729L11.1061 13.1224V13.1124Z" fill="#176BB2"/>
<path fill-rule="evenodd" clip-rule="evenodd" d="M14.2347 14.3318L15.9639 14.3419L15.9739 13.8221L14.2347 13.8121V14.3318Z" fill="#176BB2"/>
<path fill-rule="evenodd" clip-rule="evenodd" d="M11.2061 12.1028L11.1761 12.7525L11.2061 12.8324C11.456 12.4626 12.1557 11.9928 12.3656 11.623C12.4056 11.433 12.3656 11.2331 12.3456 11.0332C12.1457 11.1532 11.5859 11.7529 11.346 11.9928C11.316 12.0228 11.306 12.0328 11.266 12.0628C11.266 12.0628 11.2461 12.0927 11.2361 12.0828C11.2361 12.0828 11.2161 12.1028 11.2061 12.1028Z" fill="#176BB2"/>
<path fill-rule="evenodd" clip-rule="evenodd" d="M4.55875 10.5535C4.77866 10.4235 5.26847 9.92375 5.41841 9.67385C4.57876 9.7938 4.45879 9.83379 3.64913 9.65387C3.75908 9.75383 3.92901 9.97374 4.05896 10.1237C4.1989 10.2936 4.36883 10.4435 4.55875 10.5535Z" fill="#176BB2"/>
<path fill-rule="evenodd" clip-rule="evenodd" d="M11.3161 11.0232L11.2361 11.8129C11.456 11.6929 11.6159 11.473 11.8058 11.2931C11.9058 11.1931 11.9658 11.1332 12.0658 11.0432C12.2157 10.9033 12.2257 10.9332 12.2757 10.7033L12.3657 10.1835L12.3357 10.0636C12.2057 10.2535 12.0258 10.3935 11.8559 10.5634C11.7559 10.6633 11.6959 10.7233 11.596 10.8133C11.446 10.9632 11.476 10.9632 11.3161 11.0332" fill="#176BB2"/>
<path fill-rule="evenodd" clip-rule="evenodd" d="M11.3457 10.4734L11.4257 10.6134C11.4257 10.6134 11.4357 10.6733 11.4357 10.6833V10.7533C11.5856 10.5434 12.1654 10.1336 12.1954 9.92365C11.8255 9.54381 11.5956 9.8837 11.2457 10.0136L11.3457 10.4734Z" fill="#176BB2"/>
<path fill-rule="evenodd" clip-rule="evenodd" d="M11.0459 13.8423L11.0059 14.1421C11.2358 13.9922 11.5457 13.6323 11.7556 13.4224C11.8955 13.2925 11.9955 13.1825 12.1354 13.0526C12.4553 12.7327 12.3854 12.7327 12.5253 12.7827C12.5153 12.6228 12.5253 12.5728 12.4553 12.4728C12.3154 12.6828 11.9655 12.9826 11.7856 13.1626C11.6257 13.3225 11.2459 13.7523 11.0459 13.8323" fill="#176BB2"/>
<path fill-rule="evenodd" clip-rule="evenodd" d="M11.1762 12.7525C11.1062 12.8525 11.1162 12.9524 11.1062 13.1124L12.4256 11.8629C12.4256 11.8629 12.4256 11.7629 12.4156 11.723C12.3656 11.553 12.4156 11.693 12.3657 11.623C12.1557 11.9928 11.456 12.4626 11.2061 12.8325L11.1762 12.7525Z" fill="#176BB2"/>
<path fill-rule="evenodd" clip-rule="evenodd" d="M11.3459 10.4736L11.3259 11.0333C11.4858 10.9633 11.4559 10.9633 11.6058 10.8134C11.7058 10.7135 11.7657 10.6535 11.8657 10.5635C12.0356 10.3936 12.2155 10.2536 12.3455 10.0637L12.3754 10.1837C12.4554 10.1037 12.4254 10.1837 12.4454 10.0038L12.2055 9.92377C12.1755 10.1337 11.5958 10.5435 11.4558 10.7534V10.6835C11.4558 10.6835 11.4358 10.6235 11.4358 10.6135L11.3559 10.4736H11.3459Z" fill="#176BB2"/>
<path fill-rule="evenodd" clip-rule="evenodd" d="M11.2358 11.8131L11.2058 12.1129C11.2058 12.1129 11.2358 12.0829 11.2358 12.0929C11.2358 12.0929 11.2558 12.073 11.2658 12.073C11.2958 12.043 11.3158 12.033 11.3458 12.003C11.5857 11.7631 12.1454 11.1633 12.3454 11.0434L12.3053 10.7835C12.3053 10.7835 12.2954 10.7535 12.2854 10.7535C12.2854 10.7535 12.2754 10.7335 12.2654 10.7235C12.2154 10.9534 12.2054 10.9234 12.0554 11.0634C11.9555 11.1633 11.8956 11.2233 11.7956 11.3133C11.6157 11.4932 11.4557 11.7131 11.2258 11.833" fill="#176BB2"/>
</svg>
