<svg width="32" height="33" viewBox="0 0 32 33" fill="none" xmlns="http://www.w3.org/2000/svg">
<path fill-rule="evenodd" clip-rule="evenodd" d="M0.286788 2.49955L0.307832 16.4802C0.307832 18.1857 0.844756 18.7647 2.56076 18.7647H17.8995C20.4051 18.7647 20.1629 17.2803 20.1735 15.1222V11.5638C20.1735 10.89 19.8471 9.91096 20.6998 10.1636C20.9525 10.2373 21.2262 10.3531 21.4789 10.4479C21.8263 10.5742 22.1316 10.4057 22.2158 10.8058C22.279 11.1216 22.2684 14.4379 22.279 15.059C22.3211 18.2068 22.458 21.3334 22.4474 24.5128L22.4158 30.303C22.4158 31.3873 22.679 32.1348 23.7318 32.2506C24.8056 32.3664 25.4268 31.5557 25.4268 30.6714V20.2702H25.6689C25.7215 20.9755 25.6689 23.5127 25.6689 24.4181C25.6689 25.8182 25.6689 27.2184 25.6689 28.608C25.6689 29.3029 25.6583 30.0082 25.6689 30.703C25.7005 32.4085 27.3954 32.4927 28.0587 32.019C28.764 31.5137 28.6482 30.3451 28.6482 29.4397V19.6279C28.6482 19.2911 28.5745 19.1016 28.743 18.8384C29.1746 18.9752 29.6378 19.2911 30.1642 18.9647C30.48 18.7752 30.7327 18.2699 30.9327 17.8699C31.9012 15.9854 32.3434 13.9641 31.5749 11.8902C30.9011 10.0899 29.701 9.03717 28.0797 7.99494C27.5533 7.65805 26.669 7.01587 26.1637 7.40539C26.0163 7.52119 25.8479 7.82652 25.711 7.88969C25.2794 8.07918 25.3004 7.19482 24.574 7.25799C24.3003 7.27904 23.7213 7.62649 23.2686 7.81598C22.1526 8.2792 21.142 7.80546 20.6156 7.16328C19.9734 6.38423 20.1314 5.13146 20.1208 3.95236C20.1208 2.45744 20.4051 1.23621 19.1207 0.436109C18.8259 0.25714 18.7628 0.267696 18.3627 0.267696H5.41374C4.182 0.267696 2.95026 0.267696 1.71853 0.267696C1.30795 0.267696 0.844738 0.720363 0.634186 1.03619C0.381523 1.40466 0.244669 1.97312 0.244669 2.52056M18.9628 5.04721C18.7312 5.09985 18.7838 5.03665 18.647 4.81557C18.3101 4.25761 17.9627 3.34174 17.331 3.07855C17.0047 2.94169 16.6888 2.94169 16.3625 3.07855C15.8045 3.33122 15.4044 3.86814 15.6676 4.66823C15.8361 5.16303 16.2677 5.81575 16.5204 6.24738C17.0573 7.1317 17.3205 7.37383 17.8469 8.01601L18.7312 8.93191C19.0996 9.44776 18.9838 10.4058 18.9733 11.1217V16.017C18.9733 16.996 19.0891 17.5541 18.11 17.5751C16.4993 17.6172 14.836 17.5751 13.2147 17.5751H3.46612C2.63444 17.5751 1.68695 17.7436 1.52904 17.0487C1.42376 16.5539 1.48692 15.2274 1.48692 14.6484C1.48692 13.0166 1.48692 11.3848 1.48692 9.75303C1.48692 8.12125 1.48692 6.48951 1.48692 4.85772C1.48692 1.74155 1.15004 1.47833 3.0029 1.47833H17.6784C18.8154 1.48886 18.9628 1.44678 18.9733 2.62587C18.9733 2.99434 18.9944 4.81561 18.9628 5.04721ZM15.9308 25.7866C16.5625 25.6287 17.1205 25.1865 17.4047 24.8286C17.7837 24.3549 17.9627 23.7022 17.8784 22.9336C17.7205 21.5229 16.5835 20.6807 15.3097 20.6492C13.2989 20.5965 11.9093 23.1021 13.2252 24.8181C13.7306 25.4813 14.0253 25.5024 14.6359 25.8077V26.0708C13.4147 26.6604 12.9305 26.7867 11.8356 27.85C10.5512 29.1028 10.4354 30.3977 10.2249 30.7873C9.99326 30.4188 9.9301 28.1132 6.74023 26.492C6.29807 26.2604 6.09802 26.1235 5.49794 26.2393C4.43465 26.4288 4.6768 26.292 4.19253 26.1867C3.67667 26.0709 0.339415 28.029 0.0446414 31.3347C0.00253092 31.7979 0.0341267 31.8821 1.04478 31.8927C1.29744 31.8927 1.56063 31.8926 1.80277 31.861C2.47654 31.7663 1.84488 31.2294 2.29757 30.4925C2.37126 30.3767 2.37124 30.3451 2.47652 30.2924C2.47652 30.6609 2.466 31.0083 2.45548 31.3768C2.45548 32.1032 3.12925 31.8716 3.97146 31.8716C4.31887 31.8716 4.65576 31.8821 5.00318 31.8821C4.75051 31.2294 4.44519 30.9767 4.65575 29.8292L5.14001 27.7974L5.63481 29.745C5.81378 30.7136 5.68747 31.0189 5.36111 31.7769C5.47691 31.8506 6.1928 31.9137 6.31913 31.9242C6.63496 31.9558 7.01394 31.9874 7.29819 31.861C7.71929 31.6821 7.82456 30.8504 7.8772 30.3241C7.94036 30.3662 7.95089 30.3661 8.01406 30.4925C8.03512 30.5451 8.06671 30.5978 8.08776 30.6504C8.34042 31.2505 8.04564 31.6611 8.372 31.8295C8.58255 31.9348 9.95116 31.8716 10.2986 31.8716C10.667 31.8716 11.9935 31.9664 12.1725 31.7874C12.4883 31.4716 12.0146 30.7136 12.6883 30.3346C12.6883 31.7874 12.5409 31.8926 13.1515 31.8821C13.8358 31.8611 14.4149 31.9348 15.0992 31.8295C15.0886 31.6821 14.8781 31.3452 14.8149 30.7767C14.6991 29.6397 15.1834 28.4396 15.3097 27.1763C15.5097 27.5132 15.5308 27.9659 15.5624 28.408C15.6361 29.4081 16.194 30.4293 15.6782 31.4505C15.5834 31.6295 15.4887 31.7453 15.415 31.8821C15.7729 31.9242 17.0994 31.9137 17.4258 31.84C18.0574 31.7032 18.0048 31.0399 18.0363 30.3872C18.7417 30.8188 17.6784 32.019 19.1312 31.9137C20.0892 31.84 20.6577 32.2611 20.3314 30.682C19.9103 28.6501 17.7942 26.3867 15.9203 26.134V25.8182L15.9308 25.7866ZM12.6673 5.76308C12.7831 5.19459 12.5304 5.02616 12.1304 4.84719C10.7934 4.23658 10.9934 5.31037 10.267 5.54198C9.80377 5.68937 9.4774 5.38407 9.29843 5.15246C9.04577 4.82611 8.89838 4.61558 8.30883 4.84719C6.74022 5.46832 7.92983 5.93152 7.47714 6.67898C6.89812 7.64752 6.03488 6.51053 5.56114 7.58434C5.42428 7.90017 5.22422 8.4371 5.49794 8.72134C5.76113 8.98454 6.2454 8.92138 6.28751 9.39513C6.28751 9.52146 6.26647 9.59515 6.26647 9.72148C6.26647 9.84781 6.30857 9.90045 6.28751 10.0478C6.19277 10.6584 5.19265 10.3426 5.54006 11.3427C5.65587 11.6796 5.84538 12.1007 6.1191 12.2271C6.48757 12.406 6.86654 12.027 7.35081 12.2586C8.4878 12.7955 7.18238 13.7009 8.27725 14.1536C9.81428 14.7853 9.36161 13.7746 10.0985 13.4799C10.5723 13.2904 10.8881 13.564 11.1092 13.7851C11.3092 13.9957 11.4566 14.3957 12.0777 14.1957C13.699 13.6588 12.6357 13.1114 12.9621 12.4166C13.0989 12.1218 13.4253 11.8691 13.9095 11.9217C14.4991 11.9954 14.6465 11.9428 14.8781 11.5007C15.036 11.2059 15.236 10.6479 14.9833 10.3426C14.7307 10.0373 14.4254 10.0794 14.2254 9.63724C14.0148 9.19508 14.2569 8.80559 14.5307 8.61609C14.8465 8.40554 15.0886 8.20549 14.9307 7.66858C14.478 6.14208 13.7516 7.08958 13.1094 6.76322C12.7831 6.60531 12.562 6.27893 12.6778 5.75255L12.6673 5.76308ZM9.85639 7.04749C11.2987 6.79483 12.4883 7.94232 12.6778 9.13194C12.9094 10.5953 11.8566 11.7638 10.6354 11.9428C9.11945 12.1639 7.9509 11.1637 7.76141 9.8899C7.55086 8.4055 8.64572 7.26851 9.85639 7.05796V7.04749ZM25.1636 0.415034C23.5002 0.625586 22.1 2.20474 22.3948 4.1734C22.7212 6.37368 25.1741 7.72121 27.3217 6.47896C27.4691 6.39473 27.6691 6.23681 27.7849 6.14206C27.9007 6.03679 28.1113 5.8368 28.1955 5.721C28.6903 5.05776 29.0588 4.31027 28.9009 3.19434C28.6693 1.55203 27.1112 0.172898 25.1741 0.415034H25.1636ZM7.70875 23.5653C7.90878 22.0703 6.77181 20.8386 5.48744 20.6807C3.93988 20.4807 2.75024 21.5861 2.5818 22.9231C2.38178 24.4601 3.46613 25.6919 4.79261 25.8287C6.38228 25.9972 7.52978 24.9444 7.70875 23.5653ZM25.6268 14.4484C25.3531 14.2483 24.9846 13.7851 24.9004 13.2693C24.8162 12.7324 24.9951 12.1218 25.0899 11.6059L25.5531 8.54239C25.5952 8.41606 25.5215 8.46871 25.6584 8.4266C25.7426 8.54241 26.1111 11.2374 26.1847 11.6585C26.269 12.1428 26.4585 12.8271 26.3532 13.3008C26.269 13.7009 25.89 14.301 25.6268 14.4484Z" fill="#1A1A18"/>
</svg>
