<svg width="34" height="32" viewBox="0 0 34 32" fill="none" xmlns="http://www.w3.org/2000/svg">
<path fill-rule="evenodd" clip-rule="evenodd" d="M0.388881 9.11986C0.388881 10.9474 0.62127 11.972 1.40297 13.5037C1.75157 14.1904 2.23748 14.7925 2.74453 15.3629C2.87129 15.5002 3.00862 15.627 3.14595 15.7643C3.2199 15.8383 3.27271 15.8805 3.33609 15.9545C3.42059 16.0495 3.44175 16.0918 3.52625 16.1869L4.29737 17.0003C4.49808 17.2327 4.92063 17.6341 5.06852 17.8559C5.41712 17.6235 7.08615 15.6059 7.66715 15.2467C9.39957 14.1587 11.7975 15.3418 11.7975 17.5073C12.0827 17.37 12.8538 17.5073 13.1496 17.6024C14.3011 17.9827 15.0722 19.0602 15.0722 20.2961C15.9701 20.2961 16.6356 20.3595 17.3328 21.0672C17.5757 21.3102 17.6919 21.4475 17.861 21.775C18.125 22.2715 18.1356 22.6834 18.1356 23.2644C18.1356 23.444 18.1039 23.4229 18.1039 23.5814C18.9173 23.5814 19.604 23.8666 20.1533 24.4159C20.7554 25.018 20.9878 25.6518 20.9878 26.5391C20.9878 27.099 20.766 27.5427 20.5653 27.9124C20.7343 27.9969 20.7448 28.0497 20.8822 28.1554C20.9878 28.2293 21.0934 28.3138 21.2096 28.3878C22.7202 29.2962 24.4737 27.8173 23.4068 26.0427L22.0441 24.5849C21.5688 24.1095 21.0723 23.6553 20.6181 23.1588L19.2131 21.7116C18.9913 21.4898 18.6215 21.2151 18.6215 20.8243C18.6215 20.5391 18.8751 20.2221 19.1497 20.2221C19.5089 20.2221 19.6251 20.3278 19.8681 20.5707C20.0265 20.7292 20.1638 20.8454 20.3012 21.025C20.7871 21.6588 22.4772 23.0849 22.9632 23.7187C23.3751 24.2574 24.2625 25.0919 24.9808 25.261C25.5196 25.3877 25.9949 25.3032 26.3541 25.0286C27.1041 24.4792 27.0407 23.4229 26.6181 22.7046C26.3012 22.1658 25.678 21.6588 25.2238 21.2046L24.8857 20.8348C24.3153 20.275 22.7519 18.7644 22.361 18.289C22.192 18.0883 21.7167 17.7503 21.7167 17.4439C21.7167 17.0003 22.0336 16.7784 22.4244 16.7784C22.7096 16.7784 23.0582 17.2115 23.2273 17.3911L24.4632 18.627C25.1921 19.4193 25.9738 20.1693 26.7344 20.9299C27.3787 21.5743 27.759 21.9651 28.7731 21.9651C29.8823 21.9651 30.5689 20.6447 30.009 19.5038C29.7344 18.9545 29.259 18.5637 28.8682 18.1094C28.8154 18.0566 28.7837 18.0144 28.7309 17.9721L28.1816 17.3911C27.7168 16.9263 27.2942 16.3981 26.8294 15.9333L25.6146 14.6129C25.5618 14.5601 25.5301 14.5284 25.4773 14.4756C25.3717 14.3699 25.2977 14.3066 25.2026 14.1904L22.361 11.1164C22.2343 10.9685 22.0547 10.8417 21.9491 10.6833C21.7484 10.8206 21.5582 11.0107 21.3786 11.1692C21.2836 11.2537 21.2096 11.3382 21.1145 11.4333C19.9314 12.627 17.9772 13.472 16.2764 13.472H15.7166C14.0264 13.472 12.5581 12.8065 11.3433 11.8875L10.7517 11.3805C10.6355 11.2748 10.5933 11.1903 10.4876 11.0847C10.2447 10.8417 10.0334 10.6833 10.0334 10.303C10.0334 10.0389 10.4982 9.61635 10.6778 9.46846C11.0897 9.15155 11.4278 8.73958 11.7975 8.36986C11.882 8.28535 11.9031 8.28534 11.9876 8.21139C12.0616 8.14801 12.1144 8.08464 12.1778 8.02126C12.4419 7.75717 12.6743 7.52477 12.9384 7.26068L14.2588 5.97193C14.3539 5.89798 14.375 5.88742 14.4701 5.79235L15.9806 4.30288C15.8328 4.08105 14.6391 2.89793 14.3539 2.68666C14.2271 2.59159 14.1003 2.48595 13.9736 2.40144C11.9982 1.00706 9.55802 0.510576 7.07559 1.03875C6.146 1.23946 5.23755 1.60918 4.45585 2.1268C4.35022 2.20074 4.24455 2.25356 4.12835 2.32751C3.91708 2.48596 3.73753 2.61272 3.52625 2.78173C1.67763 4.29232 0.367733 6.72194 0.367733 9.16212" fill="#1A1A18"/>
<path fill-rule="evenodd" clip-rule="evenodd" d="M11.5547 10.324C11.8611 10.7888 12.9069 11.391 13.3822 11.6233C15.2731 12.5529 17.7555 12.31 19.5408 11.1269C19.9105 10.8839 20.164 10.641 20.4703 10.3346C20.5865 10.2184 20.6711 10.1762 20.7873 10.0494C20.988 9.83812 21.1464 9.65853 21.3471 9.44726L21.9704 8.90853C22.1288 9.01416 22.3084 9.236 22.4563 9.37332L24.8014 11.8874C24.8859 11.9825 24.9599 12.0459 25.0444 12.1304L25.5197 12.6375C25.6253 12.7431 25.657 12.7853 25.7521 12.9015L26.6923 13.8945C26.9458 14.2326 27.3895 14.5812 27.643 14.9192L29.0585 16.4192C29.2275 16.5882 29.3437 16.7889 29.5445 16.9263C29.724 16.8101 30.0937 16.3981 30.2733 16.2079L31.3508 15.1305C31.8896 14.5178 32.46 13.7149 32.8086 12.9649C32.967 12.6269 33.0832 12.2889 33.21 11.9191C33.9072 9.83812 33.7065 7.67259 32.8614 5.70777C32.5339 4.9472 32.1114 4.37677 31.636 3.76409C30.1782 1.89434 27.5374 0.647827 25.1711 0.647827C23.988 0.647827 23.3436 0.742909 22.2873 1.07038C22.1288 1.1232 21.9492 1.19713 21.7697 1.26051C20.1006 1.92602 19.3295 2.76055 18.0935 3.99648C18.009 4.08099 17.9879 4.09155 17.9034 4.15493L14.4491 7.49302C13.7519 8.19021 12.9808 8.87683 12.2836 9.58459L11.5336 10.2818L11.5547 10.324Z" fill="#1A1A18"/>
<path fill-rule="evenodd" clip-rule="evenodd" d="M8.73415 25.4298C9.44191 25.4298 9.77993 24.9228 10.2764 24.4369L13.4138 21.2361C14.5547 20.1058 13.0758 18.0776 11.5652 18.891C11.3856 18.9861 11.2694 19.1551 11.1215 19.2924C10.8363 19.5776 10.5828 19.8312 10.2976 20.1164C10.1497 20.2643 10.0546 20.391 9.90669 20.5389C9.7588 20.6868 9.63205 20.803 9.49473 20.972L7.85736 22.6833C7.77285 22.7784 7.75173 22.8206 7.66722 22.9157C7.43482 23.1481 7.27637 23.0953 7.17073 23.6974C7.01228 24.5953 7.85736 25.4298 8.72358 25.4298" fill="#1A1A18"/>
<path fill-rule="evenodd" clip-rule="evenodd" d="M10.1496 26.8454C10.1496 27.606 10.7728 28.3243 11.5229 28.3243C12.4524 28.3243 12.6532 27.8489 13.2236 27.2785L14.8398 25.6623C15.368 25.0707 16.5089 24.0355 16.7307 23.6446C17.1744 22.8629 16.6145 21.5319 15.3891 21.5319C14.6497 21.5319 14.5335 21.9122 14.1637 22.2819C13.6778 22.7679 12.8961 23.4967 12.5158 23.951C12.125 24.4263 10.4031 25.9581 10.2552 26.3066C10.2024 26.4228 10.139 26.7081 10.139 26.856" fill="#1A1A18"/>
<path fill-rule="evenodd" clip-rule="evenodd" d="M15.1464 30.9971C15.9386 30.9971 16.1816 30.7119 16.6675 30.1309C16.9844 29.7506 17.4703 29.402 17.7661 29.0112C18.083 28.5992 18.5584 28.2823 18.8541 27.8809C19.3823 27.2048 19.7098 27.3422 19.7098 26.2436C19.7098 26.0428 19.6253 25.8104 19.5408 25.6731C19.1816 24.997 18.2837 24.5851 17.5443 24.9337C17.2168 25.0921 16.6147 25.7682 16.3295 26.0428C16.2661 26.1062 16.2132 26.1485 16.1499 26.2224L14.8294 27.6168C14.3012 28.145 13.5724 28.6837 13.6146 29.4549C13.6569 30.2894 14.3963 31.0077 15.1252 31.0077" fill="#1A1A18"/>
<path fill-rule="evenodd" clip-rule="evenodd" d="M10.5298 17.5073C10.5298 16.7361 9.86423 16.0601 9.12478 16.0601C8.29026 16.0601 7.90998 16.7256 7.47687 17.1587C7.23391 17.3911 7.02265 17.6129 6.79025 17.8453C6.54729 18.0882 6.3677 18.3101 6.12474 18.5531C5.89234 18.7855 5.68108 19.0073 5.43812 19.2397L4.77261 19.9474C4.65641 20.0636 4.58246 20.1798 4.50852 20.3489C4.35007 20.7186 4.3395 21.0883 4.50852 21.458C4.62472 21.6904 4.62472 21.6904 4.8043 21.87C5.36417 22.4299 6.20926 22.4616 6.72687 21.9756C7.23392 21.5003 7.36066 21.3101 7.73039 20.9404L10.1072 18.4897C10.3396 18.2573 10.5403 17.9615 10.5403 17.5073" fill="#1A1A18"/>
<path fill-rule="evenodd" clip-rule="evenodd" d="M17.5439 31.1025C17.9454 31.6941 19.3503 32.3173 20.1743 31.4828C20.7236 30.923 20.6285 30.0356 20.1954 29.3279C20.0475 29.0955 19.8785 28.9898 19.7623 28.7786L18.0932 30.5004C17.9876 30.6061 17.9137 30.68 17.808 30.7856L17.5334 31.1131L17.5439 31.1025Z" fill="#1A1A18"/>
</svg>
