<svg width="18" height="19" viewBox="0 0 18 19" fill="none" xmlns="http://www.w3.org/2000/svg">
<path fill-rule="evenodd" clip-rule="evenodd" d="M0.939941 9.06713C0.939941 12.9743 2.93438 15.7461 5.99257 17.2496C7.64952 18.0678 9.00986 18.0985 10.8305 18.0985C10.8305 17.761 10.7589 17.5564 10.7691 17.0962C10.7793 16.1245 10.4827 16.9325 8.23252 16.4313C6.99493 16.1552 6.11534 15.7256 5.25618 15.071C1.94229 12.5651 1.62519 7.32837 3.91628 4.28041C4.36631 3.68718 4.66295 3.37012 5.24594 2.90985C8.42687 0.40398 14.1239 1.20177 15.9138 5.69189C16.7525 7.78864 16.8752 10.3866 15.3615 12.1765C14.4307 13.2811 13.3466 13.6902 11.751 13.6902C11.0759 13.6902 10.2372 13.4448 9.9713 13.0459C10.6668 12.9845 11.4032 12.3504 11.7408 11.9003C12.1703 11.3276 12.3749 10.8161 12.4158 10.0899L12.4363 9.33307C12.4465 9.09783 12.3851 9.12851 12.3851 8.85235C12.3851 8.60688 12.426 8.69892 12.426 8.55573C12.426 8.32049 12.3851 8.51482 12.3851 8.20798C12.3851 7.93182 12.4363 7.98296 12.426 7.78863C12.426 7.68635 12.3851 7.48178 12.3851 7.27722H11.1782V3.78945C11.1782 3.20645 9.9713 3.01213 9.9713 3.86106V7.27722H8.2632V3.93266C8.2632 3.15533 6.9847 2.95075 6.9847 4.07584V7.27722H5.921V10.1922C5.921 11.3685 6.82106 12.4526 7.89501 12.9129C8.57006 13.1993 8.22231 13.9357 9.59287 14.6312C11.8328 15.7665 14.7273 15.0608 16.3536 13.3118C18.9822 10.4888 18.2458 5.18047 15.6785 2.64391C15.0853 2.06091 14.7478 1.69272 14.0114 1.25291C10.5032 -0.843839 6.01305 -0.25062 3.23102 2.7462L2.33094 3.98379C1.41042 5.518 0.939941 7.09312 0.939941 9.06713Z" fill="white"/>
</svg>
