<svg width="15" height="18" viewBox="0 0 15 18" fill="none" xmlns="http://www.w3.org/2000/svg">
<path fill-rule="evenodd" clip-rule="evenodd" d="M0.310059 4.36685H2.80005V14.3669H0.310059C0.330059 14.4269 0.340035 14.4269 0.380035 14.4869L1.70004 16.1768C1.89004 16.4068 3.03004 17.9069 3.13004 17.9669C3.19004 17.9269 3.27004 17.8169 3.32004 17.7569L5.26004 15.2868C5.35004 15.1769 5.94005 14.4569 5.96005 14.3769H3.47006V4.37686H5.96005C5.93005 4.27686 4.86006 2.94685 4.75006 2.80685L4.39005 2.34685C4.33005 2.26685 4.28006 2.20686 4.22006 2.12686C4.09006 1.95686 3.22005 0.826855 3.14005 0.776855C3.06005 0.826855 2.54005 1.52686 2.43005 1.65686L0.400055 4.24686C0.400055 4.24686 0.340038 4.31686 0.320038 4.37686" fill="white"/>
<path d="M8.67001 14.4869V4.84692H9.85001V8.31693C10.4 7.67693 11.09 7.34692 11.93 7.34692C12.44 7.34692 12.89 7.44693 13.27 7.64693C13.65 7.84693 13.92 8.12694 14.08 8.48694C14.24 8.84694 14.32 9.36694 14.32 10.0469V14.4669H13.13V10.0469C13.13 9.45694 13 9.02693 12.75 8.75693C12.49 8.48693 12.14 8.35693 11.67 8.35693C11.32 8.35693 10.99 8.44694 10.69 8.62694C10.38 8.80694 10.17 9.05693 10.03 9.36693C9.90003 9.67693 9.83002 10.1069 9.83002 10.6569V14.4769H8.65002L8.67001 14.4869Z" fill="white"/>
</svg>
