<svg width="36" height="36" viewBox="0 0 36 36" fill="none" xmlns="http://www.w3.org/2000/svg">
<path fill-rule="evenodd" clip-rule="evenodd" d="M21.0596 3.44688C20.8687 3.44688 20.4021 3.58473 20.2324 3.62715C19.9567 3.70139 19.7128 3.79684 19.4582 3.86047L19.0234 3.33021C18.8643 3.14992 18.7371 2.99086 18.578 2.81057C18.4931 2.71512 18.4401 2.64089 18.3553 2.54544C17.4962 1.51674 17.8144 1.75007 16.4039 2.52424L15.5237 3.03327C15.3858 3.11811 15.3116 3.16055 15.3116 3.35144C15.3116 3.77565 16.0327 5.20733 16.1706 5.82243C15.9161 5.96029 15.7146 6.19363 15.5237 6.40573C15.4919 6.43754 15.4919 6.44812 15.4495 6.47994C15.3222 6.61781 15.0995 6.74509 15.0465 6.93599C14.5692 6.89357 12.9254 6.07694 12.5437 6.07694C12.3846 6.07694 12.3422 6.15119 12.2679 6.25724L11.2286 8.06013C10.8893 8.6116 11.1226 8.60099 12.2891 9.58727L12.8194 10.0221C12.9361 10.1175 12.9573 10.1917 13.0951 10.2342C12.9891 10.4463 12.6815 11.5492 12.6815 11.8461C12.2149 11.8886 11.7164 12.0158 11.2498 12.1007C11.0059 12.1431 9.956 12.2279 9.956 12.5249V14.9959C9.956 15.3034 10.9847 15.3671 11.218 15.4201C11.4938 15.4731 12.4058 15.664 12.6815 15.6746C12.6815 15.9716 12.9891 17.0745 13.0951 17.2866C12.83 17.4244 11.8861 18.2623 11.5574 18.5486C10.7726 19.2273 11.0483 19.0364 11.674 20.2348L12.3846 20.1924C13.689 20.1924 14.7707 20.3833 15.9267 20.7227C18.0583 21.3378 18.281 21.7938 19.7551 22.3453C20.4869 22.621 21.3459 22.5998 22.1201 22.7164C22.5549 22.78 22.9579 22.7695 23.3927 22.8331C23.8169 22.8967 24.1775 22.9179 24.5911 22.9815C25.6834 23.1512 26.9136 23.4058 27.8787 23.7982C28.5044 24.0633 29.0559 24.4663 29.427 25.0177C29.7134 24.8587 29.9785 24.7208 30.2648 24.5511C30.7314 24.2754 30.6572 24.2224 30.4663 23.7239C30.3497 23.4058 30.2224 23.0558 30.1058 22.7376C29.6285 21.4544 29.618 21.8998 30.3285 21.1787C30.5088 20.9984 30.7421 20.7757 30.8799 20.5742C31.442 20.7014 33.001 21.4332 33.3509 21.4332C33.6055 21.4332 33.7009 21.1362 33.807 20.956L34.5175 19.7258C34.5811 19.6197 34.6342 19.5137 34.6978 19.4182C35.0478 18.8456 34.5811 18.8455 33.8706 18.1562C32.6086 16.9472 32.757 17.7002 33.054 16.4912C33.1282 16.2049 33.1813 15.961 33.2449 15.6746C33.7009 15.6322 34.2206 15.5049 34.6766 15.4201C34.9417 15.3777 35.1538 15.3352 35.4083 15.2928C35.6417 15.2504 35.9386 15.2504 35.9386 14.9641V12.5779C35.9386 12.2173 35.1644 12.2173 34.7084 12.1219C34.369 12.0583 33.6055 11.8886 33.2449 11.8674L32.8313 10.2978C32.8313 10.1917 34.1357 9.18427 34.3584 8.98277C34.4221 8.92974 34.4221 8.92975 34.4857 8.88733C34.5493 8.84491 34.5705 8.81307 34.6236 8.76004C34.719 8.6858 34.8039 8.6434 34.8357 8.48433C34.8675 8.30404 33.8176 6.60722 33.6691 6.33148C33.4358 5.92849 33.1283 6.17241 32.7783 6.29967C32.2905 6.47996 31.3678 6.86175 30.9012 6.9678C30.8163 6.85114 30.7209 6.78751 30.636 6.67086C29.5967 5.37703 29.5755 6.47996 30.233 4.5074C30.7315 2.99086 31.0072 3.44689 29.4694 2.52424C27.8893 1.56978 28.3771 1.72886 27.359 2.82119C27.2211 2.96966 26.5318 3.75442 26.4894 3.89228L25.4077 3.59534C24.7184 3.42566 24.8881 3.59536 24.7608 2.853L24.4532 1.10316C24.4108 0.891054 24.3365 0.742554 24.1032 0.742554H21.8232C21.4202 0.742554 21.4095 1.50615 21.3247 1.96217C21.2505 2.39698 21.0702 3.04388 21.0702 3.46808M5.06702 22.7695V29.684C5.06702 30.6597 5.96848 30.5854 6.58358 30.6809C6.76386 30.7021 6.93353 30.7233 7.10322 30.7551C7.2729 30.7869 7.42139 30.8506 7.59108 30.9036L12.7239 33.2897C12.883 33.364 12.9997 33.4064 13.1588 33.4912L16.1494 34.8805C17.019 35.2517 18.069 35.7926 19.0552 35.7926C19.331 35.7926 19.4476 35.7501 19.6915 35.7501C20.7202 35.7501 25.2062 34.9548 26.4894 34.7745L27.7514 34.626C28.9604 34.5093 29.7452 33.9048 30.6466 33.2897C30.933 33.0882 31.1875 32.8974 31.495 32.7171L33.9978 30.9566C34.4645 30.5324 35.0902 30.0764 35.0902 29.2068C35.0902 28.8038 34.6872 28.7507 34.4963 28.6447C34.5281 28.5174 34.5705 28.5174 34.6554 28.4326C35.8007 27.3297 34.4963 26.3328 33.4464 26.3328C32.3964 26.3328 31.5587 26.6934 30.8905 27.1812C29.7664 28.0084 29.5225 28.5705 27.9741 29.0053C26.8924 29.3128 24.782 29.5037 23.6578 29.5037C21.1232 29.5037 20.6248 28.878 18.8219 28.2523C18.7477 28.2205 18.7476 28.2311 18.684 28.1993C18.6734 28.1993 18.6204 28.1675 18.6098 28.1675L18.5568 28.1357C18.5568 28.1357 18.5461 28.1356 18.5355 28.125C18.7901 28.125 19.331 28.0084 19.84 28.0084C20.593 28.0084 20.9535 28.0614 21.6323 28.0826C21.855 28.0826 22.0247 28.125 22.3004 28.125C22.5867 28.125 22.7034 28.1675 22.9685 28.1675C23.8806 28.1675 24.8032 28.2629 25.6622 28.3159C26.4682 28.369 27.1258 28.6659 27.9423 28.0614C28.462 27.6796 28.9816 26.7994 28.9816 26.1101C28.9816 25.8131 28.7059 25.3677 28.5468 25.2086C27.7832 24.4238 26.85 24.2648 25.6834 23.9997C24.9835 23.8406 22.8625 23.5012 22.1095 23.5012C21.6005 23.5012 20.0945 23.3633 19.6915 23.1937C19.1719 22.9816 18.8113 22.7694 18.3129 22.5573C17.825 22.3346 17.475 22.1437 16.913 21.8998C14.0496 20.7227 11.1756 20.8393 8.17435 21.4438C7.82438 21.5074 5.91545 21.9422 5.52306 22.1225C5.31096 22.218 5.07763 22.4831 5.07763 22.8013L5.06702 22.7695ZM0.0613861 20.9772V31.5505C0.0613861 31.9217 0.400765 32.2186 0.771945 32.2186H3.31717C3.7944 32.2186 4.10194 31.8899 4.10194 31.4763V21.0832C4.10194 20.6696 3.7732 20.3409 3.3596 20.3409H0.856772C0.390146 20.3409 0.0720016 20.6908 0.0720016 20.9772H0.0613861ZM23.0427 19.8106C21.6428 19.8106 20.5823 19.45 19.5324 18.7607C19.2037 18.538 18.9916 18.3577 18.7159 18.082C17.666 17.0321 16.8706 15.5792 16.8706 14.0202C16.8706 12.8324 16.9554 12.1007 17.4645 11.072C18.069 9.863 18.8113 9.09942 19.9566 8.41008C21.505 7.47683 23.8593 7.38137 25.4925 8.19797C26.5 8.69641 26.3834 8.71764 27.0515 9.2479L27.6241 9.83117C27.8999 10.1705 28.0165 10.3508 28.2286 10.722C28.3453 10.9023 28.3983 11.0296 28.4938 11.2417C28.7907 11.9416 28.865 12.2385 28.9816 13.0021L29.0453 13.7339C29.0453 13.9141 29.0135 13.9035 29.0029 14.0732C28.9392 15.4625 28.4726 16.5442 27.6454 17.6048C27.4227 17.8911 27.1576 18.135 26.8818 18.3789C25.9168 19.2379 24.3896 19.8318 23.0215 19.8318L23.0427 19.8106Z" fill="#1A1A18"/>
</svg>
