<svg width="23" height="22" viewBox="0 0 23 22" fill="none" xmlns="http://www.w3.org/2000/svg">
<path fill-rule="evenodd" clip-rule="evenodd" d="M17.522 1.58636C17.522 2.61553 18.6839 2.38314 19.4143 2.38314C19.37 2.41634 19.3257 2.46061 19.2815 2.49381L18.8499 2.85899C18.6507 3.02498 18.4737 3.16884 18.2745 3.33483L17.5551 3.93243C17.4998 3.97669 17.4666 3.99885 17.4112 4.05418C17.0682 4.36404 16.5924 4.69601 16.2604 5.00587C16.1608 5.0944 16.0612 5.1608 15.9726 5.24933C15.7956 5.41533 15.5853 5.55918 15.3972 5.72518L13.9585 6.93141C13.8479 7.00888 13.7704 7.09741 13.6708 7.17488L13.0954 7.65076C12.9958 7.72822 12.8962 7.81675 12.8077 7.89422C12.5642 8.08235 12.3318 8.30365 12.0883 8.49178C11.8449 8.67991 11.6125 8.90125 11.369 9.08937C11.0924 9.3107 11.2141 9.25537 10.6497 9.05618L8.32578 8.20408C7.54006 7.92742 6.78751 7.61756 6.00179 7.3409C5.75833 7.25237 5.44846 7.11956 5.16074 7.23023C5.08327 7.26343 5.03903 7.29662 4.97263 7.36302L3.02497 9.56522C2.96963 9.62055 2.94748 9.63162 2.90322 9.70909C2.85895 9.76442 2.81469 9.79763 2.77043 9.85296C2.71509 9.91936 2.70404 9.93043 2.64871 9.99683L1.3982 11.4022C1.34287 11.4576 1.33179 11.4908 1.27646 11.5461L0.65674 12.2433C0.346881 12.6085 0.280487 12.6417 0.280487 13.1618C0.280487 13.3278 0.391154 13.5934 0.490751 13.6709C0.712079 13.859 1.2986 13.8258 1.56419 13.7262C1.70806 13.6709 1.98472 13.2835 2.11751 13.1397L4.25335 10.694C4.30868 10.6387 4.33081 10.5944 4.38614 10.5391C4.44148 10.4727 4.4636 10.4395 4.51894 10.3842L4.83984 10.0189C4.83984 10.0189 4.87303 9.9747 4.90623 9.93043C4.92837 9.89723 4.9505 9.88617 4.97263 9.86403C5.06116 9.7755 5.54812 9.23322 5.57026 9.14469C5.66985 9.14469 5.83579 9.22216 5.92432 9.25536C6.04605 9.29963 6.15672 9.34389 6.27845 9.38815C6.51085 9.47669 6.75434 9.56524 6.9978 9.65377L9.84187 10.7051C10.0964 10.8047 10.3066 10.8821 10.5611 10.9707C10.7603 11.0481 11.5018 11.3248 11.7342 11.1035C11.7784 11.0592 11.8006 10.9928 11.9888 10.8268C12.2433 10.6165 12.6085 10.3178 12.8298 10.1075C13.0069 9.93044 13.2171 9.77549 13.4052 9.6095L15.2534 8.01593C15.3198 7.9606 15.3308 7.93848 15.3972 7.89422L16.1165 7.27447C16.1165 7.27447 16.194 7.21916 16.2493 7.16383C16.3046 7.1085 16.3378 7.09742 16.3932 7.04208C16.4817 6.96462 16.5813 6.86504 16.6809 6.78758C16.7473 6.73225 16.7584 6.72116 16.8248 6.66583C16.8801 6.6105 16.9133 6.59945 16.9686 6.54412L17.2564 6.30065C17.5552 6.06826 18.1638 5.49278 18.529 5.20506L19.2483 4.58534C19.3368 4.50788 19.4364 4.41937 19.536 4.33084L20.3881 3.60045C20.4545 3.53405 20.6095 3.37912 20.6869 3.35699C20.6869 3.84391 20.6759 4.34191 20.6869 4.81776C20.6869 5.02802 20.8087 5.21614 20.9193 5.32681C21.362 5.73626 22.2805 5.48174 22.2805 4.81776V1.48677C22.2805 1.25437 22.1588 1.06623 22.026 0.955566C21.8821 0.833836 21.6718 0.767456 21.4284 0.767456H18.374C17.9867 0.767456 17.7101 0.900257 17.5662 1.22118C17.5219 1.30971 17.4887 1.44248 17.4887 1.57528" fill="#176BB2"/>
<path fill-rule="evenodd" clip-rule="evenodd" d="M19.9235 9.62072V20.7646C19.9235 21.3511 20.3993 21.6056 20.8862 21.6499H21.1961C21.4507 21.6278 21.672 21.5503 21.8048 21.4285C21.9818 21.2736 22.1368 21.0855 22.1368 20.7535V9.63177C22.1368 9.13378 21.6941 8.76859 21.2846 8.76859C20.842 8.76859 20.5211 8.71328 20.2001 9.0342C20.0452 9.18913 19.9345 9.37726 19.9345 9.62072" fill="#176BB2"/>
<path fill-rule="evenodd" clip-rule="evenodd" d="M15.0761 11.1921V20.6428C15.0761 21.3289 15.5298 21.5945 16.0057 21.6388H16.3044C16.5589 21.6167 16.7913 21.5392 16.9352 21.4396C17.0901 21.3289 17.2783 21.0855 17.2783 20.8199V11.015C17.2783 10.5724 16.8135 10.1961 16.404 10.1961C15.9946 10.1961 15.6073 10.174 15.3196 10.4839C15.2642 10.5503 15.1757 10.6831 15.1425 10.7716C15.0982 10.8823 15.0761 11.0372 15.0761 11.1921Z" fill="#176BB2"/>
<path fill-rule="evenodd" clip-rule="evenodd" d="M5.38168 12.4647V20.8088C5.38168 21.0744 5.54767 21.3179 5.71366 21.4396C5.86859 21.5503 6.08998 21.6277 6.33344 21.6499H6.66542C7.14128 21.5945 7.58389 21.3179 7.58389 20.6981V12.5311C7.58389 11.9778 7.14126 11.6237 6.57687 11.6237C6.17848 11.6237 6.00144 11.6237 5.70265 11.845C5.54772 11.9557 5.38168 12.2102 5.38168 12.4647Z" fill="#176BB2"/>
<path fill-rule="evenodd" clip-rule="evenodd" d="M10.2403 13.8591V20.8309C10.2403 21.0965 10.4063 21.3179 10.5723 21.4396C10.7383 21.5613 10.9486 21.6277 11.1699 21.6499H11.4686C11.9666 21.6056 12.4204 21.3289 12.4204 20.8531V13.837C12.4204 13.4497 11.9888 13.0623 11.5904 13.0623H11.1145C10.6718 13.0623 10.2403 13.4386 10.2403 13.8591Z" fill="#176BB2"/>
<path fill-rule="evenodd" clip-rule="evenodd" d="M0.534719 15.3642V20.7314C0.534719 21.0634 0.678557 21.2516 0.85562 21.4176C0.933084 21.484 1.06589 21.5503 1.17655 21.5946C1.25402 21.6167 1.34256 21.6389 1.43109 21.65H1.79627C2.27213 21.5946 2.73692 21.3401 2.73692 20.8089V15.3532C2.73692 14.8552 2.31641 14.49 1.81842 14.49H1.46429C0.955238 14.49 0.545762 14.8773 0.545762 15.3753" fill="#176BB2"/>
</svg>
